<svg width="176" height="177" viewBox="0 0 176 177" fill="none" xmlns="http://www.w3.org/2000/svg">
<g filter="url(#filter0_d_45_14169)">
<circle cx="88.0001" cy="84.2493" r="42.9373" fill="url(#paint0_linear_45_14169)"/>
</g>
<g clip-path="url(#clip0_45_14169)">
<path d="M87.3351 103.027C87.3233 102.274 88.025 101.568 88.7764 101.577C89.5468 101.587 90.1598 102.213 90.1657 102.998C90.1704 103.832 89.5764 104.431 88.7516 104.424C87.9729 104.417 87.3469 103.8 87.3351 103.027Z" fill="white"/>
<path d="M90.167 107.765C90.1659 108.567 89.5789 109.151 88.7742 109.15C87.9518 109.15 87.3306 108.536 87.3365 107.733C87.3412 106.984 87.9991 106.328 88.7529 106.321C89.541 106.314 90.1682 106.954 90.167 107.765Z" fill="white"/>
<path d="M91.3775 93.5428C91.0485 94.5043 90.6201 95.4195 89.8569 96.1255C89.4971 96.4583 89.0569 96.6116 88.438 96.6484C88.2747 96.5819 87.9576 96.526 87.7328 96.3489C86.7778 95.6001 86.0725 94.6707 85.94 93.4168C85.8702 92.7572 86.0418 92.1237 86.2926 91.5128C86.3743 91.3143 86.5234 91.2822 86.6819 91.3713C87.9517 92.0952 89.3871 92.2639 90.7704 92.6015C91.3053 92.731 91.5455 93.0531 91.3775 93.5428Z" fill="white"/>
<path d="M105.663 93.1077C105.635 92.8985 105.605 92.6893 105.573 92.4801C105.352 90.9861 105.056 89.4993 104.677 88.0172C104.636 87.8567 104.594 87.6975 104.553 87.537C104.553 87.5358 104.552 87.5346 104.552 87.5334C104.301 86.3544 104.041 85.1778 103.758 84.0047C103.268 81.9699 102.612 79.9756 101.519 78.1583C100.739 76.8616 99.6658 75.9595 98.2056 75.5566C97.466 75.3533 96.7181 75.1774 95.9667 75.0194C95.0259 74.8221 94.8449 74.9172 94.3585 75.7646C94.2603 75.9357 94.1787 76.1164 94.0864 76.2923C93.3882 77.6318 92.3267 78.5481 90.9162 79.077C89.8511 79.4776 88.7483 79.5037 87.6478 79.4074C85.5177 79.2208 83.88 78.2272 82.8552 76.3006C82.6883 75.9868 82.5097 75.679 82.3239 75.3771C82.0659 74.9611 81.7275 74.8019 81.2245 74.9576C80.7559 75.1014 80.2637 75.1715 79.7797 75.2618C77.2793 75.7289 75.5823 77.1504 74.709 79.5536C74.6274 79.7759 74.5256 79.9922 74.4605 80.2192C73.7257 82.7817 72.9375 85.3287 72.2772 87.9102C70.7531 93.8624 70.5827 99.918 71.0643 106.012C71.1483 107.069 71.4087 107.302 72.4642 107.325C72.6417 107.33 72.8192 107.327 72.9967 107.317C74.3209 107.243 74.6558 106.844 74.5635 105.544C74.128 99.4188 74.8143 93.4571 77.1763 87.745C77.3349 87.3611 77.5562 87.0034 77.7479 86.6337C77.7952 86.6515 77.8425 86.6706 77.8887 86.6884C77.8981 86.7954 77.9348 86.9095 77.9123 87.0105C77.5242 88.7826 77.8993 90.462 78.4934 92.1236C78.8649 93.1659 78.9572 94.2391 78.7561 95.3385C78.5703 96.35 78.3975 97.365 78.2662 98.3836C77.6946 102.817 77.1444 107.252 76.5752 111.686C76.3906 113.13 76.9716 113.825 78.4188 113.825C79.8601 113.826 81.3003 113.826 82.7416 113.826C83.1392 111.342 83.5628 108.863 83.9711 106.381C84.0504 105.895 84.1084 105.405 84.177 104.918C84.1084 104.899 84.0385 104.881 83.9699 104.862C83.8823 105.026 83.7865 105.186 83.7072 105.353C82.7996 107.296 81.8919 109.24 80.989 111.186C80.7784 111.64 80.4648 111.919 79.943 111.932C79.485 111.942 79.1395 111.736 78.9809 111.333C78.878 111.074 78.8294 110.726 78.9135 110.471C79.8672 107.545 80.8257 104.621 81.8422 101.716C82.2043 100.68 82.8599 99.8003 83.6788 99.0468C84.5462 98.2493 85.4538 98.0734 86.5768 98.5155C87.3081 98.8043 88.1341 98.9552 88.9199 98.9659C89.5979 98.9743 90.3257 98.8019 90.9469 98.5226C92.1433 97.9866 93.0841 98.273 93.9396 99.1585C94.7597 100.005 95.3798 100.983 95.7572 102.095C96.6838 104.827 97.5867 107.565 98.4872 110.303C98.7795 111.194 98.1618 112.014 97.2909 111.922C96.8163 111.873 96.5525 111.569 96.3643 111.163C95.4851 109.263 94.6035 107.367 93.7195 105.47C93.6189 105.254 93.4935 105.051 93.3787 104.842C93.3195 104.856 93.2616 104.869 93.2024 104.882C93.245 105.295 93.2675 105.711 93.3349 106.119C93.7586 108.689 94.1881 111.26 94.6189 113.829C96.0235 113.829 97.4293 113.829 98.8339 113.821C100.02 113.817 100.614 113.136 100.494 111.966C100.475 111.77 100.439 111.575 100.414 111.379C100.159 109.437 99.9025 107.496 99.6528 105.554C99.3049 102.848 98.989 100.137 98.6079 97.4339C98.3003 95.253 97.9169 93.0922 98.8316 90.9493C99.3404 89.756 99.4067 88.4962 99.1558 87.2209C99.1215 87.0485 99.1511 86.8631 99.1511 86.6836C99.2079 86.6706 99.2659 86.6587 99.3227 86.6468C99.4481 86.9035 99.5712 87.1626 99.6883 87.4229L99.7783 87.8532C102.139 93.5641 102.827 99.5269 102.39 105.653C102.298 106.952 102.634 107.351 103.958 107.425C104.134 107.434 104.313 107.437 104.49 107.433C105.546 107.409 105.806 107.176 105.89 106.12C106.236 101.755 106.245 97.409 105.663 93.1077ZM92.4628 94.1037C92.3965 94.2142 92.2533 94.3568 92.1528 94.3509C91.9196 94.3378 91.8688 94.484 91.7954 94.6326C91.4404 95.3492 91.0191 96.016 90.405 96.5425C89.2074 97.5682 87.8122 97.4874 86.7378 96.3286C86.2692 95.8223 85.9556 95.2209 85.6798 94.5969C85.6171 94.4519 85.5509 94.3734 85.3603 94.3509C85.216 94.333 85.0124 94.1559 84.9769 94.0133C84.8539 93.5236 84.7296 93.0185 84.7237 92.517C84.713 91.7183 84.9154 90.9433 85.2396 90.21C85.8917 88.7398 86.9685 88.0505 88.5719 88.0611C89.2311 88.0552 89.8606 88.1966 90.4641 88.4593C91.7173 89.006 92.4415 89.9569 92.632 91.3154C92.6936 91.7551 92.7598 92.1949 92.7989 92.637C92.8462 93.1588 92.7302 93.6544 92.4628 94.1037ZM94.6224 93.9646C94.0864 93.98 93.5787 93.8648 93.0959 93.6271C92.9338 93.5474 92.8817 93.4535 92.9255 93.2693C93.1622 92.2697 93.0639 91.2761 92.806 90.2992C92.6012 89.5219 92.135 88.9145 91.4854 88.4474C91.4025 88.388 91.3173 88.3309 91.2274 88.268C92.1954 87.7486 93.6828 88.3785 93.9834 89.4779C94.1408 90.0543 94.1467 90.6712 94.2213 91.269C94.2958 91.8585 94.3467 92.4516 94.4508 93.0352C94.5053 93.3359 94.652 93.6187 94.7632 93.9254C94.723 93.9373 94.6733 93.9634 94.6224 93.9646Z" fill="white"/>
<path d="M105.663 93.108C105.635 92.8988 105.605 92.6897 105.573 92.4805C105.6 92.61 105.626 92.7396 105.653 92.8691C105.668 92.9404 105.671 93.0236 105.663 93.108Z" fill="white"/>
<path d="M97.1525 64.2427C97.0697 63.318 96.9312 62.3981 96.8022 61.4782C96.4046 58.6364 94.8888 56.6468 92.2677 55.5034C91.005 54.952 89.6891 54.6584 88.3094 54.6703C84.9546 54.6465 82.7015 56.0894 81.3382 59.1665C80.659 60.6985 80.2365 62.3197 80.2578 63.9908C80.272 65.039 80.5312 66.0956 80.788 67.1213C80.8625 67.4197 81.2897 67.7917 81.5903 67.8273C81.9891 67.8761 82.1275 68.0401 82.2601 68.342C82.8364 69.6482 83.4931 70.9056 84.4741 71.9646C86.7201 74.3904 89.6371 74.5592 92.1434 72.4127C93.4285 71.3109 94.3089 69.9156 95.0521 68.4169C95.2059 68.1055 95.3124 67.7988 95.7999 67.8273C96.0106 67.8392 96.31 67.5409 96.4484 67.3103C97.0093 66.3714 97.2519 65.3338 97.1525 64.2427ZM94.1799 66.1372C93.4901 68.1494 92.5943 70.0618 90.9967 71.5403C90.2453 72.2368 89.3258 72.5577 88.0313 72.635C87.6893 72.4959 87.0242 72.377 86.5544 72.0086C84.557 70.4409 83.0813 68.4953 82.8032 65.8734C82.6577 64.4935 83.0174 63.1671 83.5428 61.8906C83.7132 61.4758 84.0256 61.4069 84.3546 61.5947C87.0124 63.1077 90.0134 63.4619 92.9102 64.1678C94.0273 64.44 94.5302 65.1127 94.1799 66.1372Z" fill="white"/>
<path d="M93.865 55.1032C95.8885 54.0157 98.9995 55.335 99.6291 57.6348C99.9581 58.8388 99.9723 60.1295 100.128 61.381C100.282 62.6136 100.391 63.8544 100.609 65.0762C100.721 65.7037 101.029 66.2956 101.261 66.9386C101.178 66.9624 101.074 67.0171 100.967 67.0206C99.8445 67.0539 98.783 66.8115 97.7724 66.3135C97.434 66.1471 97.3251 65.951 97.4174 65.5659C97.912 63.4752 97.705 61.3977 97.1677 59.3522C96.7393 57.7263 95.7631 56.4546 94.4046 55.4776C94.2306 55.354 94.0531 55.2351 93.865 55.1032Z" fill="white"/>
</g>
<defs>
<filter id="filter0_d_45_14169" x="0.0627441" y="0.812012" width="175.875" height="175.875" filterUnits="userSpaceOnUse" color-interpolation-filters="sRGB">
<feFlood flood-opacity="0" result="BackgroundImageFix"/>
<feColorMatrix in="SourceAlpha" type="matrix" values="0 0 0 0 0 0 0 0 0 0 0 0 0 0 0 0 0 0 127 0" result="hardAlpha"/>
<feOffset dy="4.5"/>
<feGaussianBlur stdDeviation="22.5"/>
<feComposite in2="hardAlpha" operator="out"/>
<feColorMatrix type="matrix" values="0 0 0 0 0.366786 0 0 0 0 0 0 0 0 0 0.9875 0 0 0 0.25 0"/>
<feBlend mode="normal" in2="BackgroundImageFix" result="effect1_dropShadow_45_14169"/>
<feBlend mode="normal" in="SourceGraphic" in2="effect1_dropShadow_45_14169" result="shape"/>
</filter>
<linearGradient id="paint0_linear_45_14169" x1="54.1273" y1="108.103" x2="123.304" y2="61.8265" gradientUnits="userSpaceOnUse">
<stop stop-color="#A773FF"/>
<stop offset="1" stop-color="#BE97FF"/>
</linearGradient>
<clipPath id="clip0_45_14169">
<rect width="35.304" height="59.1581" fill="white" transform="translate(70.8252 54.6704)"/>
</clipPath>
</defs>
</svg>
