<svg width="39" height="40" viewBox="0 0 39 40" fill="none" xmlns="http://www.w3.org/2000/svg">
<path fill-rule="evenodd" clip-rule="evenodd" d="M28.1025 20.947C25.9095 21.8263 23.5424 22.3686 21.0665 22.5091C20.6395 22.5334 20.2093 22.5456 19.7762 22.5456C19.343 22.5456 18.9128 22.5334 18.4858 22.5091C16.0094 22.3686 13.6417 21.826 11.4482 20.9464C6.84515 19.1003 3.00955 15.7697 0.546997 11.5541C4.38531 4.98329 11.5594 0.5625 19.7762 0.5625C27.9929 0.5625 35.167 4.98329 39.0053 11.5541C36.5425 15.7702 32.7063 19.1011 28.1025 20.947Z" fill="white"/>
<path d="M11.4479 22.6571C10.9176 22.4445 10.3975 22.2121 9.88851 21.9609C8.23433 23.1149 6.83594 24.5521 5.78296 26.1918C7.57274 28.9789 10.3605 31.1809 13.706 32.4013C15.3002 32.9829 17.021 33.3416 18.8209 33.4345H20.6965C22.496 33.3416 25.6588 35.107 21.0661 39.5621C24.4122 38.3417 31.9445 28.9792 33.7345 26.1918C32.6845 24.5568 31.2911 23.1231 29.6431 21.9708C29.14 22.2184 28.6261 22.4477 28.1022 22.6578C25.9092 23.537 23.542 24.0794 21.0661 24.2199C20.6392 24.2441 20.2089 24.2564 19.7758 24.2564C19.3427 24.2564 18.9125 24.2441 18.4855 24.2199C16.009 24.0793 13.6413 23.5368 11.4479 22.6571Z" fill="white"/>
<rect x="10.5038" y="8.74219" width="18.5852" height="6.57303" rx="3.28652" fill="#162550"/>
<ellipse cx="24.9215" cy="11.9922" rx="1.21689" ry="1.20506" fill="#04FED1"/>
<ellipse cx="19.7587" cy="28.2051" rx="1.21689" ry="1.20506" fill="#162550"/>
<ellipse cx="14.892" cy="11.9922" rx="1.21689" ry="1.20506" fill="#04FED1"/>
<ellipse cx="14.892" cy="28.2051" rx="1.21689" ry="1.20506" fill="#162550"/>
<ellipse cx="24.627" cy="28.2051" rx="1.21689" ry="1.20506" fill="#162550"/>
</svg>
