<svg width="24" height="24" viewBox="0 0 24 24" fill="none" xmlns="http://www.w3.org/2000/svg">
<path d="M15.7305 3.125H19.7695C20.4767 3.125 20.6883 3.26176 20.7344 3.30273C20.7489 3.31556 20.875 3.42636 20.875 3.98047V8.51953C20.875 9.08058 20.7455 9.1863 20.7354 9.19531C20.6966 9.22943 20.5318 9.33686 20.0195 9.36035L19.7773 9.36523H15.7305C15.0212 9.36523 14.8103 9.23053 14.7646 9.19043C14.7552 9.18205 14.625 9.07731 14.625 8.50977V3.98047C14.625 3.42636 14.7511 3.31556 14.7656 3.30273C14.8117 3.26176 15.0233 3.125 15.7305 3.125Z" stroke="black" stroke-width="2.25"/>
<path d="M15.7305 14.6255H19.7695C20.4519 14.6255 20.6403 14.7697 20.6855 14.8149C20.7308 14.8602 20.875 15.0486 20.875 15.731V19.77C20.875 20.4523 20.7308 20.6408 20.6855 20.686C20.6403 20.7313 20.4519 20.8755 19.7695 20.8755H15.7305C15.0481 20.8755 14.8597 20.7313 14.8145 20.686C14.7692 20.6408 14.625 20.4523 14.625 19.77V15.731C14.625 15.0486 14.7692 14.8602 14.8145 14.8149C14.8597 14.7697 15.0481 14.6255 15.7305 14.6255Z" stroke="black" stroke-width="2.25"/>
<path d="M4.23047 3.125H8.26953C8.97671 3.125 9.18826 3.26176 9.23438 3.30273C9.24892 3.31556 9.375 3.42636 9.375 3.98047V8.51953C9.375 9.08058 9.24554 9.1863 9.23535 9.19531C9.19658 9.22943 9.03182 9.33686 8.51953 9.36035L8.27734 9.36523H4.23047C3.5212 9.36523 3.31026 9.23053 3.26465 9.19043C3.25518 9.18205 3.125 9.07731 3.125 8.50977V3.98047C3.125 3.42636 3.25108 3.31556 3.26562 3.30273C3.31174 3.26176 3.52329 3.125 4.23047 3.125Z" stroke="black" stroke-width="2.25"/>
<path d="M4.23047 14.6255H8.26953C8.95186 14.6255 9.14027 14.7697 9.18555 14.8149C9.23083 14.8602 9.375 15.0486 9.375 15.731V19.77C9.375 20.4523 9.23083 20.6408 9.18555 20.686C9.14027 20.7313 8.95186 20.8755 8.26953 20.8755H4.23047C3.54814 20.8755 3.35973 20.7313 3.31445 20.686C3.26917 20.6408 3.125 20.4523 3.125 19.77V15.731C3.125 15.0486 3.26917 14.8602 3.31445 14.8149C3.35973 14.7697 3.54814 14.6255 4.23047 14.6255Z" stroke="black" stroke-width="2.25"/>
</svg>
