<svg width="26" height="24" viewBox="0 0 26 24" fill="none" xmlns="http://www.w3.org/2000/svg">
<g clip-path="url(#clip0_45_16347)">
<rect x="0.625" y="0.40918" width="24.4276" height="24.4276" fill="black" fill-opacity="0.01"/>
<mask id="mask0_45_16347" style="mask-type:luminance" maskUnits="userSpaceOnUse" x="0" y="0" width="26" height="25">
<rect x="0.625" y="0.40918" width="24.4276" height="24.4276" fill="white"/>
</mask>
<g mask="url(#mask0_45_16347)">
</g>
<g clip-path="url(#clip1_45_16347)">
<mask id="mask1_45_16347" style="mask-type:luminance" maskUnits="userSpaceOnUse" x="0" y="0" width="26" height="25">
<rect x="0.625" y="0.40918" width="24.4276" height="24.4276" fill="white"/>
</mask>
<g mask="url(#mask1_45_16347)">
<path fill-rule="evenodd" clip-rule="evenodd" d="M23.5262 17.5839V1.55325C23.5262 0.918702 23.0157 0.408203 22.3812 0.408203H6.73227C4.20364 0.408203 2.1521 2.45974 2.1521 4.98838V20.2556C2.1521 22.7843 4.20364 24.8358 6.73227 24.8358H22.3812C23.0157 24.8358 23.5262 24.3253 23.5262 23.6908V22.9274C23.5262 22.5696 23.3593 22.2451 23.1016 22.0352C22.9012 21.3005 22.9012 19.206 23.1016 18.4713C23.3593 18.2661 23.5262 17.9417 23.5262 17.5839ZM8.25932 6.80185C8.25932 6.6444 8.38814 6.51559 8.54559 6.51559H18.6601C18.8176 6.51559 18.9464 6.6444 18.9464 6.80185V7.75605C18.9464 7.91349 18.8176 8.04231 18.6601 8.04231H8.54559C8.38814 8.04231 8.25932 7.91349 8.25932 7.75605V6.80185ZM8.25882 9.85502C8.25882 9.69758 8.38764 9.56876 8.54508 9.56876H18.6596C18.8171 9.56876 18.9459 9.69758 18.9459 9.85502V10.8092C18.9459 10.9667 18.8171 11.0955 18.6596 11.0955H8.54508C8.38764 11.0955 8.25882 10.9667 8.25882 10.8092V9.85502ZM20.3488 21.7826H6.73237C5.8879 21.7826 5.20565 21.1004 5.20565 20.2559C5.20565 19.4162 5.89267 18.7292 6.73237 18.7292H20.3488C20.2582 19.545 20.2582 20.9668 20.3488 21.7826Z" fill="#FF6B6B"/>
</g>
</g>
</g>
<defs>
<clipPath id="clip0_45_16347">
<rect width="24.4276" height="24.4276" fill="white" transform="translate(0.625 0.40918)"/>
</clipPath>
<clipPath id="clip1_45_16347">
<rect width="24.4276" height="24.4276" fill="white" transform="translate(0.625 0.40918)"/>
</clipPath>
</defs>
</svg>
