<svg width="153" height="59" viewBox="0 0 153 59" fill="none" xmlns="http://www.w3.org/2000/svg">
<path d="M71.8521 14.4128C72.2035 14.2633 72.4265 13.9243 72.422 13.5428V13.5116C72.422 11.7026 73.6877 10.1679 75.4851 9.8445C77.8702 9.41622 79.9536 11.2252 79.9536 13.5116V13.5406C79.949 13.922 80.172 14.2633 80.5256 14.4128C83.8094 15.8002 86.2914 18.7156 87.0437 22.2511C91.0437 20.2302 95.0437 18.2093 99.046 16.1883C99.8613 15.7757 100.267 14.9927 100.267 14.212C100.267 13.6053 100.024 12.9986 99.5303 12.5658H99.528C99.3861 12.4387 99.2262 12.3294 99.0438 12.2379L88.0775 6.69265L87.7532 6.52982L84.9626 5.12007L83.4874 4.37282L77.1112 1.15183C76.7936 0.991224 76.4445 0.908691 76.0954 0.908691C75.7463 0.908691 75.3972 0.991224 75.0796 1.15183L64.1156 6.69265L53.1471 12.2357C52.3317 12.6484 51.9241 13.4291 51.9241 14.212C51.9241 14.4351 51.9579 14.6581 52.0232 14.8723C52.1899 15.4099 52.5637 15.8939 53.1471 16.1883L54.4556 16.8486L55.3475 17.2992V22.3381C54.8543 22.559 54.5097 23.0519 54.5097 23.6274C54.5097 24.0936 54.7372 24.5107 55.093 24.7628L54.4714 30.1586C54.3903 30.8657 55.1313 31.4501 55.9399 31.4501C56.7484 31.4501 57.4917 30.868 57.4106 30.1586L56.7867 24.7628C57.1403 24.5085 57.3701 24.0936 57.3701 23.6274C57.3701 23.0698 57.0457 22.5879 56.5705 22.3582V17.9171C59.0863 19.1885 61.6043 20.46 64.1179 21.7314L65.3138 22.3359C66.0458 18.7625 68.5346 15.8136 71.8521 14.4128Z" fill="url(#paint0_linear_178_8968)"/>
<path d="M76.3158 15.2083C77.3713 15.2083 78.2425 14.4246 78.3803 13.4064C78.3933 13.3133 78.3989 13.2202 78.3989 13.1253C78.3989 11.9749 77.4663 11.0422 76.3158 11.0422C75.1654 11.0422 74.2328 11.9749 74.2328 13.1253C74.2328 13.2202 74.2384 13.3151 74.2514 13.4045C74.3873 14.4227 75.2604 15.2083 76.3158 15.2083Z" fill="url(#paint1_linear_178_8968)"/>
<path d="M76.2257 16C81.2108 16 85.252 20.0413 85.2521 25.0264C85.2521 30.0115 81.2109 34.0527 76.2257 34.0527C71.2405 34.0527 67.1994 30.0116 67.1994 25.0264C67.1994 20.0413 71.2406 16 76.2257 16Z" fill="url(#paint2_linear_178_8968)"/>
<path d="M80.8604 21C80.8604 23.1646 80.8604 25.3292 80.8604 27.5594C80.5652 27.5911 80.5652 27.5911 80.2641 27.6233C78.9349 27.8631 77.6571 28.5103 76.784 29.5623C76.7567 29.5934 76.7567 29.5934 76.7288 29.6252C76.7147 29.6252 76.7007 29.6252 76.6862 29.6252C76.6813 28.8381 76.6776 28.051 76.6753 27.2638C76.675 27.1708 76.6748 27.0777 76.6745 26.9847C76.6744 26.9569 76.6744 26.9569 76.6743 26.9286C76.6734 26.6291 76.6717 26.3296 76.6697 26.0302C76.6678 25.7227 76.6666 25.4152 76.6661 25.1076C76.6659 24.918 76.6649 24.7284 76.6632 24.5388C76.6621 24.4086 76.6617 24.2785 76.662 24.1483C76.6621 24.0732 76.6619 23.9983 76.6608 23.9233C76.6537 23.3791 76.6537 23.3791 76.8443 23.1639C76.8624 23.1456 76.8805 23.1273 76.8991 23.1084C76.9306 23.0692 76.9617 23.0297 76.9923 22.9899C77.1053 22.8544 77.2249 22.7252 77.3464 22.5973C77.3631 22.5796 77.3798 22.562 77.397 22.5439C77.5142 22.4235 77.6411 22.3185 77.7723 22.2139C77.7884 22.2004 77.8045 22.1869 77.8211 22.173C78.6298 21.5004 79.7983 21 80.8604 21Z" fill="white"/>
<path d="M72.0648 21C72.1024 21.004 72.14 21.008 72.1776 21.0121C72.1985 21.0143 72.2195 21.0165 72.2411 21.0188C73.1838 21.1213 74.0798 21.4527 74.8547 22.001C74.8683 22.0106 74.882 22.0202 74.8961 22.03C75.1275 22.194 75.3335 22.378 75.5362 22.576C75.56 22.5989 75.5838 22.6219 75.6076 22.6449C75.7231 22.7572 75.8338 22.8723 75.9315 23.0007C75.9824 23.067 75.9824 23.067 76.0429 23.1261C76.2689 23.3676 76.2502 23.6347 76.2449 23.9499C76.2438 24.0262 76.2442 24.1026 76.2444 24.1789C76.2445 24.3108 76.2438 24.4427 76.2424 24.5746C76.2405 24.7654 76.2399 24.9561 76.2396 25.1468C76.2391 25.4563 76.2376 25.7658 76.2353 26.0754C76.2332 26.3758 76.2315 26.6763 76.2305 26.9768C76.2305 26.9953 76.2304 27.0139 76.2303 27.033C76.23 27.1261 76.2297 27.2192 76.2295 27.3123C76.227 28.0833 76.2229 28.8543 76.2177 29.6252C76.1381 29.5987 76.1207 29.5675 76.0699 29.5015C75.9122 29.3039 75.7313 29.1257 75.5362 28.965C75.5251 28.9559 75.5141 28.9468 75.5027 28.9375C75.0906 28.5995 74.6572 28.3174 74.1732 28.0919C74.1569 28.0842 74.1406 28.0766 74.1238 28.0688C73.5562 27.8061 72.9577 27.649 72.3361 27.5885C72.3075 27.5856 72.2789 27.5828 72.2503 27.5799C72.1814 27.573 72.1124 27.5662 72.0435 27.5594C72.043 26.8069 72.0426 26.0543 72.0424 25.3017C72.0424 25.2125 72.0423 25.1234 72.0423 25.0342C72.0423 25.0165 72.0423 24.9987 72.0423 24.9804C72.0422 24.6943 72.042 24.4082 72.0418 24.122C72.0416 23.8277 72.0415 23.5334 72.0415 23.2391C72.0414 23.058 72.0413 22.8769 72.0412 22.6957C72.0411 22.571 72.041 22.4462 72.0411 22.3215C72.0411 22.2499 72.041 22.1782 72.0409 22.1066C72.0404 21.7373 72.0483 21.369 72.0648 21Z" fill="white"/>
<path d="M81.3505 22.4697C81.5429 22.5007 81.7153 22.5598 81.9042 22.6188C81.9042 24.8326 81.9042 27.0464 81.9042 29.3273C81.6435 29.2799 81.6435 29.2799 81.5493 29.2595C81.1181 29.1683 80.6839 29.1071 80.243 29.0931C80.2163 29.0922 80.1896 29.0913 80.1622 29.0904C79.3242 29.0772 78.4751 29.2086 77.69 29.5029C77.6577 29.5148 77.6577 29.5148 77.6247 29.527C77.6059 29.5342 77.5871 29.5414 77.5677 29.5488C77.5129 29.5626 77.4844 29.5591 77.4318 29.5403C77.5731 29.3935 77.7189 29.2616 77.8791 29.1357C77.8998 29.1188 77.9206 29.1019 77.942 29.0846C78.5234 28.6215 79.223 28.3019 79.9449 28.1347C79.9716 28.1285 79.9716 28.1285 79.9989 28.1222C80.299 28.0551 80.6019 28.0298 80.9082 28.0096C80.924 28.0085 80.9397 28.0073 80.956 28.0062C80.9992 28.003 81.0424 28.0002 81.0857 27.9974C81.1641 27.9848 81.2048 27.973 81.2653 27.9217C81.3326 27.7977 81.3384 27.6928 81.3376 27.5534C81.3378 27.5316 81.3379 27.5098 81.3381 27.4874C81.3385 27.4146 81.3384 27.3418 81.3384 27.2689C81.3386 27.2167 81.3388 27.1644 81.339 27.1121C81.3395 26.9997 81.3398 26.8873 81.3399 26.7748C81.34 26.6122 81.3405 26.4497 81.3411 26.2871C81.342 26.0233 81.3426 25.7595 81.3431 25.4958C81.3435 25.2396 81.3441 24.9834 81.3449 24.7272C81.3449 24.7114 81.345 24.6956 81.345 24.6793C81.3452 24.6 81.3455 24.5208 81.3457 24.4415C81.3477 23.7842 81.3492 23.127 81.3505 22.4697Z" fill="white"/>
<path d="M71.5537 22.4482C71.5538 22.4755 71.5538 22.5028 71.5539 22.531C71.5551 23.1791 71.5566 23.8273 71.5586 24.4755C71.5588 24.5552 71.5591 24.635 71.5593 24.7148C71.5594 24.7307 71.5594 24.7466 71.5595 24.7629C71.5602 25.0201 71.5607 25.2772 71.5612 25.5344C71.5616 25.7983 71.5623 26.0622 71.5633 26.326C71.5638 26.4889 71.5642 26.6517 71.5644 26.8145C71.5645 26.9394 71.5649 27.0642 71.5655 27.1891C71.5657 27.2403 71.5658 27.2915 71.5658 27.3427C71.5657 27.4126 71.5661 27.4825 71.5665 27.5524C71.5664 27.5727 71.5663 27.593 71.5662 27.6139C71.5675 27.7325 71.5817 27.8168 71.6389 27.9215C71.754 28.0135 71.9107 27.9991 72.0515 28.0054C73.3058 28.0772 74.4293 28.5726 75.3592 29.411C75.3705 29.4211 75.3818 29.4311 75.3934 29.4415C75.4206 29.4664 75.4466 29.4925 75.4723 29.5188C75.4723 29.5329 75.4723 29.5469 75.4723 29.5614C75.366 29.5301 75.26 29.4981 75.1548 29.4632C73.8629 29.035 72.4421 28.9473 71.1222 29.3123C71.0639 29.3271 71.0639 29.3271 71 29.3271C71 27.1133 71 24.8995 71 22.6186C71.5111 22.4482 71.5111 22.4482 71.5537 22.4482Z" fill="white"/>
<path d="M3.30098 44.5263V50.1043H8.96445V51.3438H3.30098V57.0073H9.6056V58.2468H1.80497V43.2867H9.6056V44.5263H3.30098ZM11.8695 52.391C11.8695 51.1942 12.1117 50.147 12.5961 49.2494C13.0805 48.3375 13.7431 47.6394 14.5837 47.155C15.4385 46.6563 16.4003 46.407 17.4688 46.407C18.4947 46.407 19.4208 46.6563 20.2471 47.155C21.0735 47.6536 21.679 48.3019 22.0637 49.0998V42.4319H23.5597V58.2468H22.0637V55.6395C21.7075 56.4516 21.1234 57.1213 20.3113 57.6484C19.4991 58.1613 18.5445 58.4178 17.4475 58.4178C16.3789 58.4178 15.4172 58.1685 14.5623 57.6698C13.7217 57.1711 13.0592 56.4659 12.5747 55.554C12.1046 54.6422 11.8695 53.5878 11.8695 52.391ZM22.0637 52.4124C22.0637 51.472 21.8714 50.6457 21.4867 49.9333C21.102 49.2209 20.5748 48.6724 19.9052 48.2877C19.2498 47.903 18.5232 47.7106 17.7253 47.7106C16.8989 47.7106 16.158 47.8959 15.5026 48.2663C14.8473 48.6367 14.3272 49.1782 13.9425 49.8905C13.5721 50.5887 13.3869 51.4222 13.3869 52.391C13.3869 53.3456 13.5721 54.1862 13.9425 54.9129C14.3272 55.6252 14.8473 56.1738 15.5026 56.5585C16.158 56.9289 16.8989 57.1141 17.7253 57.1141C18.5232 57.1141 19.2498 56.9218 19.9052 56.5371C20.5748 56.1524 21.102 55.6039 21.4867 54.8915C21.8714 54.1791 22.0637 53.3527 22.0637 52.4124ZM37.0838 46.5779V58.2468H35.5878V56.1952C35.2458 56.9218 34.7186 57.4774 34.0063 57.8621C33.2939 58.2468 32.496 58.4392 31.6126 58.4392C30.2164 58.4392 29.0766 58.0117 28.1932 57.1569C27.3098 56.2878 26.8682 55.034 26.8682 53.3955V46.5779H28.3428V53.2245C28.3428 54.4926 28.6562 55.4614 29.2831 56.131C29.9243 56.8007 30.7934 57.1355 31.8905 57.1355C33.016 57.1355 33.9137 56.7793 34.5833 56.0669C35.2529 55.3545 35.5878 54.3073 35.5878 52.9253V46.5779H37.0838ZM41.9952 42.4319V58.2468H40.4992V42.4319H41.9952ZM59.2745 46.3642C60.6423 46.3642 61.7536 46.7988 62.6084 47.6679C63.4776 48.5228 63.9121 49.7694 63.9121 51.4079V58.2468H62.4375V51.5789C62.4375 50.3108 62.1311 49.342 61.5185 48.6724C60.9058 48.0027 60.0723 47.6679 59.018 47.6679C57.9209 47.6679 57.0447 48.0312 56.3893 48.7578C55.7339 49.4845 55.4062 50.5388 55.4062 51.9208V58.2468H53.9316V51.5789C53.9316 50.3108 53.6253 49.342 53.0126 48.6724C52.4 48.0027 51.5593 47.6679 50.4908 47.6679C49.3937 47.6679 48.5174 48.0312 47.8621 48.7578C47.2067 49.4845 46.879 50.5388 46.879 51.9208V58.2468H45.383V46.5779H46.879V48.5869C47.2494 47.8602 47.7766 47.3117 48.4605 46.9413C49.1443 46.5566 49.9066 46.3642 50.7472 46.3642C51.7588 46.3642 52.6422 46.6064 53.3973 47.0909C54.1667 47.5753 54.7223 48.2877 55.0643 49.228C55.3777 48.3019 55.912 47.5967 56.6671 47.1122C57.4365 46.6136 58.3056 46.3642 59.2745 46.3642ZM83.2632 43.3295V58.2468H80.2712V48.5441L76.2747 58.2468H74.0093L69.9915 48.5441V58.2468H66.9995V43.3295H70.3975L75.142 54.4213L79.8865 43.3295H83.2632ZM97.2277 52.0704C97.2277 52.4979 97.1992 52.8826 97.1422 53.2245H88.4868C88.558 54.0794 88.8572 54.749 89.3844 55.2334C89.9115 55.7179 90.5598 55.9601 91.3292 55.9601C92.4405 55.9601 93.2312 55.4828 93.7014 54.5282H96.9285C96.5866 55.668 95.9312 56.6083 94.9623 57.3492C93.9935 58.0759 92.8038 58.4392 91.3933 58.4392C90.2535 58.4392 89.2276 58.1898 88.3158 57.6912C87.4182 57.1782 86.7129 56.4587 86.2 55.5326C85.7013 54.6065 85.452 53.538 85.452 52.3269C85.452 51.1016 85.7013 50.0259 86.2 49.0998C86.6987 48.1737 87.3968 47.4613 88.2944 46.9626C89.192 46.464 90.225 46.2146 91.3933 46.2146C92.5189 46.2146 93.5233 46.4568 94.4067 46.9413C95.3043 47.4257 95.9953 48.1167 96.4797 49.0143C96.9784 49.8977 97.2277 50.9164 97.2277 52.0704ZM94.1288 51.2156C94.1146 50.4462 93.8368 49.8335 93.2954 49.3776C92.7539 48.9074 92.0914 48.6724 91.3078 48.6724C90.5669 48.6724 89.94 48.9003 89.4271 49.3563C88.9284 49.7979 88.6221 50.4177 88.5081 51.2156H94.1288ZM102.404 48.2449C102.788 47.618 103.287 47.1265 103.9 46.7703C104.527 46.4141 105.239 46.236 106.037 46.236V49.3776H105.246C104.306 49.3776 103.593 49.5985 103.109 50.0401C102.639 50.4818 102.404 51.2512 102.404 52.3483V58.2468H99.4116V46.407H102.404V48.2449ZM112.583 58.4392C111.614 58.4392 110.745 58.2682 109.976 57.9263C109.206 57.5701 108.594 57.0928 108.138 56.4944C107.696 55.896 107.454 55.2334 107.411 54.5068H110.424C110.481 54.9627 110.702 55.3403 111.087 55.6395C111.486 55.9387 111.977 56.0883 112.561 56.0883C113.131 56.0883 113.573 55.9743 113.887 55.7464C114.214 55.5184 114.378 55.2263 114.378 54.8701C114.378 54.4854 114.179 54.2005 113.78 54.0153C113.395 53.8158 112.775 53.6021 111.92 53.3741C111.037 53.1604 110.31 52.9396 109.74 52.7116C109.185 52.4836 108.7 52.1346 108.287 51.6644C107.888 51.1942 107.689 50.5602 107.689 49.7623C107.689 49.1069 107.874 48.5085 108.244 47.9671C108.629 47.4257 109.171 46.9983 109.869 46.6848C110.581 46.3714 111.415 46.2146 112.369 46.2146C113.78 46.2146 114.905 46.5708 115.746 47.2832C116.586 47.9813 117.05 48.9288 117.135 50.1256H114.271C114.228 49.6555 114.029 49.285 113.673 49.0143C113.331 48.7294 112.868 48.5869 112.284 48.5869C111.742 48.5869 111.322 48.6866 111.023 48.8861C110.738 49.0855 110.595 49.3634 110.595 49.7196C110.595 50.1185 110.795 50.4248 111.194 50.6385C111.593 50.838 112.212 51.0446 113.053 51.2583C113.908 51.472 114.613 51.6929 115.169 51.9208C115.724 52.1488 116.202 52.505 116.601 52.9894C117.014 53.4596 117.228 54.0865 117.242 54.8701C117.242 55.554 117.05 56.1667 116.665 56.7081C116.294 57.2495 115.753 57.6769 115.041 57.9904C114.342 58.2896 113.523 58.4392 112.583 58.4392ZM121.215 44.9964C120.688 44.9964 120.246 44.8326 119.89 44.5049C119.548 44.163 119.377 43.7426 119.377 43.244C119.377 42.7453 119.548 42.3321 119.89 42.0044C120.246 41.6625 120.688 41.4915 121.215 41.4915C121.742 41.4915 122.177 41.6625 122.519 42.0044C122.875 42.3321 123.053 42.7453 123.053 43.244C123.053 43.7426 122.875 44.163 122.519 44.5049C122.177 44.8326 121.742 44.9964 121.215 44.9964ZM122.69 46.407V58.2468H119.698V46.407H122.69ZM130.903 58.4392C129.764 58.4392 128.738 58.1898 127.826 57.6912C126.914 57.1782 126.195 56.4587 125.667 55.5326C125.155 54.6065 124.898 53.538 124.898 52.3269C124.898 51.1158 125.162 50.0473 125.689 49.1212C126.23 48.1951 126.964 47.4827 127.89 46.984C128.816 46.4711 129.849 46.2146 130.989 46.2146C132.129 46.2146 133.162 46.4711 134.088 46.984C135.014 47.4827 135.741 48.1951 136.268 49.1212C136.809 50.0473 137.08 51.1158 137.08 52.3269C137.08 53.538 136.802 54.6065 136.246 55.5326C135.705 56.4587 134.964 57.1782 134.024 57.6912C133.098 58.1898 132.058 58.4392 130.903 58.4392ZM130.903 55.8318C131.445 55.8318 131.951 55.7036 132.421 55.4471C132.905 55.1764 133.29 54.7775 133.575 54.2503C133.86 53.7232 134.002 53.082 134.002 52.3269C134.002 51.2013 133.703 50.3393 133.105 49.7409C132.521 49.1283 131.801 48.822 130.946 48.822C130.091 48.822 129.372 49.1283 128.788 49.7409C128.218 50.3393 127.933 51.2013 127.933 52.3269C127.933 53.4525 128.211 54.3216 128.766 54.9342C129.336 55.5326 130.049 55.8318 130.903 55.8318ZM145.836 46.236C147.246 46.236 148.386 46.6848 149.255 47.5824C150.124 48.4658 150.559 49.7053 150.559 51.3011V58.2468H147.567V51.7071C147.567 50.7668 147.332 50.0473 146.862 49.5486C146.391 49.0357 145.75 48.7792 144.938 48.7792C144.112 48.7792 143.456 49.0357 142.972 49.5486C142.502 50.0473 142.267 50.7668 142.267 51.7071V58.2468H139.275V46.407H142.267V47.8816C142.666 47.3687 143.171 46.9698 143.784 46.6848C144.411 46.3856 145.095 46.236 145.836 46.236Z" fill="url(#paint3_linear_178_8968)"/>
<defs>
<linearGradient id="paint0_linear_178_8968" x1="55.8638" y1="29.9569" x2="99.4799" y2="-4.64568" gradientUnits="userSpaceOnUse">
<stop stop-color="#0463EF"/>
<stop offset="1" stop-color="#16EA9E"/>
</linearGradient>
<linearGradient id="paint1_linear_178_8968" x1="74.5723" y1="15.0046" x2="79.4672" y2="12.5513" gradientUnits="userSpaceOnUse">
<stop stop-color="#0463EF"/>
<stop offset="1" stop-color="#16EA9E"/>
</linearGradient>
<linearGradient id="paint2_linear_178_8968" x1="68.6706" y1="33.1702" x2="89.8814" y2="22.5391" gradientUnits="userSpaceOnUse">
<stop stop-color="#0463EF"/>
<stop offset="1" stop-color="#16EA9E"/>
</linearGradient>
<linearGradient id="paint3_linear_178_8968" x1="12.4826" y1="57.5134" x2="20.8218" y2="15.1594" gradientUnits="userSpaceOnUse">
<stop stop-color="#0463EF"/>
<stop offset="1" stop-color="#16EA9E"/>
</linearGradient>
</defs>
</svg>
