<svg width="68" height="68" viewBox="0 0 68 68" fill="none" xmlns="http://www.w3.org/2000/svg">
<rect x="-0.00500488" width="68.01" height="68.01" rx="34.005" fill="url(#paint0_linear_830_1624)"/>
<path fill-rule="evenodd" clip-rule="evenodd" d="M44.6943 34.3588C42.0907 35.4129 39.2803 36.0631 36.3409 36.2316C35.8339 36.2606 35.3232 36.2754 34.8089 36.2754C34.2947 36.2754 33.784 36.2606 33.277 36.2316C30.3369 36.0631 27.5259 35.4126 24.9217 34.358C19.4568 32.1448 14.903 28.1517 11.9794 23.0976C16.5364 15.22 25.0537 9.91992 34.8089 9.91992C44.5642 9.91992 53.0815 15.22 57.6385 23.0976C54.7146 28.1523 50.1601 32.1457 44.6943 34.3588Z" fill="white"/>
<path d="M24.9213 36.4108C24.2917 36.1559 23.6742 35.8773 23.0699 35.5762C21.106 36.9596 19.4458 38.6827 18.1957 40.6485C20.3206 43.9899 23.6303 46.6299 27.6022 48.0931C29.4949 48.7903 31.5379 49.2204 33.6748 49.3318H35.9016C38.038 49.2204 41.793 51.3369 36.3404 56.678C40.313 55.2149 49.2557 43.9903 51.3808 40.6485C50.1342 38.6883 48.4799 36.9695 46.5233 35.588C45.926 35.8849 45.3159 36.1598 44.6939 36.4116C42.0903 37.4658 39.2799 38.1159 36.3404 38.2844C35.8335 38.3135 35.3227 38.3282 34.8085 38.3282C34.2943 38.3282 33.7835 38.3135 33.2766 38.2844C30.3365 38.1159 27.5254 37.4655 24.9213 36.4108Z" fill="white"/>
<rect x="23.8004" y="19.7266" width="22.065" height="7.88037" rx="3.94018" fill="#162550"/>
<ellipse cx="40.9178" cy="23.6244" rx="1.44474" ry="1.44473" fill="#04FED1"/>
<ellipse cx="34.7884" cy="43.0619" rx="1.44474" ry="1.44473" fill="#162550"/>
<ellipse cx="29.0103" cy="23.6244" rx="1.44474" ry="1.44473" fill="#04FED1"/>
<ellipse cx="29.0103" cy="43.0619" rx="1.44474" ry="1.44473" fill="#162550"/>
<ellipse cx="40.568" cy="43.0619" rx="1.44474" ry="1.44473" fill="#162550"/>
<defs>
<linearGradient id="paint0_linear_830_1624" x1="5.53754" y1="64.6849" x2="85.4444" y2="24.6346" gradientUnits="userSpaceOnUse">
<stop stop-color="#0463EF"/>
<stop offset="1" stop-color="#16EA9E"/>
</linearGradient>
</defs>
</svg>
