<svg width="13" height="8" viewBox="0 0 13 8" fill="none" xmlns="http://www.w3.org/2000/svg">
<g opacity="0.72">
<path d="M11.1611 1.09859C11.3839 0.8466 11.7693 0.82232 12.0215 1.04488C12.2736 1.26775 12.297 1.65307 12.0742 1.90523L7.19141 7.43062C7.07574 7.56148 6.90903 7.63667 6.73438 7.63667C6.55963 7.6366 6.39296 7.56067 6.27735 7.42964L5.11035 6.10738L3.94141 7.43062C3.82574 7.56148 3.65903 7.63667 3.48438 7.63667C3.30963 7.6366 3.14296 7.56067 3.02735 7.42964L0.589847 4.66792L0.517581 4.56734C0.376661 4.32161 0.422928 4.00235 0.643558 3.80757C0.864305 3.61285 1.18679 3.60684 1.41309 3.7773L1.50391 3.86128L3.48438 6.10542L7.91114 1.09859C8.13394 0.8466 8.51934 0.822321 8.77149 1.04488C9.02363 1.26775 9.04705 1.65307 8.82422 1.90523L5.92383 5.18648L6.73438 6.10542L11.1611 1.09859Z" fill="url(#paint0_linear_879_712)"/>
</g>
<defs>
<linearGradient id="paint0_linear_879_712" x1="1.39814" y1="7.30694" x2="11.2028" y2="-1.28393" gradientUnits="userSpaceOnUse">
<stop stop-color="#0463EF"/>
<stop offset="1" stop-color="#16EA9E"/>
</linearGradient>
</defs>
</svg>
