<svg width="44" height="45" viewBox="0 0 44 45" fill="none" xmlns="http://www.w3.org/2000/svg">
<g clip-path="url(#clip0_45_13409)">
<mask id="mask0_45_13409" style="mask-type:luminance" maskUnits="userSpaceOnUse" x="0" y="0" width="45" height="45">
<rect x="0.125244" y="0.63623" width="43.875" height="43.875" fill="white"/>
</mask>
<g mask="url(#mask0_45_13409)">
<path fill-rule="evenodd" clip-rule="evenodd" d="M35.0883 8.86183H21.7296C21.5267 8.86248 21.3281 8.83361 21.1338 8.77521C20.9395 8.71682 20.7579 8.63144 20.589 8.51905L18.2067 6.92601C17.8123 6.66225 17.388 6.46169 16.9338 6.32431C16.4797 6.18693 16.0153 6.11871 15.5408 6.11964H9.03755C7.71298 6.12106 6.58239 6.59007 5.64577 7.52669C4.70916 8.4633 4.24014 9.59389 4.23872 10.9185V12.9751H39.8872C39.8872 10.3289 37.7345 8.86183 35.0883 8.86183ZM36.4382 39.0259H7.68811C6.37822 39.0244 5.25691 38.5638 4.32419 37.6441C3.39147 36.7244 2.91517 35.6097 2.89528 34.2999L1.51219 20.1828V20.1588C1.41643 18.9625 1.77545 17.9234 2.58923 17.0413C3.40302 16.1593 4.40996 15.718 5.61005 15.7173H38.5249C39.7246 15.7185 40.7312 16.16 41.5446 17.042C42.3579 17.9239 42.7167 18.9629 42.621 20.1588V20.1828L41.2311 34.2999C41.2112 35.6097 40.7349 36.7244 39.8022 37.6441C38.8694 38.5638 37.7481 39.0244 36.4382 39.0259Z" fill="white"/>
</g>
</g>
<defs>
<clipPath id="clip0_45_13409">
<rect width="43.875" height="43.875" fill="white" transform="translate(0.125 0.63623)"/>
</clipPath>
</defs>
</svg>
