<svg width="24" height="24" viewBox="0 0 24 24" fill="none" xmlns="http://www.w3.org/2000/svg">
<path d="M21.9998 8.52V3.98C21.9998 2.57 21.3598 2 19.7698 2H15.7298C14.1398 2 13.4998 2.57 13.4998 3.98V8.51C13.4998 9.93 14.1398 10.49 15.7298 10.49H19.7698C21.3598 10.5 21.9998 9.93 21.9998 8.52Z" fill="#FAFAFA"/>
<path d="M21.9998 19.77V15.73C21.9998 14.14 21.3598 13.5 19.7698 13.5H15.7298C14.1398 13.5 13.4998 14.14 13.4998 15.73V19.77C13.4998 21.36 14.1398 22 15.7298 22H19.7698C21.3598 22 21.9998 21.36 21.9998 19.77Z" fill="#FAFAFA"/>
<path d="M10.5 8.52V3.98C10.5 2.57 9.86 2 8.27 2H4.23C2.64 2 2 2.57 2 3.98V8.51C2 9.93 2.64 10.49 4.23 10.49H8.27C9.86 10.5 10.5 9.93 10.5 8.52Z" fill="#FAFAFA"/>
<path d="M10.5 19.77V15.73C10.5 14.14 9.86 13.5 8.27 13.5H4.23C2.64 13.5 2 14.14 2 15.73V19.77C2 21.36 2.64 22 4.23 22H8.27C9.86 22 10.5 21.36 10.5 19.77Z" fill="#FAFAFA"/>
</svg>
