<svg width="251" height="187" viewBox="0 0 251 187" fill="none" xmlns="http://www.w3.org/2000/svg">
<path d="M250.5 163.699H0.5V163.824H250.5V163.699Z" fill="#EBEBEB"/>
<path d="M225.45 171.744H208.89V171.869H225.45V171.744Z" fill="#EBEBEB"/>
<path d="M166.11 173.105H161.765V173.23H166.11V173.105Z" fill="#EBEBEB"/>
<path d="M208.39 167.105H198.795V167.23H208.39V167.105Z" fill="#EBEBEB"/>
<path d="M48.325 167.945H26.73V168.07H48.325V167.945Z" fill="#EBEBEB"/>
<path d="M55.945 167.945H52.78V168.07H55.945V167.945Z" fill="#EBEBEB"/>
<path d="M113.075 170.055H66.2351V170.18H113.075V170.055Z" fill="#EBEBEB"/>
<path d="M119 141.4H22.455C21.6987 141.399 20.9738 141.097 20.4394 140.562C19.9051 140.027 19.605 139.301 19.605 138.545V2.83C19.6116 2.07801 19.9146 1.35899 20.4482 0.829109C20.9818 0.299229 21.703 0.00128819 22.455 0H119C119.757 0 120.483 0.300794 121.019 0.83621C121.554 1.37163 121.855 2.09781 121.855 2.855V138.545C121.855 139.302 121.554 140.028 121.019 140.564C120.483 141.099 119.757 141.4 119 141.4ZM22.455 0.1C21.7318 0.101325 21.0387 0.389533 20.5278 0.901363C20.0169 1.41319 19.73 2.10682 19.73 2.83V138.545C19.73 139.268 20.0169 139.962 20.5278 140.474C21.0387 140.985 21.7318 141.274 22.455 141.275H119C119.724 141.274 120.417 140.986 120.929 140.474C121.441 139.962 121.729 139.269 121.73 138.545V2.83C121.729 2.10636 121.441 1.41275 120.929 0.901058C120.417 0.38937 119.724 0.101322 119 0.1H22.455Z" fill="#EBEBEB"/>
<path d="M227.155 141.4H130.605C129.848 141.399 129.123 141.097 128.588 140.562C128.053 140.027 127.751 139.302 127.75 138.545V2.83C127.758 2.07756 128.062 1.35854 128.596 0.828796C129.131 0.299054 129.853 0.00127414 130.605 0H227.155C227.906 0.00260225 228.626 0.301125 229.159 0.830864C229.691 1.3606 229.993 2.07888 230 2.83V138.545C230 139.3 229.701 140.025 229.167 140.56C228.634 141.095 227.91 141.397 227.155 141.4ZM130.605 0.1C129.881 0.101322 129.188 0.38937 128.676 0.901058C128.164 1.41275 127.876 2.10636 127.875 2.83V138.545C127.876 139.269 128.164 139.962 128.676 140.474C129.188 140.986 129.881 141.274 130.605 141.275H227.155C227.879 141.274 228.572 140.986 229.084 140.474C229.596 139.962 229.884 139.269 229.885 138.545V2.83C229.884 2.10636 229.596 1.41275 229.084 0.901058C228.572 0.38937 227.879 0.101322 227.155 0.1H130.605Z" fill="#EBEBEB"/>
<path d="M197.04 10.5801H51.145V78.8401H197.04V10.5801Z" fill="#E6E6E6"/>
<path d="M199.235 10.5801H52.1699V78.8401H199.235V10.5801Z" fill="#F0F0F0"/>
<path d="M197.04 78.8398H51.145V82.3198H197.04V78.8398Z" fill="#E6E6E6"/>
<path d="M202.895 78.8398H55.8301V82.3198H202.895V78.8398Z" fill="#F0F0F0"/>
<path d="M196.16 75.7652V13.6602L55.2499 13.6602V75.7652H196.16Z" fill="#FAFAFA"/>
<path d="M70.365 75.7652L78.93 13.6602H92.295L83.73 75.7652H70.365Z" fill="white"/>
<path d="M56.6699 72.6995C56.6116 72.6995 56.5556 72.6763 56.5144 72.635C56.4731 72.5938 56.45 72.5378 56.45 72.4795V15.6595C56.45 15.6011 56.4731 15.5451 56.5144 15.5039C56.5556 15.4626 56.6116 15.4395 56.6699 15.4395C56.6988 15.4395 56.7274 15.4451 56.7541 15.4562C56.7808 15.4673 56.8051 15.4835 56.8255 15.5039C56.8459 15.5243 56.8621 15.5486 56.8732 15.5753C56.8843 15.602 56.8899 15.6306 56.8899 15.6595V72.4995C56.8861 72.5547 56.8611 72.6064 56.8201 72.6436C56.7791 72.6809 56.7253 72.7009 56.6699 72.6995Z" fill="#F0F0F0"/>
<path d="M86.6001 75.7652L95.1651 13.6602H100.375L91.8101 75.7652H86.6001Z" fill="white"/>
<path d="M196.16 75.7652V13.6602H195.77V75.7652H196.16Z" fill="#E6E6E6"/>
<path opacity="0.6" d="M199.96 18.3005H54.0699L53.7849 14.8555H199.68L199.96 18.3005Z" fill="#EBEBEB"/>
<path opacity="0.6" d="M199.96 23.945H54.0699L53.7849 20.5H199.68L199.96 23.945Z" fill="#EBEBEB"/>
<path opacity="0.6" d="M199.96 29.5954H54.0699L53.7849 26.1504H199.68L199.96 29.5954Z" fill="#EBEBEB"/>
<path opacity="0.6" d="M199.96 35.2399H54.0699L53.7849 31.7949H199.68L199.96 35.2399Z" fill="#EBEBEB"/>
<path opacity="0.6" d="M199.96 40.8903H54.0699L53.7849 37.4453H199.68L199.96 40.8903Z" fill="#EBEBEB"/>
<path opacity="0.6" d="M199.96 46.5349H54.0699L53.7849 43.0898H199.68L199.96 46.5349Z" fill="#EBEBEB"/>
<path d="M220 96H197.735V163.7H220V96Z" fill="#E6E6E6"/>
<path d="M214.055 163.7H220V154.355H207.82L214.055 163.7Z" fill="#FAFAFA"/>
<path d="M159.295 96H137.03V163.7H159.295V96Z" fill="#E6E6E6"/>
<path d="M220 96H154.105V160.485H220V96Z" fill="#FAFAFA"/>
<path d="M160.05 163.7H154.105V154.355H166.285L160.05 163.7Z" fill="#FAFAFA"/>
<path d="M215.385 120.029H158.715V136.164H215.385V120.029Z" fill="#F0F0F0"/>
<path d="M215.385 139.615H158.715V155.75H215.385V139.615Z" fill="#F0F0F0"/>
<path d="M167.62 118.631H206.5V119.416C206.5 120.035 206.254 120.629 205.816 121.067C205.378 121.505 204.784 121.751 204.165 121.751H169.96C169.341 121.751 168.747 121.505 168.309 121.067C167.871 120.629 167.625 120.035 167.625 119.416V118.631H167.62Z" fill="#FAFAFA"/>
<path d="M215.385 100.439H158.715V116.574H215.385V100.439Z" fill="#F0F0F0"/>
<path d="M167.62 99.0449H206.5V99.8299C206.5 100.449 206.254 101.043 205.816 101.481C205.378 101.919 204.784 102.165 204.165 102.165H169.96C169.341 102.165 168.747 101.919 168.309 101.481C167.871 101.043 167.625 100.449 167.625 99.8299V99.0449H167.62Z" fill="#FAFAFA"/>
<path d="M167.62 138.215H206.5V139C206.5 139.619 206.254 140.213 205.816 140.651C205.378 141.089 204.784 141.335 204.165 141.335H169.96C169.341 141.335 168.747 141.089 168.309 140.651C167.871 140.213 167.625 139.619 167.625 139V138.215H167.62Z" fill="#FAFAFA"/>
<path d="M27.21 110.434C28.45 106.869 38.21 111.714 42.21 117.614C44.855 121.544 46.47 125.739 47.21 131.374C47.12 124.944 47.02 118.039 46.92 111.519C46.115 109.894 44.28 106.144 42.965 103.174C38.565 93.2643 28.105 89.5743 24.465 83.3193C19.73 75.1193 19.76 62.8193 23.79 58.3893C27.29 54.5293 38.89 80.6043 40.2 83.5193C44.7 93.5193 46 100.974 46.84 108.179C46.745 102.054 46.655 96.4343 46.58 92.0943C46.335 77.9443 46.025 73.3943 45.885 71.9943C45.385 71.3093 44.83 70.4943 44.495 70.0843C41.69 66.4693 35.46 62.1693 32.35 56.9143C27.805 49.2443 28.54 40.0643 31.725 36.6443C35.085 33.0693 41 41.4993 44.105 49.8893C47.21 58.2793 45.895 66.2693 46.775 73.2243C46.96 74.5843 47.145 79.7643 47.325 86.9493C48.275 79.2193 50.165 74.0393 53.665 69.2143C57.975 63.2793 61.695 56.0543 65.245 56.9893C68.795 57.9243 66.885 67.4893 64.075 74.1993C61.575 80.1743 49.235 86.1393 47.415 90.9443C47.63 100.684 47.82 113.019 47.96 124.504C48.93 118.569 48.26 118.074 52.25 109.004C54.62 103.604 64.335 96.9493 65.495 100.659C66.655 104.369 64.89 111.379 61.225 116.289C58.265 120.254 51.725 120.249 50.18 122.704C49.825 123.279 48.68 125.479 47.985 126.739C48.14 140.764 48.215 153.139 48.135 157.359L47.495 157.404C47.53 156.314 47.45 149.179 47.325 139.739C45.73 134.739 35 131.789 31.685 126.564C28.215 121.084 25.72 114.704 27.21 110.434Z" fill="#E6E6E6"/>
<path d="M37.3 163.701H57.9C58.4458 163.7 58.9747 163.511 59.3974 163.166C59.82 162.821 60.1106 162.34 60.22 161.806L61.68 154.596H33.5L35 161.806C35.1087 162.337 35.3963 162.815 35.8149 163.16C36.2335 163.505 36.7577 163.696 37.3 163.701Z" fill="#F0F0F0"/>
<path d="M32.9299 157.39H62.2699C62.6102 157.39 62.9384 157.264 63.192 157.037C63.4456 156.81 63.6068 156.498 63.6449 156.16L64.2449 150.83C64.266 150.637 64.2461 150.441 64.1866 150.256C64.1272 150.071 64.0294 149.901 63.8997 149.756C63.77 149.611 63.6113 149.495 63.4339 149.416C63.2565 149.336 63.0643 149.295 62.8699 149.295H32.3299C32.1355 149.295 31.9434 149.336 31.766 149.416C31.5886 149.495 31.4298 149.611 31.3001 149.756C31.1705 149.901 31.0727 150.071 31.0132 150.256C30.9537 150.441 30.9339 150.637 30.9549 150.83L31.5549 156.16C31.593 156.498 31.7542 156.81 32.0078 157.037C32.2614 157.264 32.5897 157.39 32.9299 157.39Z" fill="#F0F0F0"/>
<path d="M89.4199 131.311H71.8149V163.701H89.4199V131.311Z" fill="#E0E0E0"/>
<path d="M134.29 163.7H75.3449L69.1499 119.75H128.095L134.29 163.7Z" fill="#E6E6E6"/>
<path d="M142.89 163.7H77.6851L71.4951 119.75H136.695L142.89 163.7Z" fill="#F0F0F0"/>
<path d="M84.0651 156.829L78.8501 126.619H130.315L135.53 156.829H84.0651Z" fill="white"/>
<path d="M106.18 156.829L88.6899 126.619H94.1749L111.67 156.829H106.18Z" fill="#FAFAFA"/>
<path d="M113.995 156.829L96.5 126.619H105.86L123.35 156.829H113.995Z" fill="#FAFAFA"/>
<path d="M125.5 186.281C179.041 186.281 222.445 183.747 222.445 180.621C222.445 177.495 179.041 174.961 125.5 174.961C71.9587 174.961 28.5549 177.495 28.5549 180.621C28.5549 183.747 71.9587 186.281 125.5 186.281Z" fill="#F5F5F5"/>
<path d="M39.1351 83.2656C39.0814 83.2658 39.0295 83.2459 38.9897 83.2098C38.9499 83.1738 38.9251 83.1241 38.9201 83.0706L37.8101 69.7206C37.8073 69.6665 37.8255 69.6134 37.8609 69.5724C37.8963 69.5314 37.9462 69.5057 38.0001 69.5006C38.0564 69.4964 38.112 69.5145 38.155 69.551C38.198 69.5875 38.225 69.6394 38.2301 69.6956L39.3401 83.0456C39.3443 83.1018 39.3262 83.1575 39.2897 83.2005C39.2532 83.2435 39.2013 83.2705 39.1451 83.2756L39.1351 83.2656Z" fill="#FE632F"/>
<path d="M39.7951 91.1945C39.7414 91.1947 39.6896 91.1749 39.6498 91.1388C39.61 91.1027 39.5851 91.053 39.5801 90.9995L39.2451 86.9595C39.2424 86.9315 39.2453 86.9033 39.2537 86.8764C39.2621 86.8496 39.2758 86.8247 39.294 86.8032C39.3121 86.7818 39.3345 86.7642 39.3596 86.7515C39.3847 86.7389 39.4121 86.7314 39.4401 86.7295C39.4681 86.7268 39.4964 86.7297 39.5232 86.7381C39.5501 86.7465 39.575 86.7601 39.5964 86.7783C39.6179 86.7965 39.6354 86.8188 39.6481 86.8439C39.6608 86.8691 39.6683 86.8965 39.6701 86.9245L40.0051 90.9645C40.0093 91.0208 39.9912 91.0764 39.9547 91.1194C39.9182 91.1625 39.8663 91.1894 39.8101 91.1945H39.7951Z" fill="#FE632F"/>
<path d="M152.28 129.184H49.0402C47.7395 129.159 46.4933 128.657 45.5377 127.774C44.5821 126.892 43.9834 125.689 43.8552 124.394L38.0402 54.4994C37.978 53.8889 38.0458 53.2722 38.2389 52.6897C38.4321 52.1073 38.7463 51.5723 39.1609 51.1199C39.5755 50.6675 40.0812 50.3079 40.6446 50.0648C41.2081 49.8218 41.8166 49.7006 42.4302 49.7094H145.665C146.966 49.7348 148.213 50.2363 149.17 51.119C150.126 52.0017 150.726 53.2044 150.855 54.4994L156.67 124.384C156.733 124.996 156.666 125.613 156.473 126.196C156.28 126.78 155.966 127.316 155.552 127.769C155.137 128.222 154.631 128.583 154.067 128.827C153.504 129.071 152.894 129.193 152.28 129.184Z" fill="white"/>
<path d="M152.28 129.385H49.0402C47.6887 129.363 46.3927 128.844 45.3994 127.928C44.4062 127.011 43.7853 125.76 43.6552 124.415L37.8402 54.5251C37.7815 53.8874 37.8565 53.2445 38.0606 52.6375C38.2646 52.0305 38.5932 51.4728 39.0252 51.0001C39.455 50.5243 39.9805 50.1446 40.5673 49.8861C41.1542 49.6276 41.789 49.4961 42.4302 49.5001H145.665C147.022 49.5216 148.323 50.0442 149.318 50.9672C150.313 51.8902 150.932 53.1485 151.055 54.5001L156.865 124.385C156.929 125.022 156.858 125.666 156.656 126.274C156.454 126.882 156.126 127.44 155.693 127.912C155.26 128.384 154.732 128.76 154.144 129.014C153.556 129.267 152.921 129.394 152.28 129.385ZM42.4302 49.9201C41.8433 49.9106 41.261 50.0256 40.7219 50.2577C40.1827 50.4898 39.699 50.8336 39.3025 51.2665C38.906 51.6993 38.6059 52.2114 38.4219 52.7688C38.2379 53.3262 38.1743 53.9163 38.2352 54.5001L44.0502 124.38C44.1739 125.627 44.7516 126.785 45.6734 127.635C46.5953 128.484 47.7971 128.964 49.0502 128.985H152.28C152.866 128.994 153.446 128.878 153.984 128.647C154.522 128.415 155.005 128.072 155.4 127.64C155.796 127.208 156.096 126.698 156.281 126.142C156.465 125.586 156.53 124.998 156.47 124.415L150.655 54.5251C150.533 53.2775 149.955 52.1187 149.033 51.2694C148.111 50.4201 146.909 49.9399 145.655 49.9201H42.4302Z" fill="#FE632F"/>
<path d="M145.665 49.7192H42.4301C41.8175 49.7105 41.2099 49.8314 40.6472 50.0739C40.0845 50.3164 39.5794 50.675 39.165 51.1263C38.7505 51.5776 38.4361 52.1113 38.2422 52.6926C38.0484 53.2738 37.9795 53.8895 38.0401 54.4992H150.855C150.723 53.2059 150.123 52.0056 149.167 51.125C148.21 50.2443 146.965 49.7443 145.665 49.7192Z" fill="#FE632F"/>
<path d="M44.8452 52.1151C44.8594 52.2469 44.8454 52.3802 44.8042 52.5061C44.763 52.6321 44.6954 52.7478 44.6061 52.8457C44.5167 52.9436 44.4076 53.0213 44.2859 53.0738C44.1642 53.1263 44.0327 53.1523 43.9002 53.1501C43.6193 53.1442 43.3503 53.0357 43.144 52.845C42.9376 52.6543 42.8082 52.3947 42.7802 52.1151C42.7668 51.9835 42.7814 51.8506 42.8229 51.725C42.8644 51.5994 42.932 51.484 43.0212 51.3863C43.1104 51.2886 43.2192 51.2108 43.3405 51.1581C43.4619 51.1053 43.5929 51.0787 43.7252 51.0801C44.0068 51.0839 44.277 51.1917 44.4837 51.3828C44.6905 51.5739 44.8193 51.8347 44.8452 52.1151Z" fill="white"/>
<path d="M49.0452 52.1151C49.0594 52.2469 49.0454 52.3802 49.0042 52.5061C48.9629 52.6321 48.8954 52.7478 48.806 52.8457C48.7167 52.9436 48.6075 53.0213 48.4858 53.0738C48.3642 53.1263 48.2327 53.1523 48.1002 53.1501C47.8228 53.1394 47.5586 53.0288 47.3564 52.8385C47.1543 52.6483 47.0277 52.3914 47.0002 52.1151C46.9868 51.9835 47.0014 51.8506 47.0429 51.725C47.0844 51.5994 47.152 51.484 47.2412 51.3863C47.3304 51.2886 47.4392 51.2108 47.5605 51.1581C47.6818 51.1053 47.8129 51.0787 47.9452 51.0801C48.2232 51.0887 48.4886 51.1987 48.6912 51.3893C48.8938 51.58 49.0197 51.8381 49.0452 52.1151Z" fill="white"/>
<path d="M53.2451 52.1151C53.2593 52.2469 53.2453 52.3802 53.2041 52.5061C53.1629 52.6321 53.0953 52.7478 53.006 52.8457C52.9166 52.9436 52.8075 53.0213 52.6858 53.0738C52.5641 53.1263 52.4326 53.1523 52.3001 53.1501C52.0192 53.1442 51.7502 53.0357 51.5439 52.845C51.3375 52.6543 51.2081 52.3947 51.1801 52.1151C51.1667 51.9835 51.1813 51.8506 51.2228 51.725C51.2643 51.5994 51.3319 51.484 51.4211 51.3863C51.5103 51.2886 51.6191 51.2108 51.7404 51.1581C51.8617 51.1053 51.9928 51.0787 52.1251 51.0801C52.4067 51.0839 52.6769 51.1917 52.8837 51.3828C53.0904 51.5739 53.2192 51.8347 53.2451 52.1151Z" fill="white"/>
<path d="M143.32 120.026H56.5001C55.466 120.006 54.4749 119.608 53.7146 118.907C52.9544 118.206 52.4778 117.25 52.3751 116.221L48.2951 67.5008C48.2464 67.0149 48.301 66.5242 48.4555 66.0609C48.6099 65.5976 48.8607 65.1723 49.1913 64.8129C49.5219 64.4535 49.9248 64.1681 50.3736 63.9756C50.8224 63.7831 51.3069 63.6877 51.7951 63.6958H138.63C139.664 63.7152 140.655 64.1132 141.416 64.8145C142.176 65.5158 142.652 66.4716 142.755 67.5008L146.81 116.246C146.855 116.729 146.798 117.216 146.642 117.676C146.487 118.135 146.236 118.557 145.907 118.913C145.578 119.27 145.178 119.553 144.732 119.745C144.286 119.936 143.805 120.032 143.32 120.026Z" fill="#F0F0F0"/>
<path opacity="0.1" d="M116.46 72.2047L89.5601 104.595C88.7146 105.612 88.1455 106.83 87.9078 108.131C87.6701 109.432 87.7717 110.772 88.2029 112.022C88.6341 113.273 89.3803 114.391 90.3694 115.269C91.3586 116.147 92.5574 116.755 93.8501 117.035L137.5 126.47C138.865 126.766 140.285 126.685 141.608 126.235C142.931 125.785 144.106 124.984 145.008 123.917C145.91 122.851 146.504 121.558 146.727 120.179C146.951 118.8 146.794 117.387 146.275 116.09L129.54 74.2597C129.046 73.0185 128.237 71.9274 127.193 71.0938C126.149 70.2602 124.905 69.7127 123.586 69.5054C122.266 69.298 120.915 69.4379 119.665 69.9112C118.416 70.3845 117.311 71.1749 116.46 72.2047Z" fill="#263238"/>
<path opacity="0.1" d="M56.58 76.7455L47.21 102C46.9294 102.772 46.8486 103.601 46.9751 104.412C47.1016 105.223 47.4313 105.988 47.9334 106.637C48.4356 107.286 49.0939 107.797 49.8469 108.123C50.6 108.449 51.4233 108.579 52.24 108.5L79.605 105.815C80.4759 105.73 81.3075 105.412 82.0124 104.893C82.7172 104.375 83.269 103.676 83.6095 102.87C83.95 102.064 84.0666 101.181 83.947 100.314C83.8274 99.4475 83.4761 98.6291 82.93 97.9455L64.93 75.3955C64.3923 74.7243 63.6861 74.2078 62.8834 73.8988C62.0808 73.5898 61.2106 73.4993 60.3615 73.6365C59.5125 73.7738 58.7151 74.1339 58.0508 74.6801C57.3864 75.2263 56.8789 75.939 56.58 76.7455Z" fill="#263238"/>
<path d="M125.74 64.0503L100.59 100.55C99.8045 101.69 99.3247 103.013 99.1966 104.392C99.0685 105.77 99.2962 107.158 99.8582 108.424C100.42 109.689 101.297 110.789 102.406 111.618C103.515 112.448 104.818 112.979 106.19 113.16L152.42 119.315C153.874 119.509 155.353 119.304 156.699 118.721C158.046 118.139 159.208 117.202 160.063 116.01C160.918 114.818 161.432 113.416 161.551 111.954C161.671 110.492 161.39 109.025 160.74 107.71L139.66 65.0403C139.034 63.7762 138.089 62.6977 136.918 61.9117C135.747 61.1257 134.39 60.6595 132.984 60.5594C131.577 60.4594 130.168 60.7289 128.897 61.3412C127.627 61.9536 126.538 62.8875 125.74 64.0503Z" fill="#FE632F"/>
<path d="M107.285 109.901C106.45 109.787 105.656 109.469 104.974 108.975C104.292 108.48 103.742 107.824 103.375 107.066C102.996 106.349 102.818 105.543 102.859 104.734C102.901 103.924 103.16 103.14 103.61 102.466L128.825 65.856C129.281 65.2029 129.911 64.6915 130.645 64.3802C131.378 64.0689 132.184 63.9704 132.97 64.096C133.805 64.2087 134.6 64.5266 135.282 65.0213C135.964 65.516 136.513 66.1721 136.88 66.931L158 109.706C158.379 110.423 158.557 111.229 158.516 112.038C158.474 112.848 158.215 113.632 157.765 114.306C157.31 114.96 156.68 115.473 155.947 115.785C155.213 116.098 154.407 116.197 153.62 116.071L107.285 109.901Z" fill="white"/>
<path d="M130.825 77.0344L133.77 77.4244C134.691 77.5543 135.532 78.0185 136.132 78.7286C136.732 79.4387 137.05 80.3449 137.025 81.2744L136.825 85.1144C136.82 85.2537 136.805 85.3924 136.78 85.5294L134.685 97.1044C134.535 97.9022 134.08 98.6099 133.416 99.0768C132.752 99.5438 131.932 99.7331 131.13 99.6044C130.279 99.4835 129.495 99.0782 128.904 98.4545C128.313 97.8308 127.95 97.0254 127.875 96.1694L127.03 84.2094C127.02 84.0713 127.02 83.9326 127.03 83.7944L127.225 79.9494C127.246 79.5126 127.359 79.0852 127.557 78.6952C127.755 78.3051 128.033 77.9612 128.373 77.686C128.712 77.4108 129.107 77.2105 129.529 77.0982C129.952 76.986 130.394 76.9642 130.825 77.0344ZM130.59 102.814L131.39 102.919C132.214 103.036 132.967 103.451 133.504 104.086C134.042 104.722 134.327 105.533 134.305 106.364C134.288 106.757 134.187 107.141 134.011 107.492C133.834 107.842 133.586 108.152 133.281 108.4C132.977 108.648 132.623 108.828 132.244 108.93C131.864 109.032 131.468 109.052 131.08 108.989L130.28 108.879C129.457 108.764 128.704 108.35 128.167 107.715C127.629 107.081 127.344 106.271 127.365 105.439C127.382 105.047 127.482 104.662 127.658 104.311C127.834 103.96 128.083 103.65 128.388 103.402C128.692 103.154 129.046 102.973 129.426 102.872C129.806 102.771 130.202 102.751 130.59 102.814Z" fill="#FE632F"/>
<path d="M66.2501 69.63L59.3451 95.815C59.1369 96.6107 59.134 97.4462 59.3367 98.2433C59.5394 99.0404 59.9411 99.773 60.5042 100.373C61.0672 100.972 61.7732 101.419 62.5561 101.671C63.3389 101.923 64.1729 101.973 64.9801 101.815L91.7651 96.59C92.6149 96.4205 93.404 96.0269 94.0505 95.4498C94.6971 94.8728 95.1776 94.1335 95.4422 93.3083C95.7069 92.4831 95.7462 91.6022 95.5559 90.7568C95.3656 89.9114 94.9528 89.1322 94.3601 88.5L74.5001 67.525C73.9045 66.8921 73.1501 66.4303 72.3156 66.1876C71.481 65.9449 70.5967 65.9303 69.7545 66.1452C68.9123 66.36 68.1431 66.7966 67.5268 67.4095C66.9106 68.0223 66.4697 68.7891 66.2501 69.63Z" fill="#FE632F"/>
<path d="M64.9252 99.706C64.4334 99.795 63.9271 99.7582 63.4533 99.5991C62.9795 99.4401 62.5536 99.1638 62.2152 98.796C61.8661 98.4417 61.6138 98.0037 61.4825 97.5239C61.3511 97.0441 61.3452 96.5387 61.4652 96.056L68.3852 69.801C68.5052 69.3422 68.7532 68.927 69.1003 68.6039C69.4473 68.2807 69.8791 68.063 70.3452 67.976C70.8375 67.888 71.3439 67.9258 71.8176 68.0858C72.2914 68.2457 72.7171 68.5227 73.0552 68.891L92.9852 89.891C93.3348 90.245 93.5878 90.6828 93.72 91.1625C93.8522 91.6422 93.8591 92.1478 93.7402 92.631C93.6194 93.0888 93.3711 93.5029 93.0241 93.8251C92.6771 94.1473 92.2458 94.3644 91.7802 94.451L64.9252 99.706Z" fill="white"/>
<path d="M71.6451 75.9654L73.3501 75.6304C73.9006 75.5416 74.4645 75.6594 74.9334 75.9612C75.4023 76.2631 75.743 76.7276 75.8901 77.2654L76.5001 79.5504C76.5232 79.6343 76.5416 79.7195 76.5551 79.8054L77.6401 87.0004C77.7247 87.4848 77.6145 87.983 77.3336 88.3866C77.0527 88.7902 76.6237 89.0665 76.1401 89.1554C75.633 89.2396 75.1123 89.1476 74.6647 88.8947C74.2172 88.6418 73.8697 88.2433 73.6801 87.7654L70.9101 80.9254C70.8765 80.8457 70.8481 80.7639 70.8251 80.6804L70.1951 78.3904C70.1132 78.1359 70.0865 77.8668 70.1169 77.6011C70.1473 77.3354 70.2339 77.0792 70.3712 76.8497C70.5084 76.6202 70.693 76.4226 70.9127 76.2701C71.1324 76.1176 71.3821 76.0137 71.6451 75.9654ZM76.4701 91.1054L76.9351 91.0154C77.4282 90.93 77.9354 91.0326 78.3566 91.3029C78.7778 91.5732 79.0823 91.9916 79.2101 92.4754C79.2806 92.7008 79.3028 92.9384 79.2752 93.1729C79.2477 93.4074 79.171 93.6334 79.0502 93.8363C78.9295 94.0391 78.7673 94.2143 78.5743 94.3502C78.3813 94.4862 78.1618 94.58 77.9301 94.6254L77.4651 94.7154C76.9727 94.801 76.466 94.6992 76.045 94.4299C75.6239 94.1606 75.3189 93.7434 75.1901 93.2604C75.1197 93.0348 75.0974 92.7968 75.125 92.5621C75.1525 92.3273 75.2291 92.1009 75.3498 91.8976C75.4705 91.6944 75.6327 91.5188 75.8257 91.3823C76.0187 91.2458 76.2383 91.1515 76.4701 91.1054Z" fill="#FE632F"/>
</svg>
