<svg width="26" height="10" viewBox="0 0 26 10" fill="none" xmlns="http://www.w3.org/2000/svg">
<path fill-rule="evenodd" clip-rule="evenodd" d="M6.43006 4.41492C6.29647 4.04546 6.13235 3.40118 6.13235 3.40118H6.11326C6.11326 3.40118 5.94914 4.04546 5.81555 4.41492L5.39189 5.55997H6.84609L6.43006 4.41492ZM24.1369 0.133789H13.4498V9.90483H24.1369C24.6446 9.90483 25.053 9.57811 25.053 9.172V0.866617C25.053 0.460508 24.6446 0.133789 24.1369 0.133789ZM23.2209 3.79798C23.2209 3.99951 23.0148 4.16439 22.7629 4.16439H22.3278C22.0644 4.88501 21.4995 5.61173 20.698 6.29875C21.0186 6.49417 21.3507 6.68044 21.6942 6.84837C21.9041 6.95219 21.9728 7.16899 21.8507 7.34303L21.5492 7.76746C21.4194 7.94762 21.1331 8.00563 20.9117 7.89876C20.4308 7.66059 19.9766 7.40716 19.5606 7.13845C19.1446 7.4041 18.6942 7.66059 18.2094 7.89876C17.9881 8.00563 17.7018 7.94762 17.572 7.76746L17.2705 7.34303C17.1484 7.17204 17.2171 6.95219 17.4308 6.84837C17.7858 6.67433 18.1178 6.49112 18.427 6.29875C18.1255 6.04226 17.8583 5.77967 17.6255 5.51402C17.4728 5.33997 17.5415 5.09875 17.7667 4.99188L18.0148 4.87279L18.2934 4.7415C18.4995 4.64378 18.7667 4.68959 18.9041 4.84531C19.0949 5.05905 19.3163 5.2728 19.5682 5.48348C20.0835 5.04989 20.4766 4.60104 20.7133 4.16439H16.3507C16.0987 4.16439 15.8926 3.99951 15.8926 3.79798V3.30943C15.8926 3.1079 16.0987 2.94301 16.3507 2.94301H18.7934V2.45446C18.7934 2.25293 18.9995 2.08805 19.2514 2.08805H19.8621C20.114 2.08805 20.3201 2.25293 20.3201 2.45446V2.94301H22.7629C23.0148 2.94301 23.2209 3.1079 23.2209 3.30943V3.79798ZM0.625 0.866637V9.17202C0.625 9.57813 1.0334 9.90485 1.54103 9.90485H12.2281V0.133809H1.54103C1.0334 0.133809 0.625 0.460528 0.625 0.866637ZM2.87324 7.46499L5.0679 2.30161C5.13279 2.15199 5.30454 2.05428 5.50302 2.05428H6.74348C6.93814 2.05428 7.11371 2.15504 7.1786 2.30161L9.37327 7.46499C9.4725 7.70316 9.25494 7.95049 8.93815 7.95049H8.0641C7.96267 7.95043 7.87134 7.92611 7.79012 7.87751C7.70889 7.82892 7.6539 7.76571 7.62517 7.68789L7.26639 6.71384H4.96867L4.62134 7.68484C4.56408 7.84056 4.38469 7.95049 4.1824 7.95049H3.30835C2.99537 7.95049 2.774 7.70316 2.87324 7.46499Z" fill="#339AF0"/>
</svg>
