<svg width="48" height="33" viewBox="0 0 48 33" fill="none" xmlns="http://www.w3.org/2000/svg">
<path d="M20.0074 13.219C20.3513 13.0727 20.5696 12.7408 20.5652 12.3674V12.3369C20.5652 10.566 21.8042 9.06378 23.5636 8.74717C25.8984 8.32794 27.9378 10.0988 27.9378 12.3369V12.3653C27.9334 12.7386 28.1516 13.0727 28.4978 13.219C31.7123 14.5772 34.1419 17.431 34.8782 20.8919C38.7938 18.9136 42.7094 16.9354 46.6272 14.9571C47.4253 14.5531 47.8222 13.7867 47.8222 13.0225C47.8222 12.4286 47.584 11.8347 47.1012 11.4111H47.099C46.9601 11.2866 46.8036 11.1796 46.625 11.0901L35.8902 5.66186L35.5727 5.50247L32.8411 4.12248L31.397 3.391L25.1554 0.238003C24.8445 0.0807902 24.5028 0 24.1611 0C23.8193 0 23.4776 0.0807902 23.1667 0.238003L12.4342 5.66186L1.69716 11.0879C0.899055 11.4919 0.5 12.2561 0.5 13.0225C0.5 13.2409 0.533071 13.4592 0.597008 13.6688C0.760157 14.1951 1.12614 14.6689 1.69716 14.9571L2.97811 15.6034L3.85118 16.0445V20.9771C3.36834 21.1932 3.03102 21.6758 3.03102 22.2391C3.03102 22.6955 3.2537 23.1038 3.60204 23.3505L2.99354 28.6325C2.91417 29.3247 3.63952 29.8967 4.43102 29.8967C5.22251 29.8967 5.95007 29.3268 5.8707 28.6325L5.25999 23.3505C5.60614 23.1016 5.83102 22.6955 5.83102 22.2391C5.83102 21.6933 5.51354 21.2216 5.04834 20.9967V16.6493C7.51102 17.8939 9.9759 19.1385 12.4364 20.3831L13.6071 20.9749C14.3236 17.4769 16.7598 14.5903 20.0074 13.219Z" fill="url(#paint0_linear_341_3589)"/>
<path d="M24.377 13.998C25.4101 13.998 26.2629 13.2309 26.3978 12.2341C26.4105 12.143 26.416 12.0519 26.416 11.959C26.416 10.8329 25.5031 9.91992 24.377 9.91992C23.2508 9.91992 22.3379 10.8329 22.3379 11.959C22.3379 12.0519 22.3434 12.1448 22.3561 12.2323C22.4891 13.2291 23.3438 13.998 24.377 13.998Z" fill="url(#paint1_linear_341_3589)"/>
<path d="M24.2891 14.9531C29.169 14.9531 33.125 18.9091 33.125 23.7891C33.125 28.669 29.169 32.625 24.2891 32.625C19.4091 32.625 15.4532 28.669 15.4531 23.7891C15.4531 18.9091 19.4091 14.9531 24.2891 14.9531Z" fill="url(#paint2_linear_341_3589)"/>
<path d="M28.1464 19.625C28.1464 21.6328 28.1464 23.6407 28.1464 25.7093C27.8726 25.7387 27.8726 25.7387 27.5933 25.7686C26.3604 25.991 25.1752 26.5913 24.3653 27.5671C24.3399 27.596 24.3399 27.596 24.314 27.6255C24.301 27.6255 24.288 27.6255 24.2745 27.6255C24.27 26.8954 24.2665 26.1652 24.2644 25.4351C24.2642 25.3488 24.2639 25.2625 24.2637 25.1762C24.2636 25.1504 24.2636 25.1504 24.2635 25.1242C24.2627 24.8464 24.2611 24.5686 24.2593 24.2908C24.2574 24.0056 24.2563 23.7204 24.2559 23.4351C24.2557 23.2592 24.2548 23.0834 24.2532 22.9075C24.2522 22.7867 24.2519 22.666 24.2521 22.5452C24.2522 22.4756 24.2521 22.4061 24.251 22.3365C24.2444 21.8317 24.2444 21.8317 24.4212 21.6322C24.438 21.6152 24.4548 21.5982 24.4721 21.5807C24.5012 21.5443 24.5301 21.5077 24.5585 21.4708C24.6633 21.3451 24.7743 21.2252 24.8869 21.1066C24.9024 21.0902 24.9179 21.0739 24.9339 21.057C25.0426 20.9454 25.1603 20.848 25.282 20.751C25.2969 20.7385 25.3118 20.7259 25.3272 20.713C26.0774 20.0892 27.1612 19.625 28.1464 19.625Z" fill="white"/>
<path d="M19.988 19.625C20.0228 19.6287 20.0577 19.6325 20.0926 19.6362C20.112 19.6383 20.1315 19.6403 20.1515 19.6425C21.0259 19.7375 21.857 20.0449 22.5758 20.5535C22.5884 20.5624 22.6011 20.5713 22.6142 20.5804C22.8288 20.7325 23.0199 20.9032 23.2079 21.0868C23.23 21.1081 23.2521 21.1294 23.2742 21.1507C23.3813 21.2549 23.484 21.3616 23.5746 21.4808C23.6219 21.5423 23.6219 21.5423 23.678 21.5971C23.8876 21.8211 23.8702 22.0689 23.8653 22.3612C23.8643 22.432 23.8646 22.5028 23.8648 22.5736C23.8649 22.696 23.8642 22.8184 23.863 22.9407C23.8612 23.1176 23.8607 23.2945 23.8604 23.4714C23.8599 23.7586 23.8585 24.0456 23.8564 24.3327C23.8544 24.6114 23.8529 24.8901 23.852 25.1689C23.8519 25.1861 23.8519 25.2033 23.8518 25.221C23.8515 25.3074 23.8512 25.3937 23.851 25.4801C23.8487 26.1952 23.8449 26.9104 23.84 27.6255C23.7662 27.6009 23.7501 27.5719 23.703 27.5107C23.5567 27.3275 23.3889 27.1621 23.2079 27.0131C23.1976 27.0047 23.1874 26.9962 23.1768 26.9875C22.7946 26.674 22.3926 26.4123 21.9436 26.2032C21.9285 26.1961 21.9134 26.189 21.8979 26.1817C21.3713 25.9381 20.8162 25.7924 20.2396 25.7363C20.2131 25.7336 20.1866 25.7309 20.1601 25.7283C20.0961 25.7219 20.0322 25.7156 19.9682 25.7093C19.9677 25.0112 19.9674 24.3132 19.9672 23.6151C19.9672 23.5324 19.9671 23.4497 19.9671 23.367C19.9671 23.3505 19.9671 23.3341 19.9671 23.3171C19.967 23.0517 19.9669 22.7863 19.9667 22.5209C19.9665 22.2479 19.9664 21.9749 19.9663 21.7019C19.9663 21.5339 19.9662 21.3659 19.9661 21.1979C19.966 21.0822 19.9659 20.9665 19.966 20.8508C19.966 20.7843 19.9659 20.7179 19.9658 20.6515C19.9654 20.3088 19.9727 19.9673 19.988 19.625Z" fill="white"/>
<path d="M28.6006 20.9883C28.7791 21.017 28.9391 21.0718 29.1142 21.1266C29.1142 23.18 29.1142 25.2335 29.1142 27.3492C28.8724 27.3052 28.8724 27.3052 28.785 27.2863C28.3851 27.2017 27.9823 27.1449 27.5734 27.1319C27.5486 27.1311 27.5239 27.1302 27.4984 27.1294C26.7211 27.1171 25.9335 27.2391 25.2053 27.512C25.1753 27.5231 25.1753 27.5231 25.1448 27.5344C25.1273 27.541 25.1099 27.5477 25.0919 27.5546C25.0411 27.5674 25.0146 27.5641 24.9658 27.5467C25.0969 27.4105 25.2321 27.2882 25.3807 27.1714C25.3999 27.1557 25.4192 27.1401 25.439 27.124C25.9783 26.6944 26.6272 26.3981 27.2968 26.2429C27.3216 26.2372 27.3216 26.2372 27.3469 26.2313C27.6253 26.1691 27.9063 26.1456 28.1904 26.1269C28.205 26.1258 28.2196 26.1248 28.2347 26.1237C28.2748 26.1208 28.3149 26.1182 28.355 26.1156C28.4278 26.1038 28.4655 26.0929 28.5216 26.0454C28.584 25.9303 28.5894 25.8331 28.5887 25.7037C28.5889 25.6835 28.589 25.6633 28.5891 25.6425C28.5895 25.575 28.5894 25.5074 28.5894 25.4399C28.5896 25.3914 28.5898 25.3429 28.59 25.2944C28.5904 25.1901 28.5907 25.0858 28.5908 24.9815C28.5909 24.8307 28.5914 24.6799 28.5919 24.5291C28.5927 24.2845 28.5933 24.0398 28.5938 23.7951C28.5942 23.5575 28.5947 23.3199 28.5954 23.0822C28.5955 23.0676 28.5955 23.0529 28.5956 23.0378C28.5958 22.9643 28.596 22.8908 28.5962 22.8172C28.5981 22.2076 28.5995 21.5979 28.6006 20.9883Z" fill="white"/>
<path d="M19.5136 20.9688C19.5137 20.9941 19.5137 21.0194 19.5138 21.0455C19.5149 21.6467 19.5163 22.2479 19.5181 22.8491C19.5184 22.9231 19.5186 22.9971 19.5188 23.0711C19.5188 23.0859 19.5189 23.1006 19.5189 23.1158C19.5196 23.3543 19.5201 23.5928 19.5205 23.8314C19.521 24.0761 19.5216 24.3209 19.5225 24.5657C19.523 24.7167 19.5233 24.8677 19.5235 25.0187C19.5236 25.1346 19.524 25.2504 19.5246 25.3662C19.5247 25.4137 19.5248 25.4612 19.5248 25.5087C19.5247 25.5736 19.5251 25.6384 19.5255 25.7032C19.5254 25.722 19.5253 25.7408 19.5252 25.7602C19.5264 25.8703 19.5396 25.9484 19.5926 26.0456C19.6993 26.1309 19.8447 26.1176 19.9754 26.1234C21.1388 26.19 22.1809 26.6495 23.0435 27.4272C23.0539 27.4365 23.0644 27.4459 23.0752 27.4555C23.1004 27.4786 23.1245 27.5028 23.1484 27.5272C23.1484 27.5402 23.1484 27.5533 23.1484 27.5667C23.0498 27.5376 22.9514 27.508 22.8539 27.4756C21.6555 27.0784 20.3376 26.9971 19.1134 27.3356C19.0593 27.3494 19.0593 27.3494 19 27.3494C19 25.2959 19 23.2425 19 21.1268C19.4741 20.9688 19.4741 20.9688 19.5136 20.9688Z" fill="white"/>
<defs>
<linearGradient id="paint0_linear_341_3589" x1="4.35657" y1="28.435" x2="47.0519" y2="-5.43712" gradientUnits="userSpaceOnUse">
<stop stop-color="#0463EF"/>
<stop offset="1" stop-color="#16EA9E"/>
</linearGradient>
<linearGradient id="paint1_linear_341_3589" x1="7.76151" y1="25.0139" x2="43.3124" y2="-2.91891" gradientUnits="userSpaceOnUse">
<stop stop-color="#0463EF"/>
<stop offset="1" stop-color="#16EA9E"/>
</linearGradient>
<linearGradient id="paint2_linear_341_3589" x1="15.4531" y1="32.625" x2="42.8325" y2="24.1605" gradientUnits="userSpaceOnUse">
<stop stop-color="#0463EF"/>
<stop offset="1" stop-color="#16EA9E"/>
</linearGradient>
</defs>
</svg>
