<svg width="44" height="42" viewBox="0 0 44 42" fill="none" xmlns="http://www.w3.org/2000/svg">
<path d="M41.985 19.2658C44.3059 17.6743 43.1796 14.0401 40.3654 14.0401H30.2897C29.0491 14.0401 27.9495 13.2413 27.5661 12.0614L24.464 2.51648C23.6066 -0.121715 19.8742 -0.121709 19.0168 2.51649L15.9147 12.0614C15.5312 13.2413 14.4317 14.0401 13.1911 14.0401H3.11536C0.301185 14.0401 -0.825147 17.6743 1.49579 19.2658L9.50426 24.7573C10.5612 25.482 11.0079 26.8207 10.5981 28.0349L7.44096 37.3895C6.5491 40.0321 9.57644 42.2608 11.8348 40.6243L20.06 34.664C21.0625 33.9376 22.4183 33.9376 23.4208 34.664L31.646 40.6243C33.9043 42.2608 36.9317 40.0321 36.0398 37.3895L32.8826 28.0349C32.4728 26.8207 32.9196 25.482 33.9765 24.7573L41.985 19.2658Z" fill="white"/>
</svg>
