<svg width="37" height="37" viewBox="0 0 37 37" fill="none" xmlns="http://www.w3.org/2000/svg">
<path d="M11.3623 19.6831L11.3623 18.9125H11.3623V19.6831ZM15.3975 21.355L15.9423 20.8101L15.9423 20.8101L15.3975 21.355ZM17.0693 25.3901H17.8399V25.3901L17.0693 25.3901ZM17.0693 29.6704L17.8399 29.6704V29.6704H17.0693ZM15.3975 33.7056L15.9423 34.2504L15.9423 34.2504L15.3975 33.7056ZM11.3623 35.3774V36.148H11.3623L11.3623 35.3774ZM7.08203 35.3774L7.08199 36.148H7.08203V35.3774ZM3.25684 33.9067L2.72374 34.4631L2.73064 34.4697L2.7377 34.4762L3.25684 33.9067ZM3.04688 33.7056L2.50197 34.2504L2.50781 34.2562L2.51378 34.262L3.04688 33.7056ZM1.375 29.6704H0.604438V29.6704L1.375 29.6704ZM1.375 25.3901L0.604438 25.3901V25.3901H1.375ZM3.04688 21.355L2.50201 20.8101L2.50199 20.8101L3.04688 21.355ZM7.08203 19.6831V18.9125H7.08199L7.08203 19.6831ZM29.9102 19.6831L29.9102 18.9125H29.9102V19.6831ZM33.9453 21.355L34.4902 20.8101L34.4902 20.8101L33.9453 21.355ZM35.6172 25.3901H36.3877V25.3901L35.6172 25.3901ZM35.6172 29.6704L36.3877 29.6704V29.6704H35.6172ZM34.1465 33.4956L34.7029 34.0287L34.7095 34.0218L34.7159 34.0147L34.1465 33.4956ZM33.9453 33.7056L34.4902 34.2504L34.496 34.2446L34.5017 34.2387L33.9453 33.7056ZM29.9102 35.3774V36.148H29.9102L29.9102 35.3774ZM25.6299 35.3774L25.6299 36.148H25.6299V35.3774ZM21.5947 33.7056L21.0498 34.2504L21.0499 34.2504L21.5947 33.7056ZM19.9297 29.9604L19.1593 29.9786L19.1595 29.9873L19.1599 29.9959L19.9297 29.9604ZM19.9229 29.6704H19.1523V29.6795L19.1525 29.6886L19.9229 29.6704ZM19.9229 25.3901L19.1523 25.3901V25.3901H19.9229ZM25.6299 19.6831V18.9125H25.6299L25.6299 19.6831ZM7.08203 22.5366V21.7661H7.08195L7.08203 22.5366ZM5.06445 23.3726L4.51958 22.8277L4.51956 22.8277L5.06445 23.3726ZM4.22852 25.3901L3.45795 25.3901V25.3901H4.22852ZM4.22852 29.6704H3.45795L3.45795 29.6704L4.22852 29.6704ZM5.06445 31.688L4.51953 32.2328L4.53106 32.2443L4.54307 32.2554L5.06445 31.688ZM5.28125 31.8872L4.75987 32.4546L4.77282 32.4665L4.78631 32.4778L5.28125 31.8872ZM7.08203 32.5239L7.08195 33.2945H7.08203V32.5239ZM11.3623 32.5239V33.2945H11.3623L11.3623 32.5239ZM13.3799 31.688L13.9247 32.2329L13.9248 32.2329L13.3799 31.688ZM14.2158 29.6704L14.9864 29.6704V29.6704H14.2158ZM14.2158 25.3901H14.9864V25.3901L14.2158 25.3901ZM13.3799 23.3726L13.9248 22.8277L13.9247 22.8276L13.3799 23.3726ZM11.3623 22.5366L11.3623 21.7661H11.3623V22.5366ZM25.6299 22.5366V21.7661H25.6298L25.6299 22.5366ZM22.7764 25.3901L22.0058 25.3901V25.3901H22.7764ZM22.7764 29.6704H22.0058V29.687L22.0065 29.7037L22.7764 29.6704ZM22.7891 29.9644L22.0192 29.9976L22.02 30.0148L22.0215 30.0319L22.7891 29.9644ZM23.6123 31.688L23.0674 32.2328L23.0674 32.2329L23.6123 31.688ZM25.6299 32.5239L25.6298 33.2945H25.6299V32.5239ZM29.9102 32.5239V33.2945H29.9102L29.9102 32.5239ZM31.9277 31.688L32.4726 32.2329L32.4841 32.2214L32.4951 32.2094L31.9277 31.688ZM32.127 31.4712L32.6943 31.9926L32.7062 31.9796L32.7175 31.9661L32.127 31.4712ZM32.7637 29.6704L33.5342 29.6704V29.6704H32.7637ZM32.7637 25.3901H33.5342V25.3901L32.7637 25.3901ZM31.9277 23.3726L32.4726 22.8277L32.4726 22.8277L31.9277 23.3726ZM29.9102 22.5366L29.9102 21.7661H29.9102V22.5366ZM11.3623 1.13623L11.3623 0.365669H11.3623V1.13623ZM15.3975 2.80811L15.9423 2.26324L15.9423 2.2632L15.3975 2.80811ZM17.0693 6.84326H17.8399V6.84324L17.0693 6.84326ZM17.0693 11.1235L17.8399 11.1235V11.1235H17.0693ZM15.5986 14.9487L16.155 15.4818L16.1616 15.4749L16.1681 15.4679L15.5986 14.9487ZM15.3975 15.1587L15.9423 15.7036L15.9481 15.6977L15.9539 15.6918L15.3975 15.1587ZM11.3623 16.8306V17.6011H11.3623L11.3623 16.8306ZM7.08203 16.8306L7.08199 17.6011H7.08203V16.8306ZM3.04688 15.1587L2.50197 15.7035L2.50201 15.7036L3.04688 15.1587ZM1.375 11.1235H0.604438V11.1235L1.375 11.1235ZM1.375 6.84326L0.604438 6.84324V6.84326H1.375ZM3.04688 2.80811L2.50201 2.26324L2.502 2.26325L3.04688 2.80811ZM7.08203 1.13623V0.365669H7.08199L7.08203 1.13623ZM29.9102 1.13623L29.9102 0.365669H29.9102V1.13623ZM33.9453 2.80811L34.5017 2.27501L34.496 2.26905L34.4902 2.26321L33.9453 2.80811ZM34.1465 3.01807L34.7159 2.49893L34.7095 2.49187L34.7029 2.48497L34.1465 3.01807ZM35.6172 6.84326H36.3877V6.84324L35.6172 6.84326ZM35.6172 11.1235L36.3877 11.1235V11.1235H35.6172ZM33.9453 15.1587L34.4902 15.7036L34.4902 15.7036L33.9453 15.1587ZM29.9102 16.8306V17.6011H29.9102L29.9102 16.8306ZM25.6299 16.8306L25.6299 17.6011H25.6299V16.8306ZM21.5947 15.1587L21.0498 15.7035L21.0499 15.7036L21.5947 15.1587ZM19.9229 11.1235H19.1523V11.1235L19.9229 11.1235ZM19.9229 6.84326L19.1523 6.84324V6.84326H19.9229ZM21.5947 2.80811L21.0499 2.26323L21.0499 2.26324L21.5947 2.80811ZM25.6299 1.13623V0.365669H25.6299L25.6299 1.13623ZM7.08203 3.98975V3.21918L7.08195 3.21918L7.08203 3.98975ZM5.06445 4.82568L4.51958 4.28081L4.51957 4.28083L5.06445 4.82568ZM4.22852 6.84326L3.45795 6.84322V6.84326H4.22852ZM4.22852 11.1235H3.45795L3.45795 11.1236L4.22852 11.1235ZM5.06445 13.1411L4.51952 13.6859L4.5196 13.686L5.06445 13.1411ZM7.08203 13.9771L7.08195 14.7476H7.08203V13.9771ZM11.3623 13.9771V14.7476H11.3623L11.3623 13.9771ZM13.3799 13.1411L13.9247 13.686L13.9363 13.6745L13.9473 13.6625L13.3799 13.1411ZM13.5791 12.9243L14.1465 13.4457L14.1584 13.4328L14.1697 13.4193L13.5791 12.9243ZM14.2158 11.1235L14.9864 11.1236V11.1235H14.2158ZM14.2158 6.84326H14.9864V6.84322L14.2158 6.84326ZM13.3799 4.82568L13.9248 4.28083L13.9247 4.28075L13.3799 4.82568ZM11.3623 3.98975L11.3623 3.21918H11.3623V3.98975ZM25.6299 3.98975V3.21918L25.6298 3.21918L25.6299 3.98975ZM23.6123 4.82568L23.0674 4.28081L23.0674 4.28081L23.6123 4.82568ZM22.7764 6.84326L22.0058 6.84322V6.84326H22.7764ZM22.7764 11.1235H22.0058V11.1236L22.7764 11.1235ZM23.6123 13.1411L23.0674 13.6859L23.0674 13.686L23.6123 13.1411ZM25.6299 13.9771L25.6298 14.7476H25.6299V13.9771ZM29.9102 13.9771V14.7476H29.9102L29.9102 13.9771ZM31.9277 13.1411L32.4726 13.686L32.4726 13.686L31.9277 13.1411ZM32.7637 11.1235L33.5342 11.1236V11.1235H32.7637ZM32.7637 6.84326H33.5342V6.84322L32.7637 6.84326ZM32.127 5.04248L32.7175 4.54754L32.7062 4.53405L32.6943 4.5211L32.127 5.04248ZM31.9277 4.82568L32.4951 4.3043L32.4841 4.2923L32.4726 4.28077L31.9277 4.82568ZM29.9102 3.98975L29.9102 3.21918H29.9102V3.98975ZM11.3623 19.6831L11.3623 20.4537C12.7179 20.4537 13.8937 20.9411 14.8526 21.8999L15.3975 21.355L15.9423 20.8101C14.6947 19.5626 13.127 18.9126 11.3623 18.9125L11.3623 19.6831ZM15.3975 21.355L14.8526 21.8998C15.8114 22.8587 16.2987 24.0344 16.2988 25.3902L17.0693 25.3901L17.8399 25.3901C17.8398 23.6254 17.19 22.0578 15.9423 20.8101L15.3975 21.355ZM17.0693 25.3901H16.2988V29.6704H17.0693H17.8399V25.3901H17.0693ZM17.0693 29.6704L16.2988 29.6704C16.2988 31.0262 15.8115 32.2018 14.8526 33.1607L15.3975 33.7056L15.9423 34.2504C17.19 33.0027 17.8399 31.4352 17.8399 29.6704L17.0693 29.6704ZM15.3975 33.7056L14.8526 33.1607C13.8937 34.1196 12.718 34.6069 11.3623 34.6069L11.3623 35.3774L11.3623 36.148C13.1271 36.148 14.6946 35.4981 15.9423 34.2504L15.3975 33.7056ZM11.3623 35.3774V34.6069H7.08203V35.3774V36.148H11.3623V35.3774ZM7.08203 35.3774L7.08208 34.6069C5.80886 34.6068 4.69742 34.1773 3.77597 33.3373L3.25684 33.9067L2.7377 34.4762C3.94702 35.5787 5.43017 36.1479 7.08199 36.148L7.08203 35.3774ZM3.25684 33.9067L3.78994 33.3503L3.57997 33.1492L3.04688 33.7056L2.51378 34.262L2.72374 34.4631L3.25684 33.9067ZM3.04688 33.7056L3.59178 33.1607C2.63299 32.2018 2.14558 31.026 2.14556 29.6704L1.375 29.6704L0.604438 29.6704C0.604462 31.4352 1.25449 33.0028 2.50197 34.2504L3.04688 33.7056ZM1.375 29.6704H2.14556V25.3901H1.375H0.604438V29.6704H1.375ZM1.375 25.3901L2.14556 25.3902C2.1456 24.0344 2.63291 22.8587 3.59176 21.8998L3.04688 21.355L2.50199 20.8101C1.25438 22.0578 0.604488 23.6254 0.604438 25.3901L1.375 25.3901ZM3.04688 21.355L3.59174 21.8999C4.55057 20.941 5.72634 20.4537 7.08208 20.4537L7.08203 19.6831L7.08199 18.9125C5.31733 18.9126 3.74967 19.5624 2.50201 20.8101L3.04688 21.355ZM7.08203 19.6831V20.4537H11.3623V19.6831V18.9125H7.08203V19.6831ZM29.9102 19.6831L29.9101 20.4537C31.2658 20.4537 32.4416 20.941 33.4005 21.8999L33.9453 21.355L34.4902 20.8101C33.2425 19.5625 31.6749 18.9126 29.9102 18.9125L29.9102 19.6831ZM33.9453 21.355L33.4004 21.8998C34.3593 22.8587 34.8466 24.0344 34.8466 25.3902L35.6172 25.3901L36.3877 25.3901C36.3877 23.6254 35.7378 22.0578 34.4902 20.8101L33.9453 21.355ZM35.6172 25.3901H34.8466V29.6704H35.6172H36.3877V25.3901H35.6172ZM35.6172 29.6704L34.8466 29.6704C34.8466 30.9437 34.4172 32.0549 33.577 32.9765L34.1465 33.4956L34.7159 34.0147C35.8185 32.8054 36.3877 31.3224 36.3877 29.6704L35.6172 29.6704ZM34.1465 33.4956L33.5901 32.9625L33.3889 33.1725L33.9453 33.7056L34.5017 34.2387L34.7029 34.0287L34.1465 33.4956ZM33.9453 33.7056L33.4004 33.1607C32.4415 34.1196 31.2659 34.6069 29.9101 34.6069L29.9102 35.3774L29.9102 36.148C31.675 36.148 33.2425 35.4981 34.4902 34.2504L33.9453 33.7056ZM29.9102 35.3774V34.6069H25.6299V35.3774V36.148H29.9102V35.3774ZM25.6299 35.3774L25.6299 34.6069C24.2742 34.6068 23.0985 34.1195 22.1396 33.1607L21.5947 33.7056L21.0499 34.2504C22.2975 35.4981 23.8651 36.148 25.6299 36.148L25.6299 35.3774ZM21.5947 33.7056L22.1396 33.1607C21.2391 32.2602 20.7569 31.1707 20.6994 29.925L19.9297 29.9604L19.1599 29.9959C19.2353 31.6311 19.8817 33.0822 21.0498 34.2504L21.5947 33.7056ZM19.9297 29.9604L20.7 29.9423L20.6932 29.6523L19.9229 29.6704L19.1525 29.6886L19.1593 29.9786L19.9297 29.9604ZM19.9229 29.6704H20.6934V25.3901H19.9229H19.1523V29.6704H19.9229ZM19.9229 25.3901L20.6934 25.3902C20.6935 24.0344 21.1807 22.8587 22.1396 21.8999L21.5947 21.355L21.0499 20.8101C19.8022 22.0578 19.1523 23.6253 19.1523 25.3901L19.9229 25.3901ZM21.5947 21.355L22.1396 21.8999C23.0985 20.941 24.2741 20.4537 25.6299 20.4537L25.6299 19.6831L25.6299 18.9125C23.8651 18.9126 22.2976 19.5624 21.0499 20.8101L21.5947 21.355ZM25.6299 19.6831V20.4537H29.9102V19.6831V18.9125H25.6299V19.6831ZM7.08203 22.5366L7.08195 21.7661C6.07416 21.7662 5.23214 22.1151 4.51958 22.8277L5.06445 23.3726L5.60932 23.9174C6.033 23.4938 6.48313 23.3072 7.08211 23.3072L7.08203 22.5366ZM5.06445 23.3726L4.51956 22.8277C3.80709 23.5402 3.458 24.3822 3.45795 25.3901L4.22852 25.3901L4.99908 25.3902C4.99911 24.7912 5.18563 24.3412 5.60934 23.9174L5.06445 23.3726ZM4.22852 25.3901H3.45795V29.6704H4.22852H4.99908V25.3901H4.22852ZM4.22852 29.6704L3.45795 29.6704C3.45798 30.6784 3.80724 31.5204 4.51953 32.2328L5.06445 31.688L5.60938 31.1432C5.18569 30.7194 4.99909 30.2692 4.99908 29.6704L4.22852 29.6704ZM5.06445 31.688L4.54307 32.2554L4.75987 32.4546L5.28125 31.8872L5.80263 31.3198L5.58583 31.1206L5.06445 31.688ZM5.28125 31.8872L4.78631 32.4778C5.44792 33.0322 6.20846 33.2944 7.08195 33.2945L7.08203 32.5239L7.08211 31.7534C6.54982 31.7533 6.1449 31.6056 5.77619 31.2966L5.28125 31.8872ZM7.08203 32.5239V33.2945H11.3623V32.5239V31.7534H7.08203V32.5239ZM11.3623 32.5239L11.3623 33.2945C12.3703 33.2945 13.2122 32.9454 13.9247 32.2329L13.3799 31.688L12.835 31.1431C12.4113 31.5668 11.9612 31.7533 11.3623 31.7534L11.3623 32.5239ZM13.3799 31.688L13.9248 32.2329C14.6373 31.5203 14.9864 30.6784 14.9864 29.6704L14.2158 29.6704L13.4453 29.6704C13.4452 30.2694 13.2588 30.7193 12.835 31.1431L13.3799 31.688ZM14.2158 29.6704H14.9864V25.3901H14.2158H13.4453V29.6704H14.2158ZM14.2158 25.3901L14.9864 25.3901C14.9863 24.3822 14.6373 23.5402 13.9248 22.8277L13.3799 23.3726L12.835 23.9174C13.2587 24.3412 13.4452 24.7912 13.4453 25.3902L14.2158 25.3901ZM13.3799 23.3726L13.9247 22.8276C13.2122 22.1153 12.3703 21.7661 11.3623 21.7661L11.3623 22.5366L11.3623 23.3072C11.9611 23.3072 12.4113 23.4938 12.8351 23.9175L13.3799 23.3726ZM11.3623 22.5366V21.7661H7.08203V22.5366V23.3072H11.3623V22.5366ZM25.6299 22.5366L25.6298 21.7661C24.6219 21.7661 23.78 22.1151 23.0674 22.8277L23.6123 23.3726L24.1572 23.9174C24.5809 23.4937 25.0309 23.3072 25.6299 23.3072L25.6299 22.5366ZM23.6123 23.3726L23.0674 22.8277C22.3549 23.5403 22.0059 24.3822 22.0058 25.3901L22.7764 25.3901L23.5469 25.3902C23.547 24.7912 23.7334 24.3412 24.1572 23.9174L23.6123 23.3726ZM22.7764 25.3901H22.0058V29.6704H22.7764H23.5469V25.3901H22.7764ZM22.7764 29.6704L22.0065 29.7037L22.0192 29.9976L22.7891 29.9644L23.5589 29.9311L23.5462 29.6372L22.7764 29.6704ZM22.7891 29.9644L22.0215 30.0319C22.0972 30.8921 22.4498 31.6151 23.0674 32.2328L23.6123 31.688L24.1572 31.1432C23.7807 30.7666 23.5988 30.376 23.5567 29.8968L22.7891 29.9644ZM23.6123 31.688L23.0674 32.2329C23.78 32.9454 24.6219 33.2944 25.6298 33.2945L25.6299 32.5239L25.6299 31.7534C25.031 31.7533 24.5809 31.5668 24.1572 31.1431L23.6123 31.688ZM25.6299 32.5239V33.2945H29.9102V32.5239V31.7534H25.6299V32.5239ZM29.9102 32.5239L29.9102 33.2945C30.9182 33.2945 31.76 32.9454 32.4726 32.2329L31.9277 31.688L31.3829 31.1431C30.9591 31.5669 30.5092 31.7533 29.9101 31.7534L29.9102 32.5239ZM31.9277 31.688L32.4951 32.2094L32.6943 31.9926L32.127 31.4712L31.5596 30.9498L31.3603 31.1666L31.9277 31.688ZM32.127 31.4712L32.7175 31.9661C33.2721 31.3045 33.5342 30.5442 33.5342 29.6704L32.7637 29.6704L31.9931 29.6704C31.9931 30.2028 31.8455 30.6074 31.5364 30.9762L32.127 31.4712ZM32.7637 29.6704H33.5342V25.3901H32.7637H31.9931V29.6704H32.7637ZM32.7637 25.3901L33.5342 25.3901C33.5342 24.3822 33.1851 23.5402 32.4726 22.8277L31.9277 23.3726L31.3829 23.9174C31.8066 24.3412 31.9931 24.7912 31.9931 25.3902L32.7637 25.3901ZM31.9277 23.3726L32.4726 22.8277C31.7601 22.1153 30.9182 21.7661 29.9102 21.7661L29.9102 22.5366L29.9101 23.3072C30.509 23.3072 30.9591 23.4937 31.3829 23.9175L31.9277 23.3726ZM29.9102 22.5366V21.7661H25.6299V22.5366V23.3072H29.9102V22.5366ZM11.3623 1.13623L11.3623 1.90679C12.7179 1.90681 13.8937 2.39423 14.8526 3.35301L15.3975 2.80811L15.9423 2.2632C14.6947 1.01574 13.127 0.365692 11.3623 0.365669L11.3623 1.13623ZM15.3975 2.80811L14.8526 3.35297C15.8114 4.31184 16.2987 5.48756 16.2988 6.84329L17.0693 6.84326L17.8399 6.84324C17.8398 5.07851 17.19 3.51091 15.9423 2.26324L15.3975 2.80811ZM17.0693 6.84326H16.2988V11.1235H17.0693H17.8399V6.84326H17.0693ZM17.0693 11.1235L16.2988 11.1235C16.2988 12.3968 15.8693 13.5081 15.0292 14.4296L15.5986 14.9487L16.1681 15.4679C17.2706 14.2585 17.8399 12.7756 17.8399 11.1235L17.0693 11.1235ZM15.5986 14.9487L15.0422 14.4156L14.8411 14.6256L15.3975 15.1587L15.9539 15.6918L16.155 15.4818L15.5986 14.9487ZM15.3975 15.1587L14.8526 14.6138C13.8937 15.5727 12.718 16.06 11.3623 16.06L11.3623 16.8306L11.3623 17.6011C13.1271 17.6011 14.6946 16.9512 15.9423 15.7036L15.3975 15.1587ZM11.3623 16.8306V16.06H7.08203V16.8306V17.6011H11.3623V16.8306ZM7.08203 16.8306L7.08208 16.06C5.72638 16.0599 4.55056 15.5726 3.59174 14.6138L3.04688 15.1587L2.50201 15.7036C3.74966 16.9512 5.31735 17.601 7.08199 17.6011L7.08203 16.8306ZM3.04688 15.1587L3.59178 14.6139C2.633 13.655 2.14558 12.4792 2.14556 11.1235L1.375 11.1235L0.604438 11.1235C0.604462 12.8883 1.25451 14.4559 2.50197 15.7035L3.04688 15.1587ZM1.375 11.1235H2.14556V6.84326H1.375H0.604438V11.1235H1.375ZM1.375 6.84326L2.14556 6.84329C2.14561 5.48756 2.63291 4.31184 3.59175 3.35297L3.04688 2.80811L2.502 2.26325C1.25437 3.51091 0.604497 5.07851 0.604438 6.84324L1.375 6.84326ZM3.04688 2.80811L3.59174 3.35297C4.55057 2.39415 5.72634 1.90687 7.08208 1.90679L7.08203 1.13623L7.08199 0.365669C5.31733 0.365769 3.74967 1.01557 2.50201 2.26324L3.04688 2.80811ZM7.08203 1.13623V1.90679H11.3623V1.13623V0.365669H7.08203V1.13623ZM29.9102 1.13623L29.9101 1.90679C31.2658 1.90681 32.4416 2.39417 33.4005 3.353L33.9453 2.80811L34.4902 2.26321C33.2425 1.01567 31.6749 0.365692 29.9102 0.365669L29.9102 1.13623ZM33.9453 2.80811L33.3889 3.34121L33.5901 3.55117L34.1465 3.01807L34.7029 2.48497L34.5017 2.27501L33.9453 2.80811ZM34.1465 3.01807L33.577 3.5372C34.4171 4.45869 34.8466 5.57003 34.8466 6.84329L35.6172 6.84326L36.3877 6.84324C36.3877 5.19132 35.8184 3.70828 34.7159 2.49893L34.1465 3.01807ZM35.6172 6.84326H34.8466V11.1235H35.6172H36.3877V6.84326H35.6172ZM35.6172 11.1235L34.8466 11.1235C34.8466 12.4793 34.3593 13.6549 33.4004 14.6138L33.9453 15.1587L34.4902 15.7036C35.7379 14.4559 36.3877 12.8884 36.3877 11.1235L35.6172 11.1235ZM33.9453 15.1587L33.4004 14.6138C32.4415 15.5727 31.2659 16.06 29.9101 16.06L29.9102 16.8306L29.9102 17.6011C31.675 17.6011 33.2425 16.9513 34.4902 15.7036L33.9453 15.1587ZM29.9102 16.8306V16.06H25.6299V16.8306V17.6011H29.9102V16.8306ZM25.6299 16.8306L25.6299 16.06C24.2742 16.06 23.0985 15.5727 22.1396 14.6138L21.5947 15.1587L21.0499 15.7036C22.2975 16.9512 23.8651 17.6011 25.6299 17.6011L25.6299 16.8306ZM21.5947 15.1587L22.1396 14.6138C21.1808 13.6549 20.6934 12.4792 20.6934 11.1235L19.9229 11.1235L19.1523 11.1235C19.1523 12.8883 19.8023 14.4559 21.0498 15.7035L21.5947 15.1587ZM19.9229 11.1235H20.6934V6.84326H19.9229H19.1523V11.1235H19.9229ZM19.9229 6.84326L20.6934 6.84329C20.6935 5.48752 21.1807 4.31185 22.1396 3.35297L21.5947 2.80811L21.0499 2.26324C19.8022 3.51093 19.1523 5.07849 19.1523 6.84324L19.9229 6.84326ZM21.5947 2.80811L22.1396 3.35298C23.0985 2.3941 24.2741 1.90683 25.6299 1.90679L25.6299 1.13623L25.6299 0.365669C23.8651 0.365719 22.2976 1.01555 21.0499 2.26323L21.5947 2.80811ZM25.6299 1.13623V1.90679H29.9102V1.13623V0.365669H25.6299V1.13623ZM7.08203 3.98975L7.08195 3.21918C6.07416 3.21929 5.23214 3.56826 4.51958 4.28081L5.06445 4.82568L5.60932 5.37055C6.033 4.94688 6.48313 4.76037 7.08211 4.76031L7.08203 3.98975ZM5.06445 4.82568L4.51957 4.28083C3.80708 4.99336 3.45801 5.83532 3.45795 6.84322L4.22852 6.84326L4.99908 6.84331C4.99911 6.24436 5.18563 5.79427 5.60934 5.37054L5.06445 4.82568ZM4.22852 6.84326H3.45795V11.1235H4.22852H4.99908V6.84326H4.22852ZM4.22852 11.1235L3.45795 11.1236C3.45798 12.1315 3.80725 12.9735 4.51952 13.6859L5.06445 13.1411L5.60938 12.5963C5.1857 12.1725 4.99909 11.7223 4.99908 11.1235L4.22852 11.1235ZM5.06445 13.1411L4.5196 13.686C5.23212 14.3985 6.07417 14.7475 7.08195 14.7476L7.08203 13.9771L7.08211 13.2065C6.48318 13.2064 6.03299 13.0199 5.60931 12.5962L5.06445 13.1411ZM7.08203 13.9771V14.7476H11.3623V13.9771V13.2065H7.08203V13.9771ZM11.3623 13.9771L11.3623 14.7476C12.3703 14.7476 13.2122 14.3985 13.9247 13.686L13.3799 13.1411L12.835 12.5962C12.4113 13.02 11.9612 13.2065 11.3623 13.2065L11.3623 13.9771ZM13.3799 13.1411L13.9473 13.6625L14.1465 13.4457L13.5791 12.9243L13.0117 12.4029L12.8125 12.6197L13.3799 13.1411ZM13.5791 12.9243L14.1697 13.4193C14.7242 12.7576 14.9864 11.9973 14.9864 11.1236L14.2158 11.1235L13.4453 11.1235C13.4452 11.6559 13.2976 12.0605 12.9885 12.4294L13.5791 12.9243ZM14.2158 11.1235H14.9864V6.84326H14.2158H13.4453V11.1235H14.2158ZM14.2158 6.84326L14.9864 6.84322C14.9863 5.83531 14.6373 4.99337 13.9248 4.28083L13.3799 4.82568L12.835 5.37054C13.2587 5.79427 13.4452 6.24436 13.4453 6.84331L14.2158 6.84326ZM13.3799 4.82568L13.9247 4.28075C13.2123 3.56848 12.3703 3.21921 11.3623 3.21918L11.3623 3.98975L11.3623 4.76031C11.9611 4.76032 12.4113 4.94693 12.8351 5.37061L13.3799 4.82568ZM11.3623 3.98975V3.21918H7.08203V3.98975V4.76031H11.3623V3.98975ZM25.6299 3.98975L25.6298 3.21918C24.6219 3.21924 23.78 3.56825 23.0674 4.28081L23.6123 4.82568L24.1572 5.37056C24.5809 4.94682 25.0309 4.76034 25.6299 4.76031L25.6299 3.98975ZM23.6123 4.82568L23.0674 4.28081C22.3549 4.99338 22.0059 5.8353 22.0058 6.84322L22.7764 6.84326L23.5469 6.84331C23.547 6.24431 23.7334 5.79428 24.1572 5.37055L23.6123 4.82568ZM22.7764 6.84326H22.0058V11.1235H22.7764H23.5469V6.84326H22.7764ZM22.7764 11.1235L22.0058 11.1236C22.0058 12.1315 22.355 12.9735 23.0674 13.6859L23.6123 13.1411L24.1572 12.5963C23.7335 12.1725 23.5469 11.7224 23.5469 11.1235L22.7764 11.1235ZM23.6123 13.1411L23.0674 13.686C23.78 14.3985 24.6219 14.7476 25.6298 14.7476L25.6299 13.9771L25.6299 13.2065C25.031 13.2065 24.5809 13.02 24.1572 12.5962L23.6123 13.1411ZM25.6299 13.9771V14.7476H29.9102V13.9771V13.2065H25.6299V13.9771ZM29.9102 13.9771L29.9102 14.7476C30.9182 14.7476 31.76 14.3986 32.4726 13.686L31.9277 13.1411L31.3829 12.5962C30.9591 13.02 30.5092 13.2065 29.9101 13.2065L29.9102 13.9771ZM31.9277 13.1411L32.4726 13.686C33.1852 12.9734 33.5342 12.1316 33.5342 11.1236L32.7637 11.1235L31.9931 11.1235C31.9931 11.7225 31.8066 12.1725 31.3829 12.5962L31.9277 13.1411ZM32.7637 11.1235H33.5342V6.84326H32.7637H31.9931V11.1235H32.7637ZM32.7637 6.84326L33.5342 6.84322C33.5342 5.9696 33.272 5.20916 32.7175 4.54754L32.127 5.04248L31.5364 5.53742C31.8454 5.90619 31.9931 6.311 31.9931 6.84331L32.7637 6.84326ZM32.127 5.04248L32.6943 4.5211L32.4951 4.3043L31.9277 4.82568L31.3603 5.34706L31.5596 5.56386L32.127 5.04248ZM31.9277 4.82568L32.4726 4.28077C31.7601 3.5684 30.9181 3.21921 29.9102 3.21918L29.9102 3.98975L29.9101 4.76031C30.509 4.76032 30.9591 4.94688 31.3829 5.37059L31.9277 4.82568ZM29.9102 3.98975V3.21918H25.6299V3.98975V4.76031H29.9102V3.98975Z" fill="white"/>
</svg>
