<svg width="24" height="16" viewBox="0 0 24 16" fill="none" xmlns="http://www.w3.org/2000/svg">
<path d="M23.25 13.333C23.6642 13.333 24 13.9306 24 14.667C23.9999 15.4032 23.6642 16 23.25 16H12.75C12.3358 16 12.0001 15.4032 12 14.667C12 13.9306 12.3358 13.333 12.75 13.333H23.25ZM22.5 6.5C23.3284 6.5 24 7.17157 24 8C24 8.82843 23.3284 9.5 22.5 9.5H1.5C0.671573 9.5 0 8.82843 0 8C0 7.17157 0.671573 6.5 1.5 6.5H22.5ZM22.917 0C23.5151 0.000215856 23.9999 0.596911 24 1.33301C24 2.06925 23.5152 2.66678 22.917 2.66699H7.75C7.15169 2.66699 6.66699 2.06939 6.66699 1.33301C6.66714 0.596778 7.15178 0 7.75 0H22.917Z" fill="url(#paint0_linear_178_9773)"/>
<defs>
<linearGradient id="paint0_linear_178_9773" x1="-12.6667" y1="-3.50142e-07" x2="4.55105" y2="-18.5392" gradientUnits="userSpaceOnUse">
<stop stop-color="#0463EF"/>
<stop offset="1" stop-color="#16EA9E"/>
</linearGradient>
</defs>
</svg>
