<svg width="290" height="265" viewBox="0 0 290 265" fill="none" xmlns="http://www.w3.org/2000/svg">
<path d="M156.826 18.8188C119.444 1.22898 95.2122 27.1757 88.1325 44.4345L86.9436 48.363C89.4923 82.4078 54.8773 94.8285 36.4699 96.1288C8.15099 102.087 7.91499 131.119 12.3988 143.65C19.6322 163.864 26.7943 178.049 28.3282 184.432C26.6291 216.491 29.9802 229.707 31.8681 232.308C52.2578 269.19 88.506 260.679 104.081 251.813C131.268 231.102 153.168 232.781 160.719 236.209C187.906 255.501 212.401 256.778 221.251 255.005C267.128 239.684 259.01 202.755 249.216 186.206C237.039 153.863 254.29 121.899 264.438 109.959C292.757 66.5524 277.889 40.3332 266.915 32.6495C255.588 19.0316 222.313 32.0584 203.906 40.8061C190.808 44.707 164.141 26.1479 156.826 18.8188Z" fill="url(#paint0_linear_877_2667)"/>
<path d="M156.787 10.4123C117.948 -7.86197 92.7708 19.0943 85.4149 37.0247L84.1796 41.1061C86.8277 76.4756 50.8625 89.3796 31.7371 90.7305C2.31353 96.9202 2.06833 127.082 6.72706 140.1C14.2426 161.101 21.6841 175.838 23.2778 182.47C21.5124 215.776 24.9942 229.507 26.9558 232.208C48.1408 270.525 85.803 261.683 101.986 252.472C130.233 230.956 152.987 232.7 160.833 236.261C189.08 256.304 214.531 257.63 223.726 255.788C271.392 239.872 262.958 201.506 252.782 184.312C240.13 150.711 258.054 117.503 268.597 105.099C298.021 60.0032 282.573 32.7638 271.172 24.7811C259.402 10.6333 224.829 24.1671 205.704 33.2551C192.096 37.3078 164.388 18.0265 156.787 10.4123Z" stroke="url(#paint1_linear_877_2667)" stroke-width="7.67381"/>
<path d="M133.361 158.5V157.172C133.395 151.007 133.974 146.101 135.098 142.457C136.256 138.812 137.891 135.882 140.003 133.668C142.115 131.42 144.687 129.359 147.718 127.486C149.796 126.191 151.653 124.778 153.288 123.245C154.957 121.678 156.268 119.941 157.222 118.033C158.176 116.092 158.653 113.929 158.653 111.544C158.653 108.853 158.023 106.52 156.762 104.544C155.502 102.568 153.799 101.036 151.653 99.9455C149.541 98.8554 147.173 98.3104 144.55 98.3104C142.132 98.3104 139.833 98.8384 137.653 99.8944C135.507 100.916 133.718 102.483 132.288 104.595C130.891 106.673 130.108 109.313 129.937 112.515H111.747C111.918 106.043 113.485 100.627 116.448 96.2666C119.446 91.9065 123.397 88.6364 128.302 86.4564C133.241 84.2763 138.692 83.1863 144.653 83.1863C151.159 83.1863 156.881 84.3274 161.821 86.6096C166.794 88.8919 170.66 92.1449 173.419 96.3688C176.212 100.559 177.609 105.532 177.609 111.289C177.609 115.172 176.979 118.646 175.718 121.712C174.492 124.778 172.738 127.503 170.456 129.887C168.173 132.272 165.465 134.401 162.332 136.274C159.572 137.977 157.307 139.749 155.536 141.588C153.799 143.427 152.504 145.59 151.653 148.077C150.835 150.53 150.409 153.561 150.375 157.172V158.5H133.361ZM142.251 190.384C139.185 190.384 136.546 189.294 134.331 187.114C132.117 184.934 131.01 182.277 131.01 179.143C131.01 176.077 132.117 173.454 134.331 171.274C136.546 169.094 139.185 168.004 142.251 168.004C145.283 168.004 147.906 169.094 150.12 171.274C152.368 173.454 153.492 176.077 153.492 179.143C153.492 181.221 152.964 183.111 151.908 184.814C150.886 186.518 149.524 187.88 147.821 188.902C146.151 189.89 144.295 190.384 142.251 190.384Z" fill="white"/>
<defs>
<linearGradient id="paint0_linear_877_2667" x1="32.3002" y1="247.421" x2="337.614" y2="79.5083" gradientUnits="userSpaceOnUse">
<stop stop-color="#0463EF"/>
<stop offset="1" stop-color="#16EA9E"/>
</linearGradient>
<linearGradient id="paint1_linear_877_2667" x1="27.4047" y1="247.91" x2="344.615" y2="73.4384" gradientUnits="userSpaceOnUse">
<stop stop-color="#0463EF"/>
<stop offset="1" stop-color="#16EA9E"/>
</linearGradient>
</defs>
</svg>
