<svg xmlns="http://www.w3.org/2000/svg" fill="none" viewBox="32.08 22.92 144.41 34.17">
<path d="M66.6668 37.4993L51.471 24.7028C51.0593 24.3561 50.5383 24.166 50.0002 24.166C49.462 24.166 48.941 24.3561 48.5293 24.7028L33.3335 37.4993" fill="#23BAD8"/>
<path d="M66.6668 37.4993L51.471 24.7028C51.0593 24.3561 50.5383 24.166 50.0002 24.166C49.462 24.166 48.941 24.3561 48.5293 24.7028L33.3335 37.4993" stroke="#23BAD8" stroke-width="2.5" stroke-linecap="round" stroke-linejoin="round"/>
<path d="M64.1668 35.834V46.6673C64.1668 50.5767 64.1668 52.5313 63.1337 53.8778C62.8677 54.2245 62.5573 54.5348 62.2107 54.8008C60.8642 55.834 58.9095 55.834 55.0002 55.834V48.334C55.0002 45.977 55.0002 44.7985 54.268 44.0661C53.5357 43.334 52.3572 43.334 50.0002 43.334C47.6432 43.334 46.4646 43.334 45.7324 44.0661C45.0002 44.7985 45.0002 45.977 45.0002 48.334V55.834C41.0909 55.834 39.1362 55.834 37.7897 54.8008C37.443 54.5348 37.1327 54.2245 36.8667 53.8778C35.8335 52.5313 35.8335 50.5767 35.8335 46.6673V35.834" fill="#23BAD8"/>
<path d="M64.1668 35.834V46.6673C64.1668 50.5767 64.1668 52.5313 63.1337 53.8778C62.8677 54.2245 62.5573 54.5348 62.2107 54.8008C60.8642 55.834 58.9095 55.834 55.0002 55.834V48.334C55.0002 45.977 55.0002 44.7985 54.268 44.0662C53.5357 43.334 52.3572 43.334 50.0002 43.334C47.6432 43.334 46.4646 43.334 45.7324 44.0662C45.0002 44.7985 45.0002 45.977 45.0002 48.334V55.834C41.0909 55.834 39.1362 55.834 37.7897 54.8008C37.443 54.5348 37.1327 54.2245 36.8667 53.8778C35.8335 52.5313 35.8335 50.5767 35.8335 46.6673V35.834" stroke="#23BAD8" stroke-width="2.5" stroke-linecap="round" stroke-linejoin="round"/>
<g clip-path="url(#clip0_950_1085)">
<path d="M86.112 53V29.16H91.072V39.464H100.352V29.16H105.312V53H100.352V43.784H91.072V53H86.112ZM117.87 53.384C116.142 53.384 114.563 52.9893 113.134 52.2C111.726 51.4107 110.595 50.3333 109.742 48.968C108.91 47.5813 108.493 46.0133 108.493 44.264C108.493 42.4933 108.91 40.9253 109.742 39.56C110.595 38.1947 111.726 37.1173 113.134 36.328C114.563 35.5387 116.142 35.144 117.87 35.144C119.598 35.144 121.166 35.5387 122.574 36.328C123.982 37.1173 125.102 38.1947 125.934 39.56C126.787 40.9253 127.214 42.4933 127.214 44.264C127.214 46.0133 126.787 47.5813 125.934 48.968C125.102 50.3333 123.982 51.4107 122.574 52.2C121.166 52.9893 119.598 53.384 117.87 53.384ZM117.87 49.064C118.744 49.064 119.502 48.8613 120.142 48.456C120.803 48.0507 121.315 47.4853 121.678 46.76C122.062 46.0347 122.254 45.2027 122.254 44.264C122.254 43.3253 122.062 42.504 121.678 41.8C121.315 41.0747 120.803 40.5093 120.142 40.104C119.502 39.6773 118.744 39.464 117.87 39.464C116.995 39.464 116.227 39.6773 115.566 40.104C114.904 40.5093 114.382 41.0747 113.998 41.8C113.635 42.504 113.454 43.3253 113.454 44.264C113.454 45.2027 113.635 46.0347 113.998 46.76C114.382 47.4853 114.904 48.0507 115.566 48.456C116.227 48.8613 116.995 49.064 117.87 49.064ZM130.041 53V35.528H134.521V39.784L134.041 39.08C134.297 37.736 134.916 36.744 135.897 36.104C136.879 35.464 138.052 35.144 139.417 35.144C140.868 35.144 142.137 35.5173 143.225 36.264C144.335 36.9893 145.028 37.9707 145.305 39.208L143.929 39.336C144.505 37.9067 145.327 36.8507 146.393 36.168C147.46 35.4853 148.708 35.144 150.137 35.144C151.396 35.144 152.505 35.4213 153.465 35.976C154.447 36.5307 155.215 37.3093 155.769 38.312C156.324 39.2933 156.601 40.4453 156.601 41.768V53H151.801V42.792C151.801 42.1093 151.673 41.5227 151.417 41.032C151.183 40.5413 150.841 40.1573 150.393 39.88C149.945 39.6027 149.401 39.464 148.761 39.464C148.143 39.464 147.599 39.6027 147.129 39.88C146.681 40.1573 146.329 40.5413 146.073 41.032C145.839 41.5227 145.721 42.1093 145.721 42.792V53H140.921V42.792C140.921 42.1093 140.793 41.5227 140.537 41.032C140.303 40.5413 139.961 40.1573 139.513 39.88C139.065 39.6027 138.521 39.464 137.881 39.464C137.263 39.464 136.719 39.6027 136.249 39.88C135.801 40.1573 135.449 40.5413 135.193 41.032C134.959 41.5227 134.841 42.1093 134.841 42.792V53H130.041ZM168.176 53.384C166.32 53.384 164.709 52.9787 163.344 52.168C161.979 51.336 160.923 50.2267 160.176 48.84C159.429 47.4533 159.056 45.9173 159.056 44.232C159.056 42.4827 159.44 40.9253 160.208 39.56C160.997 38.1947 162.053 37.1173 163.376 36.328C164.699 35.5387 166.192 35.144 167.856 35.144C169.243 35.144 170.469 35.368 171.536 35.816C172.603 36.2427 173.499 36.8507 174.224 37.64C174.971 38.4293 175.536 39.3467 175.92 40.392C176.304 41.416 176.496 42.536 176.496 43.752C176.496 44.0933 176.475 44.4347 176.432 44.776C176.411 45.096 176.357 45.3733 176.272 45.608H163.184V42.088H173.552L171.28 43.752C171.493 42.8347 171.483 42.024 171.248 41.32C171.013 40.5947 170.597 40.0293 170 39.624C169.424 39.1973 168.709 38.984 167.856 38.984C167.024 38.984 166.309 39.1867 165.712 39.592C165.115 39.9973 164.667 40.5947 164.368 41.384C164.069 42.1733 163.952 43.1333 164.016 44.264C163.931 45.2453 164.048 46.1093 164.368 46.856C164.688 47.6027 165.179 48.1893 165.84 48.616C166.501 49.0213 167.301 49.224 168.24 49.224C169.093 49.224 169.819 49.0533 170.416 48.712C171.035 48.3707 171.515 47.9013 171.856 47.304L175.696 49.128C175.355 49.9813 174.811 50.728 174.064 51.368C173.339 52.008 172.475 52.5093 171.472 52.872C170.469 53.2133 169.371 53.384 168.176 53.384Z" fill="#23BAD8"/>
</g>
<defs>
<clipPath id="clip0_950_1085">
<rect width="94" height="40" fill="white" transform="translate(84 20)"/>
</clipPath>
</defs>
</svg>