<svg width="40" height="40" viewBox="0 0 40 40" fill="none" xmlns="http://www.w3.org/2000/svg">
<path d="M36.6668 17.4993L21.471 4.7028C21.0593 4.35613 20.5383 4.16602 20.0002 4.16602C19.462 4.16602 18.941 4.35613 18.5293 4.7028L3.3335 17.4993" fill="#23BAD8"/>
<path d="M36.6668 17.4993L21.471 4.7028C21.0593 4.35613 20.5383 4.16602 20.0002 4.16602C19.462 4.16602 18.941 4.35613 18.5293 4.7028L3.3335 17.4993" stroke="#23BAD8" stroke-width="2.5" stroke-linecap="round" stroke-linejoin="round"/>
<path d="M34.1668 15.834V26.6673C34.1668 30.5767 34.1668 32.5313 33.1337 33.8778C32.8677 34.2245 32.5573 34.5348 32.2107 34.8008C30.8642 35.834 28.9095 35.834 25.0002 35.834V28.334C25.0002 25.977 25.0002 24.7985 24.268 24.0661C23.5357 23.334 22.3572 23.334 20.0002 23.334C17.6432 23.334 16.4646 23.334 15.7324 24.0661C15.0002 24.7985 15.0002 25.977 15.0002 28.334V35.834C11.0909 35.834 9.13623 35.834 7.7897 34.8008C7.44303 34.5348 7.13273 34.2245 6.86673 33.8778C5.8335 32.5313 5.8335 30.5767 5.8335 26.6673V15.834" fill="#23BAD8"/>
<path d="M34.1668 15.834V26.6673C34.1668 30.5767 34.1668 32.5313 33.1337 33.8778C32.8677 34.2245 32.5573 34.5348 32.2107 34.8008C30.8642 35.834 28.9095 35.834 25.0002 35.834V28.334C25.0002 25.977 25.0002 24.7985 24.268 24.0662C23.5357 23.334 22.3572 23.334 20.0002 23.334C17.6432 23.334 16.4646 23.334 15.7324 24.0662C15.0002 24.7985 15.0002 25.977 15.0002 28.334V35.834C11.0909 35.834 9.13623 35.834 7.7897 34.8008C7.44303 34.5348 7.13273 34.2245 6.86673 33.8778C5.8335 32.5313 5.8335 30.5767 5.8335 26.6673V15.834" stroke="#23BAD8" stroke-width="2.5" stroke-linecap="round" stroke-linejoin="round"/>
</svg>
