<svg xmlns="http://www.w3.org/2000/svg" fill="none" viewBox="32.08 22.92 167.45 34.17">
<path d="M66.6668 37.4993L51.471 24.7028C51.0593 24.3561 50.5383 24.166 50.0002 24.166C49.462 24.166 48.941 24.3561 48.5293 24.7028L33.3335 37.4993" fill="#23BAD8"/>
<path d="M66.6668 37.4993L51.471 24.7028C51.0593 24.3561 50.5383 24.166 50.0002 24.166C49.462 24.166 48.941 24.3561 48.5293 24.7028L33.3335 37.4993" stroke="#23BAD8" stroke-width="2.5" stroke-linecap="round" stroke-linejoin="round"/>
<path d="M64.1668 35.834V46.6673C64.1668 50.5767 64.1668 52.5313 63.1337 53.8778C62.8677 54.2245 62.5573 54.5348 62.2107 54.8008C60.8642 55.834 58.9095 55.834 55.0002 55.834V48.334C55.0002 45.977 55.0002 44.7985 54.268 44.0661C53.5357 43.334 52.3572 43.334 50.0002 43.334C47.6432 43.334 46.4646 43.334 45.7324 44.0661C45.0002 44.7985 45.0002 45.977 45.0002 48.334V55.834C41.0909 55.834 39.1362 55.834 37.7897 54.8008C37.443 54.5348 37.1327 54.2245 36.8667 53.8778C35.8335 52.5313 35.8335 50.5767 35.8335 46.6673V35.834" fill="#23BAD8"/>
<path d="M64.1668 35.834V46.6673C64.1668 50.5767 64.1668 52.5313 63.1337 53.8778C62.8677 54.2245 62.5573 54.5348 62.2107 54.8008C60.8642 55.834 58.9095 55.834 55.0002 55.834V48.334C55.0002 45.977 55.0002 44.7985 54.268 44.0662C53.5357 43.334 52.3572 43.334 50.0002 43.334C47.6432 43.334 46.4646 43.334 45.7324 44.0662C45.0002 44.7985 45.0002 45.977 45.0002 48.334V55.834C41.0909 55.834 39.1362 55.834 37.7897 54.8008C37.443 54.5348 37.1327 54.2245 36.8667 53.8778C35.8335 52.5313 35.8335 50.5767 35.8335 46.6673V35.834" stroke="#23BAD8" stroke-width="2.5" stroke-linecap="round" stroke-linejoin="round"/>
<g clip-path="url(#clip0_950_1094)">
<path d="M84.352 53L92.416 29.16H99.008L107.072 53H101.664L100.064 48.136H91.328L89.728 53H84.352ZM92.704 43.816H98.688L95.04 32.552H96.384L92.704 43.816ZM117.149 53.384C115.399 53.384 113.821 52.9893 112.413 52.2C111.026 51.3893 109.917 50.2907 109.085 48.904C108.274 47.5173 107.868 45.96 107.868 44.232C107.868 42.504 108.274 40.9573 109.085 39.592C109.895 38.2053 111.005 37.1173 112.413 36.328C113.821 35.5387 115.399 35.144 117.149 35.144C118.45 35.144 119.655 35.368 120.765 35.816C121.874 36.264 122.823 36.8933 123.613 37.704C124.402 38.4933 124.967 39.432 125.309 40.52L121.149 42.312C120.85 41.4373 120.338 40.744 119.613 40.232C118.909 39.72 118.087 39.464 117.149 39.464C116.317 39.464 115.57 39.6667 114.909 40.072C114.269 40.4773 113.757 41.0427 113.373 41.768C113.01 42.4933 112.829 43.3253 112.829 44.264C112.829 45.2027 113.01 46.0347 113.373 46.76C113.757 47.4853 114.269 48.0507 114.909 48.456C115.57 48.8613 116.317 49.064 117.149 49.064C118.109 49.064 118.941 48.808 119.645 48.296C120.349 47.784 120.85 47.0907 121.149 46.216L125.309 48.04C124.989 49.064 124.434 49.9813 123.645 50.792C122.855 51.6027 121.906 52.2427 120.797 52.712C119.687 53.16 118.471 53.384 117.149 53.384ZM136.711 53.384C134.962 53.384 133.383 52.9893 131.975 52.2C130.588 51.3893 129.479 50.2907 128.647 48.904C127.836 47.5173 127.431 45.96 127.431 44.232C127.431 42.504 127.836 40.9573 128.647 39.592C129.458 38.2053 130.567 37.1173 131.975 36.328C133.383 35.5387 134.962 35.144 136.711 35.144C138.012 35.144 139.218 35.368 140.327 35.816C141.436 36.264 142.386 36.8933 143.175 37.704C143.964 38.4933 144.53 39.432 144.871 40.52L140.711 42.312C140.412 41.4373 139.9 40.744 139.175 40.232C138.471 39.72 137.65 39.464 136.711 39.464C135.879 39.464 135.132 39.6667 134.471 40.072C133.831 40.4773 133.319 41.0427 132.935 41.768C132.572 42.4933 132.391 43.3253 132.391 44.264C132.391 45.2027 132.572 46.0347 132.935 46.76C133.319 47.4853 133.831 48.0507 134.471 48.456C135.132 48.8613 135.879 49.064 136.711 49.064C137.671 49.064 138.503 48.808 139.207 48.296C139.911 47.784 140.412 47.0907 140.711 46.216L144.871 48.04C144.551 49.064 143.996 49.9813 143.207 50.792C142.418 51.6027 141.468 52.2427 140.359 52.712C139.25 53.16 138.034 53.384 136.711 53.384ZM153.97 53.384C152.562 53.384 151.356 53.0853 150.354 52.488C149.372 51.8693 148.626 51.016 148.114 49.928C147.602 48.84 147.346 47.5707 147.346 46.12V35.528H152.146V45.736C152.146 46.3973 152.274 46.984 152.53 47.496C152.807 47.9867 153.191 48.3707 153.682 48.648C154.172 48.9253 154.727 49.064 155.345 49.064C155.986 49.064 156.54 48.9253 157.01 48.648C157.5 48.3707 157.874 47.9867 158.13 47.496C158.407 46.984 158.546 46.3973 158.546 45.736V35.528H163.346V53H158.866V49.544L159.122 50.312C158.716 51.3573 158.055 52.136 157.138 52.648C156.242 53.1387 155.186 53.384 153.97 53.384ZM175.27 53.384C173.414 53.384 171.803 52.9787 170.438 52.168C169.072 51.336 168.016 50.2267 167.27 48.84C166.523 47.4533 166.15 45.9173 166.15 44.232C166.15 42.4827 166.534 40.9253 167.302 39.56C168.091 38.1947 169.147 37.1173 170.47 36.328C171.792 35.5387 173.286 35.144 174.95 35.144C176.336 35.144 177.563 35.368 178.63 35.816C179.696 36.2427 180.592 36.8507 181.318 37.64C182.064 38.4293 182.63 39.3467 183.014 40.392C183.398 41.416 183.59 42.536 183.59 43.752C183.59 44.0933 183.568 44.4347 183.526 44.776C183.504 45.096 183.451 45.3733 183.366 45.608H170.278V42.088H180.646L178.374 43.752C178.587 42.8347 178.576 42.024 178.342 41.32C178.107 40.5947 177.691 40.0293 177.094 39.624C176.518 39.1973 175.803 38.984 174.95 38.984C174.118 38.984 173.403 39.1867 172.806 39.592C172.208 39.9973 171.76 40.5947 171.462 41.384C171.163 42.1733 171.046 43.1333 171.11 44.264C171.024 45.2453 171.142 46.1093 171.462 46.856C171.782 47.6027 172.272 48.1893 172.934 48.616C173.595 49.0213 174.395 49.224 175.334 49.224C176.187 49.224 176.912 49.0533 177.51 48.712C178.128 48.3707 178.608 47.9013 178.95 47.304L182.79 49.128C182.448 49.9813 181.904 50.728 181.158 51.368C180.432 52.008 179.568 52.5093 178.566 52.872C177.563 53.2133 176.464 53.384 175.27 53.384ZM186.416 53V35.528H191.216V53H186.416ZM186.416 33.96V29.16H191.216V33.96H186.416ZM194.729 53V28.776H199.529V53H194.729Z" fill="#23BAD8"/>
</g>
<defs>
<clipPath id="clip0_950_1094">
<rect width="118" height="40" fill="white" transform="translate(84 20)"/>
</clipPath>
</defs>
</svg>