<svg width="21" height="21" viewBox="0 0 21 21" fill="none" xmlns="http://www.w3.org/2000/svg">
<path d="M9.375 1.25C9.56753 1.25 9.70547 1.31 9.82324 1.42773C9.94096 1.54546 10.0005 1.68295 10 1.87402C9.9995 2.06633 9.93962 2.20604 9.82129 2.3252C9.73404 2.413 9.63525 2.4676 9.51074 2.48926L9.37695 2.5H2.125V19.25H9.375C9.56753 19.25 9.70548 19.31 9.82324 19.4277C9.94096 19.5455 10.0005 19.6829 10 19.874C9.9995 20.0663 9.93962 20.206 9.82129 20.3252C9.73404 20.413 9.63525 20.4676 9.51074 20.4893L9.37695 20.5H2.625C2.13979 20.5 1.73679 20.3335 1.38965 19.9863C1.08588 19.6825 0.919934 19.3355 0.882812 18.9277L0.875 18.749V3C0.875 2.51515 1.04198 2.11279 1.38965 1.76562C1.6943 1.4615 2.04093 1.29501 2.44727 1.25781L2.62598 1.25H9.375ZM15.0156 6.24121C15.1509 6.23713 15.2624 6.267 15.3633 6.33594L15.4619 6.41895L19.4844 10.4414C19.6216 10.5788 19.6748 10.7164 19.6748 10.875C19.6748 10.9939 19.6451 11.101 19.5723 11.2051L19.4844 11.3086L15.4619 15.3311C15.3311 15.4618 15.1961 15.5136 15.0293 15.5088C14.8552 15.5037 14.7101 15.4428 14.5732 15.3086C14.4624 15.1837 14.4124 15.0471 14.418 14.8711C14.424 14.6802 14.485 14.5451 14.5957 14.4336L14.5947 14.4326L16.6758 12.3535L17.5293 11.5H8.25C8.05745 11.5 7.91953 11.4404 7.80273 11.3232C7.68506 11.2051 7.6255 11.0662 7.625 10.874C7.62455 10.6835 7.6835 10.5456 7.80176 10.4277C7.92099 10.309 8.0597 10.25 8.25 10.25H17.5293L14.5664 7.28711C14.4569 7.17758 14.4033 7.05248 14.4033 6.88086C14.4034 6.70854 14.4578 6.5661 14.5811 6.43164C14.6917 6.31091 14.8249 6.24704 15.0156 6.24121Z" fill="black" stroke="black"/>
</svg>
