<svg width="299" height="33" viewBox="0 0 299 33" fill="none" xmlns="http://www.w3.org/2000/svg">
<path d="M20.0074 13.219C20.3513 13.0727 20.5696 12.7408 20.5652 12.3674V12.3369C20.5652 10.566 21.8042 9.06378 23.5636 8.74717C25.8984 8.32794 27.9378 10.0988 27.9378 12.3369V12.3653C27.9334 12.7386 28.1516 13.0727 28.4978 13.219C31.7123 14.5772 34.1419 17.431 34.8782 20.8919C38.7938 18.9136 42.7094 16.9354 46.6272 14.9571C47.4253 14.5531 47.8222 13.7867 47.8222 13.0225C47.8222 12.4286 47.584 11.8347 47.1012 11.4111H47.099C46.9601 11.2866 46.8036 11.1796 46.625 11.0901L35.8902 5.66186L35.5727 5.50247L32.8411 4.12248L31.397 3.391L25.1554 0.238003C24.8445 0.0807902 24.5028 0 24.1611 0C23.8193 0 23.4776 0.0807902 23.1667 0.238003L12.4342 5.66186L1.69716 11.0879C0.899055 11.4919 0.5 12.2561 0.5 13.0225C0.5 13.2409 0.533071 13.4592 0.597008 13.6688C0.760157 14.1951 1.12614 14.6689 1.69716 14.9571L2.97811 15.6034L3.85118 16.0445V20.9771C3.36834 21.1932 3.03102 21.6758 3.03102 22.2391C3.03102 22.6955 3.2537 23.1038 3.60204 23.3505L2.99354 28.6325C2.91417 29.3246 3.63952 29.8967 4.43102 29.8967C5.22251 29.8967 5.95007 29.3268 5.8707 28.6325L5.25999 23.3505C5.60614 23.1016 5.83102 22.6955 5.83102 22.2391C5.83102 21.6933 5.51354 21.2216 5.04834 20.9967V16.6493C7.51102 17.8939 9.9759 19.1385 12.4364 20.3831L13.6071 20.9749C14.3236 17.4769 16.7598 14.5903 20.0074 13.219Z" fill="url(#paint0_linear_80_46408)"/>
<path d="M24.377 13.9978C25.4101 13.9978 26.2629 13.2306 26.3978 12.2339C26.4105 12.1428 26.416 12.0517 26.416 11.9587C26.416 10.8326 25.5031 9.91968 24.377 9.91968C23.2508 9.91968 22.3379 10.8326 22.3379 11.9587C22.3379 12.0517 22.3434 12.1446 22.3561 12.2321C22.4891 13.2288 23.3438 13.9978 24.377 13.9978Z" fill="url(#paint1_linear_80_46408)"/>
<path d="M24.2891 14.9536C29.169 14.9536 33.125 18.9096 33.125 23.7896C33.125 28.6695 29.169 32.6255 24.2891 32.6255C19.4091 32.6255 15.4532 28.6695 15.4531 23.7896C15.4531 18.9096 19.4091 14.9536 24.2891 14.9536Z" fill="url(#paint2_linear_80_46408)"/>
<path d="M28.1464 19.6252C28.1464 21.6331 28.1464 23.6409 28.1464 25.7096C27.8726 25.7389 27.8726 25.7389 27.5933 25.7688C26.3604 25.9913 25.1752 26.5915 24.3653 27.5673C24.3399 27.5962 24.3399 27.5962 24.314 27.6257C24.301 27.6257 24.288 27.6257 24.2745 27.6257C24.27 26.8956 24.2665 26.1655 24.2644 25.4353C24.2642 25.349 24.2639 25.2628 24.2637 25.1765C24.2636 25.1507 24.2636 25.1507 24.2635 25.1244C24.2627 24.8466 24.2611 24.5688 24.2593 24.2911C24.2574 24.0058 24.2563 23.7206 24.2559 23.4354C24.2557 23.2595 24.2548 23.0836 24.2532 22.9078C24.2522 22.787 24.2519 22.6662 24.2521 22.5455C24.2522 22.4759 24.2521 22.4063 24.251 22.3368C24.2444 21.832 24.2444 21.832 24.4212 21.6324C24.438 21.6154 24.4548 21.5984 24.4721 21.5809C24.5012 21.5446 24.5301 21.508 24.5585 21.471C24.6633 21.3453 24.7743 21.2254 24.8869 21.1068C24.9024 21.0905 24.9179 21.0741 24.9339 21.0573C25.0426 20.9457 25.1603 20.8482 25.282 20.7512C25.2969 20.7387 25.3118 20.7262 25.3272 20.7133C26.0774 20.0894 27.1612 19.6252 28.1464 19.6252Z" fill="white"/>
<path d="M19.988 19.6252C20.0228 19.629 20.0577 19.6327 20.0926 19.6364C20.112 19.6385 20.1315 19.6406 20.1515 19.6427C21.0259 19.7378 21.857 20.0452 22.5758 20.5537C22.5884 20.5626 22.6011 20.5715 22.6142 20.5807C22.8288 20.7327 23.0199 20.9034 23.2079 21.0871C23.23 21.1084 23.2521 21.1297 23.2742 21.151C23.3813 21.2551 23.484 21.3619 23.5746 21.481C23.6219 21.5425 23.6219 21.5425 23.678 21.5973C23.8876 21.8213 23.8702 22.0691 23.8653 22.3615C23.8643 22.4323 23.8646 22.5031 23.8648 22.5739C23.8649 22.6963 23.8642 22.8186 23.863 22.941C23.8612 23.1179 23.8607 23.2948 23.8604 23.4717C23.8599 23.7588 23.8585 24.0459 23.8564 24.333C23.8544 24.6117 23.8529 24.8904 23.852 25.1691C23.8519 25.1863 23.8519 25.2035 23.8518 25.2213C23.8515 25.3076 23.8512 25.394 23.851 25.4803C23.8487 26.1955 23.8449 26.9106 23.84 27.6257C23.7662 27.6011 23.7501 27.5722 23.703 27.5109C23.5567 27.3277 23.3889 27.1624 23.2079 27.0133C23.1976 27.0049 23.1874 26.9965 23.1768 26.9878C22.7946 26.6743 22.3926 26.4126 21.9436 26.2034C21.9285 26.1964 21.9134 26.1893 21.8979 26.182C21.3713 25.9384 20.8162 25.7927 20.2396 25.7365C20.2131 25.7338 20.1866 25.7312 20.1601 25.7285C20.0961 25.7221 20.0322 25.7158 19.9682 25.7096C19.9677 25.0115 19.9674 24.3134 19.9672 23.6153C19.9672 23.5326 19.9671 23.4499 19.9671 23.3672C19.9671 23.3508 19.9671 23.3343 19.9671 23.3174C19.967 23.052 19.9669 22.7865 19.9667 22.5211C19.9665 22.2482 19.9664 21.9752 19.9663 21.7022C19.9663 21.5342 19.9662 21.3662 19.9661 21.1982C19.966 21.0824 19.9659 20.9667 19.966 20.851C19.966 20.7846 19.9659 20.7181 19.9658 20.6517C19.9654 20.3091 19.9727 19.9675 19.988 19.6252Z" fill="white"/>
<path d="M28.6006 20.9883C28.7791 21.017 28.9391 21.0718 29.1142 21.1266C29.1142 23.18 29.1142 25.2335 29.1142 27.3492C28.8724 27.3052 28.8724 27.3052 28.785 27.2863C28.3851 27.2017 27.9823 27.1449 27.5734 27.1319C27.5486 27.1311 27.5239 27.1302 27.4984 27.1294C26.7211 27.1171 25.9335 27.2391 25.2053 27.512C25.1753 27.5231 25.1753 27.5231 25.1448 27.5344C25.1273 27.541 25.1099 27.5477 25.0919 27.5546C25.0411 27.5674 25.0146 27.5641 24.9658 27.5467C25.0969 27.4105 25.2321 27.2882 25.3807 27.1714C25.3999 27.1557 25.4192 27.1401 25.439 27.124C25.9783 26.6944 26.6272 26.3981 27.2968 26.2429C27.3216 26.2372 27.3216 26.2372 27.3469 26.2313C27.6253 26.1691 27.9063 26.1456 28.1904 26.1269C28.205 26.1258 28.2196 26.1248 28.2347 26.1237C28.2748 26.1208 28.3149 26.1182 28.355 26.1156C28.4278 26.1038 28.4655 26.0929 28.5216 26.0454C28.584 25.9303 28.5894 25.8331 28.5887 25.7037C28.5889 25.6835 28.589 25.6633 28.5891 25.6425C28.5895 25.575 28.5894 25.5074 28.5894 25.4399C28.5896 25.3914 28.5898 25.3429 28.59 25.2944C28.5904 25.1901 28.5907 25.0858 28.5908 24.9815C28.5909 24.8307 28.5914 24.6799 28.5919 24.5291C28.5927 24.2845 28.5933 24.0398 28.5938 23.7951C28.5942 23.5575 28.5947 23.3199 28.5954 23.0822C28.5955 23.0676 28.5955 23.0529 28.5956 23.0378C28.5958 22.9643 28.596 22.8908 28.5962 22.8172C28.5981 22.2076 28.5995 21.5979 28.6006 20.9883Z" fill="white"/>
<path d="M19.5136 20.9685C19.5137 20.9938 19.5137 21.0192 19.5138 21.0452C19.5149 21.6465 19.5163 22.2477 19.5181 22.8489C19.5184 22.9229 19.5186 22.9969 19.5188 23.0709C19.5188 23.0856 19.5189 23.1004 19.5189 23.1155C19.5196 23.3541 19.5201 23.5926 19.5205 23.8311C19.521 24.0759 19.5216 24.3207 19.5225 24.5654C19.523 24.7165 19.5233 24.8675 19.5235 25.0185C19.5236 25.1343 19.524 25.2501 19.5246 25.366C19.5247 25.4135 19.5248 25.461 19.5248 25.5085C19.5247 25.5733 19.5251 25.6381 19.5255 25.703C19.5254 25.7218 19.5253 25.7406 19.5252 25.76C19.5264 25.87 19.5396 25.9482 19.5926 26.0454C19.6993 26.1306 19.8447 26.1173 19.9754 26.1231C21.1388 26.1898 22.1809 26.6492 23.0435 27.4269C23.0539 27.4363 23.0644 27.4456 23.0752 27.4552C23.1004 27.4783 23.1245 27.5025 23.1484 27.5269C23.1484 27.54 23.1484 27.553 23.1484 27.5664C23.0498 27.5374 22.9514 27.5077 22.8539 27.4753C21.6555 27.0782 20.3376 26.9968 19.1134 27.3353C19.0593 27.3491 19.0593 27.3491 19 27.3491C19 25.2957 19 23.2422 19 21.1265C19.4741 20.9685 19.4741 20.9685 19.5136 20.9685Z" fill="white"/>
<path d="M62.4923 7.28649V15.1502H71.0648V17.6815H62.4923V25.7815H72.0773V28.3127H59.421V4.75524H72.0773V7.28649H62.4923ZM75.577 18.9977C75.577 17.1077 75.9595 15.454 76.7245 14.0365C77.4895 12.5965 78.5357 11.4827 79.8632 10.6952C81.2132 9.90774 82.7207 9.51399 84.3857 9.51399C85.8257 9.51399 87.1645 9.85149 88.402 10.5265C89.6395 11.179 90.5845 12.0452 91.237 13.1252V3.33774H94.342V28.3127H91.237V24.8365C90.6295 25.939 89.7295 26.8502 88.537 27.5702C87.3445 28.2677 85.9495 28.6165 84.352 28.6165C82.7095 28.6165 81.2132 28.2115 79.8632 27.4015C78.5357 26.5915 77.4895 25.4552 76.7245 23.9927C75.9595 22.5302 75.577 20.8652 75.577 18.9977ZM91.237 19.0315C91.237 17.6365 90.9557 16.4215 90.3932 15.3865C89.8307 14.3515 89.0657 13.564 88.0982 13.024C87.1532 12.4615 86.107 12.1802 84.9595 12.1802C83.812 12.1802 82.7657 12.4502 81.8207 12.9902C80.8757 13.5302 80.122 14.3177 79.5595 15.3527C78.997 16.3877 78.7157 17.6027 78.7157 18.9977C78.7157 20.4152 78.997 21.6527 79.5595 22.7102C80.122 23.7452 80.8757 24.544 81.8207 25.1065C82.7657 25.6465 83.812 25.9165 84.9595 25.9165C86.107 25.9165 87.1532 25.6465 88.0982 25.1065C89.0657 24.544 89.8307 23.7452 90.3932 22.7102C90.9557 21.6527 91.237 20.4265 91.237 19.0315ZM115.935 9.81774V28.3127H112.863V25.579C112.278 26.524 111.457 27.2665 110.4 27.8065C109.365 28.324 108.217 28.5827 106.957 28.5827C105.517 28.5827 104.223 28.2902 103.076 27.7052C101.928 27.0977 101.017 26.1977 100.342 25.0052C99.6896 23.8127 99.3633 22.3615 99.3633 20.6515V9.81774H102.401V20.2465C102.401 22.069 102.862 23.4752 103.785 24.4652C104.707 25.4327 105.967 25.9165 107.565 25.9165C109.207 25.9165 110.501 25.4102 111.446 24.3977C112.391 23.3852 112.863 21.9115 112.863 19.9765V9.81774H115.935ZM124.191 3.33774V28.3127H121.12V3.33774H124.191ZM151.667 9.48024C153.107 9.48024 154.39 9.78399 155.515 10.3915C156.64 10.9765 157.528 11.8652 158.181 13.0577C158.833 14.2502 159.16 15.7015 159.16 17.4115V28.3127H156.122V17.8502C156.122 16.0052 155.661 14.599 154.738 13.6315C153.838 12.6415 152.612 12.1465 151.06 12.1465C149.462 12.1465 148.191 12.664 147.246 13.699C146.301 14.7115 145.828 16.1852 145.828 18.1202V28.3127H142.791V17.8502C142.791 16.0052 142.33 14.599 141.407 13.6315C140.507 12.6415 139.281 12.1465 137.728 12.1465C136.131 12.1465 134.86 12.664 133.915 13.699C132.97 14.7115 132.497 16.1852 132.497 18.1202V28.3127H129.426V9.81774H132.497V12.484C133.105 11.5165 133.915 10.774 134.927 10.2565C135.962 9.73899 137.098 9.48024 138.336 9.48024C139.888 9.48024 141.261 9.82899 142.453 10.5265C143.646 11.224 144.535 12.2477 145.12 13.5977C145.637 12.2927 146.492 11.2802 147.685 10.5602C148.877 9.84024 150.205 9.48024 151.667 9.48024ZM189.611 4.75524V28.3127H184.886V12.9902L178.575 28.3127H174.998L168.653 12.9902V28.3127H163.928V4.75524H169.294L176.786 22.2715L184.279 4.75524H189.611ZM211.664 18.559C211.664 19.234 211.619 19.8415 211.529 20.3815H197.86C197.973 21.7315 198.445 22.789 199.278 23.554C200.11 24.319 201.134 24.7015 202.349 24.7015C204.104 24.7015 205.353 23.9477 206.095 22.4402H211.192C210.652 24.2402 209.617 25.7252 208.087 26.8952C206.557 28.0427 204.678 28.6165 202.45 28.6165C200.65 28.6165 199.03 28.2227 197.59 27.4352C196.173 26.6252 195.059 25.489 194.249 24.0265C193.462 22.564 193.068 20.8765 193.068 18.964C193.068 17.029 193.462 15.3302 194.249 13.8677C195.037 12.4052 196.139 11.2802 197.557 10.4927C198.974 9.70524 200.605 9.31149 202.45 9.31149C204.228 9.31149 205.814 9.69399 207.209 10.459C208.627 11.224 209.718 12.3152 210.483 13.7327C211.27 15.1277 211.664 16.7365 211.664 18.559ZM206.77 17.209C206.748 15.994 206.309 15.0265 205.454 14.3065C204.599 13.564 203.553 13.1927 202.315 13.1927C201.145 13.1927 200.155 13.5527 199.345 14.2727C198.558 14.9702 198.074 15.949 197.894 17.209H206.77ZM219.838 12.5177C220.445 11.5277 221.233 10.7515 222.2 10.189C223.19 9.62649 224.315 9.34524 225.575 9.34524V14.3065H224.327C222.842 14.3065 221.717 14.6552 220.952 15.3527C220.209 16.0502 219.838 17.2652 219.838 18.9977V28.3127H215.113V9.61524H219.838V12.5177ZM235.913 28.6165C234.383 28.6165 233.01 28.3465 231.795 27.8065C230.58 27.244 229.613 26.4902 228.893 25.5452C228.195 24.6002 227.813 23.554 227.745 22.4065H232.504C232.594 23.1265 232.943 23.7227 233.55 24.1952C234.18 24.6677 234.957 24.904 235.879 24.904C236.779 24.904 237.477 24.724 237.972 24.364C238.489 24.004 238.748 23.5427 238.748 22.9802C238.748 22.3727 238.433 21.9227 237.803 21.6302C237.195 21.3152 236.217 20.9777 234.867 20.6177C233.472 20.2802 232.324 19.9315 231.424 19.5715C230.547 19.2115 229.782 18.6602 229.129 17.9177C228.499 17.1752 228.184 16.174 228.184 14.914C228.184 13.879 228.477 12.934 229.062 12.079C229.669 11.224 230.524 10.549 231.627 10.054C232.752 9.55899 234.068 9.31149 235.575 9.31149C237.803 9.31149 239.58 9.87399 240.908 10.999C242.235 12.1015 242.967 13.5977 243.102 15.4877H238.579C238.512 14.7452 238.197 14.1602 237.634 13.7327C237.094 13.2827 236.363 13.0577 235.44 13.0577C234.585 13.0577 233.922 13.2152 233.449 13.5302C232.999 13.8452 232.774 14.284 232.774 14.8465C232.774 15.4765 233.089 15.9602 233.719 16.2977C234.349 16.6127 235.328 16.939 236.655 17.2765C238.005 17.614 239.119 17.9627 239.997 18.3227C240.874 18.6827 241.628 19.2452 242.258 20.0102C242.91 20.7527 243.248 21.7427 243.27 22.9802C243.27 24.0602 242.967 25.0277 242.359 25.8827C241.774 26.7377 240.919 27.4127 239.794 27.9077C238.692 28.3802 237.398 28.6165 235.913 28.6165ZM249.545 7.38774C248.713 7.38774 248.015 7.12899 247.453 6.61149C246.913 6.07149 246.643 5.40774 246.643 4.62024C246.643 3.83274 246.913 3.18024 247.453 2.66274C248.015 2.12274 248.713 1.85274 249.545 1.85274C250.378 1.85274 251.064 2.12274 251.604 2.66274C252.167 3.18024 252.448 3.83274 252.448 4.62024C252.448 5.40774 252.167 6.07149 251.604 6.61149C251.064 7.12899 250.378 7.38774 249.545 7.38774ZM251.874 9.61524V28.3127H247.149V9.61524H251.874ZM264.845 28.6165C263.045 28.6165 261.425 28.2227 259.985 27.4352C258.545 26.6252 257.409 25.489 256.576 24.0265C255.766 22.564 255.361 20.8765 255.361 18.964C255.361 17.0515 255.777 15.364 256.61 13.9015C257.465 12.439 258.624 11.314 260.086 10.5265C261.549 9.71649 263.18 9.31149 264.98 9.31149C266.78 9.31149 268.411 9.71649 269.874 10.5265C271.336 11.314 272.484 12.439 273.316 13.9015C274.171 15.364 274.599 17.0515 274.599 18.964C274.599 20.8765 274.16 22.564 273.282 24.0265C272.427 25.489 271.257 26.6252 269.772 27.4352C268.31 28.2227 266.667 28.6165 264.845 28.6165ZM264.845 24.499C265.7 24.499 266.499 24.2965 267.241 23.8915C268.006 23.464 268.614 22.834 269.064 22.0015C269.514 21.169 269.739 20.1565 269.739 18.964C269.739 17.1865 269.266 15.8252 268.321 14.8802C267.399 13.9127 266.262 13.429 264.912 13.429C263.562 13.429 262.426 13.9127 261.504 14.8802C260.604 15.8252 260.154 17.1865 260.154 18.964C260.154 20.7415 260.592 22.114 261.47 23.0815C262.37 24.0265 263.495 24.499 264.845 24.499ZM288.426 9.34524C290.653 9.34524 292.453 10.054 293.826 11.4715C295.198 12.8665 295.885 14.824 295.885 17.344V28.3127H291.16V17.9852C291.16 16.5002 290.788 15.364 290.046 14.5765C289.303 13.7665 288.291 13.3615 287.008 13.3615C285.703 13.3615 284.668 13.7665 283.903 14.5765C283.161 15.364 282.79 16.5002 282.79 17.9852V28.3127H278.065V9.61524H282.79V11.944C283.42 11.134 284.218 10.504 285.186 10.054C286.176 9.58149 287.256 9.34524 288.426 9.34524Z" fill="black"/>
<defs>
<linearGradient id="paint0_linear_80_46408" x1="4.35657" y1="28.435" x2="47.0519" y2="-5.43712" gradientUnits="userSpaceOnUse">
<stop stop-color="#0463EF"/>
<stop offset="1" stop-color="#16EA9E"/>
</linearGradient>
<linearGradient id="paint1_linear_80_46408" x1="7.76151" y1="25.0137" x2="43.3124" y2="-2.91915" gradientUnits="userSpaceOnUse">
<stop stop-color="#0463EF"/>
<stop offset="1" stop-color="#16EA9E"/>
</linearGradient>
<linearGradient id="paint2_linear_80_46408" x1="15.4531" y1="32.6255" x2="42.8325" y2="24.161" gradientUnits="userSpaceOnUse">
<stop stop-color="#0463EF"/>
<stop offset="1" stop-color="#16EA9E"/>
</linearGradient>
</defs>
</svg>
