<svg width="356" height="136" viewBox="0 0 356 136" fill="none" xmlns="http://www.w3.org/2000/svg">
<path d="M168.539 32.4416C169.359 32.093 169.879 31.302 169.868 30.4121V30.3393C169.868 26.119 172.821 22.5388 177.014 21.7843C182.578 20.7852 187.439 25.0054 187.439 30.3393V30.4069C187.428 31.2968 187.948 32.093 188.773 32.4416C196.434 35.6783 202.224 42.4797 203.979 50.7276C213.311 46.013 222.642 41.2984 231.979 36.5838C233.881 35.6211 234.827 33.7946 234.827 31.9733C234.827 30.5578 234.26 29.1424 233.109 28.1329H233.104C232.773 27.8363 232.4 27.5813 231.974 27.3679L206.391 14.4314L205.634 14.0515L199.124 10.7627L195.683 9.01944L180.808 1.5052C180.067 1.13053 179.252 0.937988 178.438 0.937988C177.624 0.937988 176.809 1.13053 176.068 1.5052L150.49 14.4314L124.902 27.3627C123 28.3254 122.049 30.1467 122.049 31.9733C122.049 32.4936 122.128 33.014 122.28 33.5136C122.669 34.7677 123.541 35.8969 124.902 36.5838L127.955 38.1241L130.035 39.1753V50.9306C128.885 51.4458 128.081 52.5958 128.081 53.9384C128.081 55.026 128.611 55.9991 129.442 56.5871L127.991 69.175C127.802 70.8246 129.531 72.188 131.417 72.188C133.304 72.188 135.037 70.8298 134.848 69.175L133.393 56.5871C134.218 55.9939 134.754 55.026 134.754 53.9384C134.754 52.6374 133.997 51.5134 132.888 50.9774V40.6167C138.758 43.5829 144.632 46.549 150.496 49.5152L153.286 50.9254C154.993 42.589 160.799 35.7096 168.539 32.4416Z" fill="url(#paint0_linear_585_13698)"/>
<path d="M178.951 34.2971C181.414 34.2971 183.446 32.4688 183.767 30.0934C183.798 29.8762 183.811 29.6591 183.811 29.4376C183.811 26.7538 181.635 24.5781 178.951 24.5781C176.267 24.5781 174.092 26.7538 174.092 29.4376C174.092 29.6591 174.105 29.8806 174.135 30.089C174.452 32.4645 176.489 34.2971 178.951 34.2971Z" fill="url(#paint1_linear_585_13698)"/>
<path d="M178.741 36.5747C190.371 36.5747 199.799 46.0025 199.799 57.6323C199.799 69.2622 190.371 78.6899 178.741 78.6899C167.111 78.6899 157.684 69.2622 157.684 57.6323C157.684 46.0025 167.111 36.5747 178.741 36.5747Z" fill="url(#paint2_linear_585_13698)"/>
<path d="M190.007 47C190.007 52.2702 190.007 57.5404 190.007 62.9704C189.289 63.0474 189.289 63.0474 188.555 63.1259C185.319 63.7098 182.208 65.2853 180.083 67.8467C180.016 67.9226 180.016 67.9226 179.948 68C179.914 68 179.88 68 179.844 68C179.832 66.0835 179.823 64.1671 179.818 62.2505C179.817 62.024 179.817 61.7976 179.816 61.5711C179.816 61.5034 179.816 61.5034 179.815 61.4344C179.813 60.7053 179.809 59.9762 179.804 59.247C179.799 58.4983 179.797 57.7496 179.796 57.0009C179.795 56.5393 179.793 56.0777 179.788 55.6161C179.786 55.2991 179.785 54.9821 179.785 54.6651C179.786 54.4825 179.785 54.2999 179.782 54.1173C179.765 52.7924 179.765 52.7924 180.229 52.2685C180.273 52.2239 180.317 52.1793 180.363 52.1333C180.439 52.0379 180.515 51.9418 180.59 51.8449C180.865 51.5149 181.156 51.2003 181.452 50.8889C181.492 50.846 181.533 50.8031 181.575 50.7589C181.86 50.4659 182.169 50.2101 182.489 49.9556C182.528 49.9227 182.567 49.8898 182.607 49.8559C184.576 48.2184 187.421 47 190.007 47Z" fill="white"/>
<path d="M168.593 47C168.685 47.0098 168.776 47.0196 168.868 47.0294C168.919 47.0348 168.97 47.0403 169.022 47.0459C171.318 47.2954 173.499 48.1022 175.386 49.437C175.419 49.4604 175.452 49.4838 175.487 49.5079C176.05 49.9069 176.552 50.355 177.045 50.837C177.103 50.8929 177.161 50.9488 177.219 51.0047C177.5 51.2782 177.77 51.5584 178.008 51.8711C178.132 52.0325 178.132 52.0325 178.279 52.1764C178.829 52.7644 178.783 53.4147 178.771 54.1821C178.768 54.368 178.769 54.5538 178.769 54.7397C178.77 55.0609 178.768 55.3821 178.765 55.7032C178.76 56.1676 178.759 56.6319 178.758 57.0963C178.757 57.8499 178.753 58.6035 178.747 59.3571C178.742 60.0886 178.738 60.8202 178.736 61.5517C178.736 61.5969 178.735 61.6421 178.735 61.6886C178.734 61.9153 178.734 62.142 178.733 62.3686C178.727 64.2458 178.717 66.1229 178.704 68C178.511 67.9354 178.468 67.8594 178.345 67.6986C177.961 67.2177 177.52 66.7838 177.045 66.3926C177.018 66.3704 176.991 66.3483 176.964 66.3254C175.96 65.5025 174.905 64.8157 173.727 64.2667C173.687 64.2481 173.647 64.2295 173.606 64.2104C172.224 63.571 170.767 63.1885 169.254 63.0411C169.184 63.0341 169.115 63.0271 169.045 63.0201C168.877 63.0033 168.709 62.9867 168.541 62.9704C168.54 61.138 168.539 59.3057 168.539 57.4733C168.539 57.2563 168.539 57.0392 168.539 56.8221C168.539 56.7789 168.539 56.7357 168.539 56.6912C168.538 55.9946 168.538 55.2979 168.537 54.6013C168.537 53.8847 168.537 53.1682 168.537 52.4516C168.536 52.0106 168.536 51.5696 168.536 51.1286C168.536 50.8249 168.535 50.5212 168.536 50.2175C168.536 50.0431 168.535 49.8687 168.535 49.6943C168.534 48.795 168.553 47.8984 168.593 47Z" fill="white"/>
<path d="M191.199 50.5776C191.667 50.6531 192.087 50.7969 192.547 50.9406C192.547 56.3306 192.547 61.7206 192.547 67.2739C191.912 67.1585 191.912 67.1585 191.683 67.1089C190.633 66.8867 189.576 66.7378 188.503 66.7036C188.438 66.7014 188.373 66.6993 188.306 66.6971C186.266 66.6648 184.198 66.985 182.287 67.7013C182.208 67.7304 182.208 67.7304 182.128 67.76C182.082 67.7776 182.036 67.7951 181.989 67.8131C181.856 67.8468 181.786 67.8382 181.658 67.7925C182.002 67.435 182.357 67.114 182.747 66.8073C182.798 66.7662 182.848 66.7252 182.9 66.6829C184.316 65.5553 186.019 64.7774 187.777 64.3702C187.842 64.3551 187.842 64.3551 187.908 64.3397C188.639 64.1763 189.377 64.1149 190.122 64.0657C190.161 64.0629 190.199 64.0601 190.238 64.0572C190.344 64.0497 190.449 64.0428 190.554 64.0359C190.745 64.0052 190.844 63.9765 190.992 63.8517C191.155 63.5497 191.17 63.2944 191.168 62.9549C191.168 62.9019 191.168 62.8489 191.169 62.7942C191.17 62.6169 191.17 62.4396 191.17 62.2623C191.17 62.1351 191.171 62.0078 191.171 61.8806C191.172 61.6068 191.173 61.3331 191.173 61.0593C191.173 60.6635 191.175 60.2677 191.176 59.8718C191.178 59.2296 191.18 58.5874 191.181 57.9451C191.182 57.3214 191.183 56.6977 191.185 56.0739C191.185 56.0354 191.186 55.997 191.186 55.9573C191.186 55.7643 191.187 55.5713 191.187 55.3783C191.192 53.7781 191.196 52.1779 191.199 50.5776Z" fill="white"/>
<path d="M167.348 50.5259C167.348 50.5924 167.348 50.6588 167.349 50.7273C167.351 52.3054 167.355 53.8835 167.36 55.4616C167.361 55.6558 167.361 55.8501 167.362 56.0443C167.362 56.083 167.362 56.1217 167.362 56.1615C167.364 56.7876 167.365 57.4137 167.366 58.0398C167.367 58.6823 167.369 59.3248 167.371 59.9672C167.373 60.3636 167.374 60.76 167.374 61.1565C167.374 61.4605 167.375 61.7645 167.377 62.0685C167.377 62.1932 167.378 62.3179 167.377 62.4426C167.377 62.6127 167.378 62.7829 167.379 62.9531C167.379 63.0025 167.379 63.0518 167.379 63.1027C167.382 63.3916 167.416 63.5968 167.556 63.8518C167.836 64.0756 168.217 64.0407 168.56 64.056C171.614 64.2309 174.349 65.4369 176.613 67.4782C176.641 67.5027 176.668 67.5273 176.697 67.5525C176.763 67.6131 176.826 67.6766 176.889 67.7407C176.889 67.7749 176.889 67.8091 176.889 67.8444C176.63 67.7682 176.372 67.6903 176.116 67.6052C172.97 66.5628 169.511 66.3492 166.298 67.2378C166.156 67.274 166.156 67.274 166 67.274C166 61.884 166 56.494 166 50.9407C167.244 50.5259 167.244 50.5259 167.348 50.5259Z" fill="white"/>
<path d="M8.41615 103.131V116.143H21.6284V119.035H8.41615V132.247H23.1242V135.139H4.92611V100.239H23.1242V103.131H8.41615ZM28.4056 121.478C28.4056 118.686 28.9706 116.243 30.1007 114.149C31.2308 112.022 32.7764 110.393 34.7375 109.263C36.7318 108.1 38.9754 107.518 41.4683 107.518C43.8614 107.518 46.0219 108.1 47.9497 109.263C49.8776 110.426 51.2902 111.939 52.1876 113.8V98.2445H55.6777V135.139H52.1876V129.057C51.3567 130.951 49.9939 132.513 48.0993 133.743C46.2047 134.94 43.9778 135.538 41.4184 135.538C38.9255 135.538 36.6819 134.956 34.6876 133.793C32.7265 132.63 31.181 130.984 30.0509 128.857C28.954 126.73 28.4056 124.27 28.4056 121.478ZM52.1876 121.528C52.1876 119.334 51.7389 117.406 50.8415 115.745C49.9441 114.083 48.7142 112.803 47.152 111.905C45.6231 111.008 43.9279 110.559 42.0665 110.559C40.1387 110.559 38.4103 110.991 36.8814 111.856C35.3524 112.72 34.1392 113.983 33.2417 115.645C32.3775 117.274 31.9454 119.218 31.9454 121.478C31.9454 123.705 32.3775 125.666 33.2417 127.361C34.1392 129.023 35.3524 130.303 36.8814 131.2C38.4103 132.065 40.1387 132.497 42.0665 132.497C43.9279 132.497 45.6231 132.048 47.152 131.151C48.7142 130.253 49.9441 128.973 50.8415 127.312C51.7389 125.65 52.1876 123.722 52.1876 121.528ZM87.2278 107.917V135.139H83.7378V130.353C82.9401 132.048 81.7103 133.344 80.0483 134.242C78.3864 135.139 76.5251 135.588 74.4643 135.588C71.2069 135.588 68.5478 134.591 66.4871 132.596C64.4263 130.569 63.3959 127.644 63.3959 123.821V107.917H66.8361V123.423C66.8361 126.381 67.5673 128.641 69.0298 130.203C70.5255 131.765 72.5531 132.547 75.1124 132.547C77.7383 132.547 79.8323 131.716 81.3945 130.054C82.9567 128.392 83.7378 125.949 83.7378 122.725V107.917H87.2278ZM96.9407 102.782C96.2427 102.782 95.6444 102.532 95.1458 102.034C94.6473 101.535 94.398 100.92 94.398 100.189C94.398 99.4577 94.6473 98.8594 95.1458 98.3941C95.6444 97.8955 96.2427 97.6462 96.9407 97.6462C97.6387 97.6462 98.237 97.8955 98.7356 98.3941C99.2342 98.8594 99.4835 99.4577 99.4835 100.189C99.4835 100.92 99.2342 101.535 98.7356 102.034C98.237 102.532 97.6387 102.782 96.9407 102.782ZM98.6857 107.917V135.139H95.1957V107.917H98.6857ZM138.996 107.418C142.187 107.418 144.78 108.432 146.774 110.46C148.802 112.454 149.816 115.362 149.816 119.185V135.139H146.375V119.584C146.375 116.625 145.661 114.365 144.231 112.803C142.802 111.241 140.858 110.46 138.398 110.46C135.839 110.46 133.795 111.307 132.266 113.002C130.737 114.698 129.972 117.157 129.972 120.381V135.139H126.532V119.584C126.532 116.625 125.817 114.365 124.388 112.803C122.959 111.241 120.998 110.46 118.505 110.46C115.946 110.46 113.901 111.307 112.372 113.002C110.843 114.698 110.079 117.157 110.079 120.381V135.139H106.589V107.917H110.079V112.604C110.943 110.908 112.173 109.629 113.768 108.764C115.364 107.867 117.142 107.418 119.103 107.418C121.463 107.418 123.524 107.983 125.286 109.113C127.08 110.244 128.377 111.905 129.174 114.099C129.906 111.939 131.152 110.293 132.914 109.163C134.709 108 136.736 107.418 138.996 107.418ZM194.96 100.339V135.139H187.98V112.504L178.656 135.139H173.371L163.998 112.504V135.139H157.018V100.339H164.945L176.014 126.215L187.082 100.339H194.96ZM227.537 120.73C227.537 121.727 227.471 122.625 227.338 123.423H207.146C207.312 125.417 208.01 126.979 209.24 128.109C210.469 129.239 211.982 129.804 213.777 129.804C216.369 129.804 218.214 128.691 219.311 126.464H226.839C226.042 129.123 224.513 131.317 222.252 133.045C219.992 134.74 217.217 135.588 213.926 135.588C211.267 135.588 208.874 135.006 206.747 133.843C204.653 132.646 203.007 130.968 201.811 128.807C200.647 126.647 200.066 124.154 200.066 121.329C200.066 118.47 200.647 115.961 201.811 113.8C202.974 111.64 204.603 109.978 206.697 108.814C208.791 107.651 211.201 107.069 213.926 107.069C216.552 107.069 218.895 107.634 220.956 108.764C223.05 109.895 224.662 111.507 225.792 113.601C226.956 115.661 227.537 118.038 227.537 120.73ZM220.308 118.736C220.275 116.941 219.627 115.512 218.364 114.448C217.1 113.351 215.555 112.803 213.727 112.803C211.998 112.803 210.536 113.335 209.339 114.398C208.176 115.429 207.461 116.875 207.195 118.736H220.308ZM239.612 111.806C240.51 110.343 241.673 109.197 243.102 108.366C244.565 107.535 246.227 107.119 248.088 107.119V114.448H246.243C244.05 114.448 242.388 114.963 241.258 115.994C240.161 117.024 239.612 118.819 239.612 121.378V135.139H232.632V107.518H239.612V111.806ZM263.359 135.588C261.099 135.588 259.072 135.189 257.277 134.391C255.482 133.56 254.053 132.447 252.989 131.051C251.959 129.655 251.393 128.109 251.294 126.414H258.324C258.457 127.478 258.972 128.359 259.869 129.057C260.8 129.755 261.947 130.104 263.309 130.104C264.639 130.104 265.669 129.838 266.401 129.306C267.165 128.774 267.547 128.093 267.547 127.262C267.547 126.364 267.082 125.699 266.151 125.267C265.254 124.802 263.808 124.303 261.814 123.772C259.753 123.273 258.058 122.758 256.728 122.226C255.432 121.694 254.302 120.88 253.338 119.783C252.407 118.686 251.942 117.207 251.942 115.346C251.942 113.817 252.374 112.421 253.238 111.158C254.136 109.895 255.399 108.897 257.027 108.166C258.689 107.435 260.634 107.069 262.861 107.069C266.151 107.069 268.777 107.9 270.738 109.562C272.699 111.191 273.78 113.401 273.979 116.193H267.298C267.198 115.096 266.733 114.232 265.902 113.601C265.104 112.936 264.024 112.604 262.661 112.604C261.398 112.604 260.418 112.836 259.72 113.302C259.055 113.767 258.723 114.415 258.723 115.246C258.723 116.177 259.188 116.891 260.119 117.39C261.049 117.855 262.495 118.337 264.456 118.836C266.45 119.334 268.096 119.849 269.392 120.381C270.688 120.913 271.802 121.744 272.733 122.874C273.696 123.971 274.195 125.434 274.228 127.262C274.228 128.857 273.78 130.286 272.882 131.549C272.018 132.812 270.755 133.81 269.093 134.541C267.464 135.239 265.553 135.588 263.359 135.588ZM283.498 104.227C282.268 104.227 281.238 103.845 280.407 103.081C279.609 102.283 279.21 101.302 279.21 100.139C279.21 98.9758 279.609 98.0118 280.407 97.2474C281.238 96.4496 282.268 96.0508 283.498 96.0508C284.728 96.0508 285.741 96.4496 286.539 97.2474C287.37 98.0118 287.786 98.9758 287.786 100.139C287.786 101.302 287.37 102.283 286.539 103.081C285.741 103.845 284.728 104.227 283.498 104.227ZM286.938 107.518V135.139H279.958V107.518H286.938ZM306.099 135.588C303.44 135.588 301.047 135.006 298.92 133.843C296.793 132.646 295.114 130.968 293.884 128.807C292.688 126.647 292.089 124.154 292.089 121.329C292.089 118.503 292.704 116.01 293.934 113.85C295.197 111.689 296.909 110.028 299.069 108.864C301.23 107.668 303.64 107.069 306.299 107.069C308.958 107.069 311.368 107.668 313.528 108.864C315.689 110.028 317.384 111.689 318.614 113.85C319.877 116.01 320.508 118.503 320.508 121.329C320.508 124.154 319.86 126.647 318.564 128.807C317.301 130.968 315.572 132.646 313.379 133.843C311.218 135.006 308.792 135.588 306.099 135.588ZM306.099 129.505C307.362 129.505 308.542 129.206 309.639 128.608C310.769 127.976 311.667 127.046 312.332 125.816C312.996 124.586 313.329 123.09 313.329 121.329C313.329 118.703 312.631 116.692 311.235 115.296C309.872 113.867 308.193 113.152 306.199 113.152C304.205 113.152 302.526 113.867 301.163 115.296C299.834 116.692 299.169 118.703 299.169 121.329C299.169 123.954 299.817 125.982 301.114 127.411C302.443 128.807 304.105 129.505 306.099 129.505ZM340.935 107.119C344.225 107.119 346.884 108.166 348.912 110.26C350.939 112.321 351.953 115.213 351.953 118.935V135.139H344.973V119.883C344.973 117.689 344.425 116.01 343.328 114.847C342.231 113.651 340.735 113.052 338.841 113.052C336.913 113.052 335.384 113.651 334.254 114.847C333.157 116.01 332.608 117.689 332.608 119.883V135.139H325.628V107.518H332.608V110.958C333.539 109.762 334.719 108.831 336.148 108.166C337.611 107.468 339.206 107.119 340.935 107.119Z" fill="url(#paint3_linear_585_13698)"/>
<defs>
<linearGradient id="paint0_linear_585_13698" x1="131.24" y1="68.7044" x2="232.992" y2="-12.0198" gradientUnits="userSpaceOnUse">
<stop stop-color="#0463EF"/>
<stop offset="1" stop-color="#16EA9E"/>
</linearGradient>
<linearGradient id="paint1_linear_585_13698" x1="174.884" y1="33.8219" x2="186.303" y2="28.0985" gradientUnits="userSpaceOnUse">
<stop stop-color="#0463EF"/>
<stop offset="1" stop-color="#16EA9E"/>
</linearGradient>
<linearGradient id="paint2_linear_585_13698" x1="161.116" y1="76.6308" x2="210.598" y2="51.8297" gradientUnits="userSpaceOnUse">
<stop stop-color="#0463EF"/>
<stop offset="1" stop-color="#16EA9E"/>
</linearGradient>
<linearGradient id="paint3_linear_585_13698" x1="29.8686" y1="133.428" x2="49.3097" y2="34.5949" gradientUnits="userSpaceOnUse">
<stop stop-color="#0463EF"/>
<stop offset="1" stop-color="#16EA9E"/>
</linearGradient>
</defs>
</svg>
