<svg width="225" height="51" viewBox="0 0 225 51" fill="none" xmlns="http://www.w3.org/2000/svg">
<path d="M17.8269 28.5001H9.754C8.68441 28.5061 7.66068 28.9353 6.9065 29.6938C6.15232 30.4522 5.72899 31.4784 5.729 32.548V40.6209C5.729 41.6884 6.15307 42.7122 6.9079 43.467C7.66273 44.2219 8.68651 44.6459 9.754 44.6459H17.8269C18.8963 44.6459 19.9223 44.2225 20.6804 43.4683C21.4386 42.7141 21.8672 41.6903 21.8728 40.6209V32.548C21.8728 31.475 21.4465 30.4459 20.6878 29.6872C19.929 28.9284 18.8999 28.5022 17.8269 28.5022M17.8269 6.10425H9.754C9.22543 6.10425 8.70204 6.20836 8.2137 6.41063C7.72537 6.61291 7.28166 6.90939 6.9079 7.28314C6.53414 7.6569 6.23766 8.10061 6.03539 8.58895C5.83311 9.07728 5.729 9.60068 5.729 10.1292V18.2022C5.72899 19.2716 6.15238 20.2975 6.90663 21.0557C7.66087 21.8138 8.6846 22.2425 9.754 22.248H17.8269C18.8999 22.248 19.929 21.8217 20.6878 21.063C21.4465 20.3043 21.8728 19.2752 21.8728 18.2022V10.1292C21.8672 9.05984 21.4386 8.03611 20.6804 7.28187C19.9223 6.52763 18.8963 6.10423 17.8269 6.10425ZM40.2457 6.10425H32.1728C31.1033 6.10423 30.0774 6.52763 29.3193 7.28187C28.5611 8.03611 28.1324 9.05984 28.1269 10.1292V18.2022C28.1275 19.275 28.5539 20.3038 29.3125 21.0624C30.0712 21.821 31.0999 22.2474 32.1728 22.248H40.2457C41.3151 22.2425 42.3388 21.8138 43.0931 21.0557C43.8473 20.2975 44.2707 19.2716 44.2707 18.2022V10.1292C44.2707 9.06175 43.8466 8.03798 43.0918 7.28314C42.3369 6.52831 41.3132 6.10425 40.2457 6.10425Z" stroke="#23BAD8" stroke-width="3.5" stroke-linecap="round" stroke-linejoin="round"/>
<path d="M36.1831 29.1604V43.9854M28.7852 36.5896H43.6102" stroke="#23BAD8" stroke-width="3.5" stroke-miterlimit="10" stroke-linecap="round"/>
<g clip-path="url(#clip0_449_150)">
<path d="M72.112 38.375V14.535H79.888C82.4693 14.535 84.7093 15.047 86.608 16.071C88.5067 17.095 89.9787 18.503 91.024 20.295C92.0693 22.087 92.592 24.135 92.592 26.439C92.592 28.743 92.0693 30.8017 91.024 32.615C89.9787 34.407 88.5067 35.815 86.608 36.839C84.7093 37.863 82.4693 38.375 79.888 38.375H72.112ZM77.072 34.055H80.016C81.5733 34.055 82.9173 33.7457 84.048 33.127C85.1787 32.487 86.0533 31.6017 86.672 30.471C87.312 29.319 87.632 27.975 87.632 26.439C87.632 24.8817 87.312 23.5377 86.672 22.407C86.0533 21.2763 85.1787 20.4017 84.048 19.783C82.9173 19.1643 81.5733 18.855 80.016 18.855H77.072V34.055ZM100.824 38.759C99.5656 38.759 98.4776 38.5563 97.5603 38.151C96.6429 37.7457 95.9389 37.1697 95.4483 36.423C94.9576 35.655 94.7122 34.7483 94.7122 33.703C94.7122 32.7217 94.9363 31.8577 95.3843 31.111C95.8323 30.343 96.5149 29.703 97.4323 29.191C98.3709 28.679 99.5336 28.3163 100.92 28.103L106.264 27.239V30.759L101.784 31.559C101.102 31.687 100.579 31.911 100.216 32.231C99.8536 32.5297 99.6723 32.967 99.6723 33.543C99.6723 34.0763 99.8749 34.4923 100.28 34.791C100.686 35.0897 101.187 35.239 101.784 35.239C102.574 35.239 103.267 35.0683 103.864 34.727C104.462 34.3857 104.92 33.927 105.24 33.351C105.582 32.7537 105.752 32.103 105.752 31.399V26.855C105.752 26.1937 105.486 25.639 104.952 25.191C104.44 24.743 103.736 24.519 102.84 24.519C101.987 24.519 101.23 24.7537 100.568 25.223C99.9283 25.6923 99.4589 26.311 99.1603 27.079L95.3203 25.255C95.6616 24.2737 96.2056 23.431 96.9523 22.727C97.6989 22.023 98.5949 21.479 99.6403 21.095C100.686 20.711 101.827 20.519 103.064 20.519C104.536 20.519 105.838 20.7857 106.968 21.319C108.099 21.8523 108.974 22.599 109.592 23.559C110.232 24.4977 110.552 25.5963 110.552 26.855V38.375H106.072V35.559L107.16 35.367C106.648 36.135 106.083 36.775 105.464 37.287C104.846 37.7777 104.152 38.1403 103.384 38.375C102.616 38.631 101.763 38.759 100.824 38.759ZM120.921 38.759C119.001 38.759 117.326 38.311 115.897 37.415C114.489 36.4977 113.529 35.271 113.017 33.735L116.536 32.071C116.985 33.0097 117.593 33.7457 118.361 34.279C119.129 34.8123 119.982 35.079 120.921 35.079C121.603 35.079 122.126 34.9403 122.489 34.663C122.851 34.3857 123.033 34.0017 123.033 33.511C123.033 33.255 122.969 33.0417 122.841 32.871C122.713 32.679 122.521 32.5083 122.265 32.359C122.009 32.2097 121.689 32.0817 121.305 31.975L118.329 31.143C116.899 30.7377 115.801 30.087 115.033 29.191C114.265 28.2737 113.881 27.1963 113.881 25.959C113.881 24.871 114.158 23.9217 114.713 23.111C115.267 22.3003 116.046 21.671 117.049 21.223C118.051 20.7537 119.203 20.519 120.505 20.519C122.211 20.519 123.705 20.9243 124.985 21.735C126.286 22.5243 127.203 23.6443 127.737 25.095L124.185 26.759C123.929 26.0337 123.459 25.4577 122.777 25.031C122.115 24.583 121.358 24.359 120.505 24.359C119.886 24.359 119.395 24.487 119.033 24.743C118.691 24.999 118.521 25.351 118.521 25.799C118.521 26.0337 118.585 26.247 118.713 26.439C118.841 26.631 119.043 26.8017 119.321 26.951C119.619 27.1003 119.982 27.239 120.409 27.367L123.193 28.199C124.643 28.6257 125.753 29.2763 126.521 30.151C127.289 31.0043 127.673 32.0603 127.673 33.319C127.673 34.407 127.385 35.3563 126.809 36.167C126.254 36.9777 125.475 37.6177 124.473 38.087C123.47 38.535 122.286 38.759 120.921 38.759ZM130.541 38.375V14.151H135.341V24.359L134.765 23.591C135.171 22.5457 135.821 21.7777 136.717 21.287C137.635 20.775 138.701 20.519 139.917 20.519C141.24 20.519 142.392 20.7963 143.373 21.351C144.376 21.9057 145.155 22.6843 145.709 23.687C146.264 24.6683 146.541 25.8203 146.541 27.143V38.375H141.741V28.167C141.741 27.4843 141.603 26.8977 141.325 26.407C141.069 25.9163 140.696 25.5323 140.205 25.255C139.736 24.9777 139.181 24.839 138.541 24.839C137.923 24.839 137.368 24.9777 136.877 25.255C136.387 25.5323 136.003 25.9163 135.725 26.407C135.469 26.8977 135.341 27.4843 135.341 28.167V38.375H130.541ZM159.49 38.759C158.295 38.759 157.186 38.5457 156.161 38.119C155.159 37.671 154.348 37.0203 153.73 36.167L154.178 35.175V38.375H149.698V14.151H154.498V24.231L153.762 23.271C154.338 22.3963 155.116 21.7243 156.098 21.255C157.1 20.7643 158.242 20.519 159.522 20.519C161.186 20.519 162.69 20.9243 164.034 21.735C165.378 22.5457 166.444 23.6443 167.234 25.031C168.023 26.3963 168.418 27.9323 168.418 29.639C168.418 31.3243 168.023 32.8603 167.234 34.247C166.466 35.6337 165.41 36.7323 164.066 37.543C162.722 38.3537 161.196 38.759 159.49 38.759ZM158.914 34.439C159.81 34.439 160.599 34.2363 161.282 33.831C161.964 33.4257 162.498 32.8603 162.882 32.135C163.266 31.4097 163.458 30.5777 163.458 29.639C163.458 28.7003 163.266 27.879 162.882 27.175C162.498 26.4497 161.964 25.8843 161.282 25.479C160.599 25.0523 159.81 24.839 158.914 24.839C158.06 24.839 157.292 25.0417 156.61 25.447C155.948 25.8523 155.426 26.4177 155.042 27.143C154.679 27.8683 154.498 28.7003 154.498 29.639C154.498 30.5777 154.679 31.4097 155.042 32.135C155.426 32.8603 155.948 33.4257 156.61 33.831C157.292 34.2363 158.06 34.439 158.914 34.439ZM179.901 38.759C178.173 38.759 176.594 38.3643 175.165 37.575C173.757 36.7857 172.626 35.7083 171.773 34.343C170.941 32.9563 170.525 31.3883 170.525 29.639C170.525 27.8683 170.941 26.3003 171.773 24.935C172.626 23.5697 173.757 22.4923 175.165 21.703C176.594 20.9137 178.173 20.519 179.901 20.519C181.629 20.519 183.197 20.9137 184.605 21.703C186.013 22.4923 187.133 23.5697 187.965 24.935C188.818 26.3003 189.245 27.8683 189.245 29.639C189.245 31.3883 188.818 32.9563 187.965 34.343C187.133 35.7083 186.013 36.7857 184.605 37.575C183.197 38.3643 181.629 38.759 179.901 38.759ZM179.901 34.439C180.775 34.439 181.533 34.2363 182.173 33.831C182.834 33.4257 183.346 32.8603 183.709 32.135C184.093 31.4097 184.285 30.5777 184.285 29.639C184.285 28.7003 184.093 27.879 183.709 27.175C183.346 26.4497 182.834 25.8843 182.173 25.479C181.533 25.0523 180.775 24.839 179.901 24.839C179.026 24.839 178.258 25.0523 177.597 25.479C176.935 25.8843 176.413 26.4497 176.029 27.175C175.666 27.879 175.485 28.7003 175.485 29.639C175.485 30.5777 175.666 31.4097 176.029 32.135C176.413 32.8603 176.935 33.4257 177.597 33.831C178.258 34.2363 179.026 34.439 179.901 34.439ZM192.073 38.375V20.903H196.553V25.095L196.233 24.487C196.617 23.015 197.246 22.023 198.121 21.511C199.017 20.9777 200.073 20.711 201.289 20.711H202.313V24.871H200.809C199.635 24.871 198.686 25.2337 197.961 25.959C197.235 26.663 196.873 27.6657 196.873 28.967V38.375H192.073ZM212.64 38.759C210.934 38.759 209.408 38.3537 208.064 37.543C206.72 36.7323 205.654 35.6337 204.864 34.247C204.096 32.8603 203.712 31.3243 203.712 29.639C203.712 27.9323 204.107 26.3963 204.896 25.031C205.686 23.6443 206.752 22.5457 208.096 21.735C209.44 20.9243 210.944 20.519 212.608 20.519C213.888 20.519 215.019 20.7643 216 21.255C217.003 21.7243 217.792 22.3963 218.368 23.271L217.632 24.231V14.151H222.432V38.375H217.952V35.175L218.4 36.167C217.803 37.0203 216.992 37.671 215.968 38.119C214.944 38.5457 213.835 38.759 212.64 38.759ZM213.216 34.439C214.091 34.439 214.859 34.2363 215.52 33.831C216.182 33.4257 216.694 32.8603 217.056 32.135C217.44 31.4097 217.632 30.5777 217.632 29.639C217.632 28.7003 217.44 27.8683 217.056 27.143C216.694 26.4177 216.182 25.8523 215.52 25.447C214.859 25.0417 214.091 24.839 213.216 24.839C212.342 24.839 211.552 25.0523 210.848 25.479C210.166 25.8843 209.632 26.4497 209.248 27.175C208.864 27.879 208.672 28.7003 208.672 29.639C208.672 30.5777 208.864 31.4097 209.248 32.135C209.632 32.8603 210.166 33.4257 210.848 33.831C211.552 34.2363 212.342 34.439 213.216 34.439Z" fill="url(#paint0_linear_449_150)"/>
</g>
<defs>
<linearGradient id="paint0_linear_449_150" x1="82.6319" y1="43.4193" x2="130.381" y2="-49.3183" gradientUnits="userSpaceOnUse">
<stop stop-color="#0463EF"/>
<stop offset="1" stop-color="#16EA9E"/>
</linearGradient>
<clipPath id="clip0_449_150">
<rect width="155" height="40" fill="white" transform="translate(70 5.375)"/>
</clipPath>
</defs>
</svg>
