<svg width="286" height="51" viewBox="0 0 286 51" fill="none" xmlns="http://www.w3.org/2000/svg">
<path d="M19.5074 22.594C19.8513 22.4477 20.0696 22.1158 20.0652 21.7424V21.7119C20.0652 19.941 21.3042 18.4388 23.0636 18.1222C25.3984 17.7029 27.4378 19.4738 27.4378 21.7119V21.7403C27.4334 22.1136 27.6516 22.4477 27.9978 22.594C31.2123 23.9522 33.6419 26.806 34.3782 30.2669C38.2938 28.2886 42.2094 26.3104 46.1272 24.3321C46.9253 23.9281 47.3222 23.1617 47.3222 22.3975C47.3222 21.8036 47.084 21.2097 46.6012 20.7861H46.599C46.4601 20.6616 46.3036 20.5546 46.125 20.4651L35.3902 15.0369L35.0727 14.8775L32.3411 13.4975L30.897 12.766L24.6554 9.613C24.3445 9.45579 24.0028 9.375 23.6611 9.375C23.3193 9.375 22.9776 9.45579 22.6667 9.613L11.9342 15.0369L1.19716 20.4629C0.399055 20.8669 0 21.6311 0 22.3975C0 22.6159 0.0330708 22.8342 0.0970078 23.0438C0.260157 23.5701 0.626141 24.0439 1.19716 24.3321L2.47811 24.9784L3.35118 25.4195V30.3521C2.86834 30.5682 2.53102 31.0508 2.53102 31.6141C2.53102 32.0705 2.7537 32.4788 3.10204 32.7255L2.49354 38.0075C2.41417 38.6996 3.13952 39.2717 3.93102 39.2717C4.72251 39.2717 5.45007 38.7018 5.3707 38.0075L4.75999 32.7255C5.10614 32.4766 5.33102 32.0705 5.33102 31.6141C5.33102 31.0683 5.01354 30.5966 4.54834 30.3717V26.0243C7.01102 27.2689 9.4759 28.5135 11.9364 29.7581L13.1071 30.3499C13.8236 26.8519 16.2598 23.9653 19.5074 22.594Z" fill="url(#paint0_linear_1_23154)"/>
<path d="M23.8789 23.373C24.9121 23.373 25.7649 22.6059 25.8997 21.6091C25.9125 21.518 25.918 21.4269 25.918 21.334C25.918 20.2079 25.005 19.2949 23.8789 19.2949C22.7528 19.2949 21.8398 20.2079 21.8398 21.334C21.8398 21.4269 21.8453 21.5198 21.8581 21.6073C21.9911 22.6041 22.8457 23.373 23.8789 23.373Z" fill="url(#paint1_linear_1_23154)"/>
<path d="M23.7891 24.3281C28.669 24.3281 32.625 28.2841 32.625 33.1641C32.625 38.044 28.669 42 23.7891 42C18.9091 42 14.9532 38.044 14.9531 33.1641C14.9531 28.2841 18.9091 24.3281 23.7891 24.3281Z" fill="url(#paint2_linear_1_23154)"/>
<path d="M27.6474 29C27.6474 31.0078 27.6474 33.0157 27.6474 35.0843C27.3736 35.1137 27.3736 35.1137 27.0942 35.1436C25.8614 35.366 24.6761 35.9663 23.8663 36.9421C23.8409 36.971 23.8409 36.971 23.815 37.0005C23.802 37.0005 23.7889 37.0005 23.7755 37.0005C23.771 36.2704 23.7675 35.5402 23.7654 34.8101C23.7652 34.7238 23.7649 34.6375 23.7647 34.5512C23.7646 34.5254 23.7646 34.5254 23.7645 34.4992C23.7636 34.2214 23.7621 33.9436 23.7603 33.6658C23.7584 33.3806 23.7573 33.0954 23.7569 32.8101C23.7567 32.6342 23.7558 32.4584 23.7542 32.2825C23.7531 32.1617 23.7528 32.041 23.7531 31.9202C23.7532 31.8506 23.753 31.7811 23.752 31.7115C23.7454 31.2067 23.7454 31.2067 23.9222 31.0072C23.939 30.9902 23.9558 30.9732 23.9731 30.9557C24.0022 30.9193 24.0311 30.8827 24.0595 30.8458C24.1643 30.7201 24.2752 30.6002 24.3879 30.4816C24.4034 30.4652 24.4189 30.4489 24.4349 30.432C24.5436 30.3204 24.6612 30.223 24.783 30.126C24.7979 30.1135 24.8128 30.1009 24.8282 30.088C25.5783 29.4642 26.6622 29 27.6474 29Z" fill="white"/>
<path d="M19.487 29C19.5219 29.0037 19.5567 29.0075 19.5916 29.0112C19.6111 29.0133 19.6305 29.0153 19.6505 29.0175C20.5249 29.1125 21.356 29.4199 22.0748 29.9285C22.0875 29.9374 22.1001 29.9463 22.1132 29.9554C22.3278 30.1075 22.519 30.2782 22.7069 30.4618C22.729 30.4831 22.7511 30.5044 22.7732 30.5257C22.8803 30.6299 22.983 30.7366 23.0736 30.8558C23.1209 30.9173 23.1209 30.9173 23.177 30.9721C23.3866 31.1961 23.3692 31.4439 23.3643 31.7362C23.3633 31.807 23.3637 31.8778 23.3638 31.9486C23.3639 32.071 23.3633 32.1934 23.362 32.3157C23.3603 32.4926 23.3597 32.6695 23.3594 32.8464C23.359 33.1336 23.3575 33.4206 23.3555 33.7077C23.3535 33.9864 23.3519 34.2651 23.351 34.5439C23.3509 34.5611 23.3509 34.5783 23.3508 34.596C23.3505 34.6824 23.3503 34.7687 23.35 34.8551C23.3477 35.5702 23.3439 36.2854 23.3391 37.0005C23.2653 36.9759 23.2491 36.9469 23.202 36.8857C23.0557 36.7025 22.8879 36.5371 22.7069 36.3881C22.6967 36.3797 22.6864 36.3712 22.6759 36.3625C22.2936 36.049 21.8916 35.7873 21.4426 35.5782C21.4275 35.5711 21.4124 35.564 21.3969 35.5567C20.8704 35.3131 20.3153 35.1674 19.7386 35.1113C19.7121 35.1086 19.6856 35.1059 19.6591 35.1033C19.5952 35.0969 19.5312 35.0906 19.4672 35.0843C19.4668 34.3862 19.4664 33.6882 19.4662 32.9901C19.4662 32.9074 19.4662 32.8247 19.4661 32.742C19.4661 32.7255 19.4661 32.7091 19.4661 32.6921C19.466 32.4267 19.4659 32.1613 19.4657 31.8959C19.4655 31.6229 19.4654 31.3499 19.4654 31.0769C19.4653 30.9089 19.4653 30.7409 19.4651 30.5729C19.465 30.4572 19.465 30.3415 19.465 30.2258C19.465 30.1593 19.465 30.0929 19.4649 30.0265C19.4644 29.6838 19.4717 29.3423 19.487 29Z" fill="white"/>
<path d="M28.0996 30.3633C28.2781 30.392 28.4381 30.4468 28.6132 30.5016C28.6132 32.555 28.6132 34.6085 28.6132 36.7242C28.3714 36.6802 28.3714 36.6802 28.2841 36.6613C27.8841 36.5767 27.4814 36.5199 27.0724 36.5069C27.0477 36.5061 27.0229 36.5052 26.9974 36.5044C26.2201 36.4921 25.4325 36.6141 24.7043 36.887C24.6743 36.8981 24.6743 36.8981 24.6438 36.9094C24.6263 36.916 24.6089 36.9227 24.5909 36.9296C24.5401 36.9424 24.5136 36.9391 24.4648 36.9217C24.5959 36.7855 24.7311 36.6632 24.8797 36.5464C24.8989 36.5307 24.9182 36.5151 24.938 36.499C25.4774 36.0694 26.1262 35.7731 26.7959 35.6179C26.8206 35.6122 26.8206 35.6122 26.8459 35.6063C27.1243 35.5441 27.4053 35.5206 27.6894 35.5019C27.704 35.5008 27.7187 35.4998 27.7337 35.4987C27.7738 35.4958 27.8139 35.4932 27.8541 35.4906C27.9268 35.4788 27.9645 35.4679 28.0206 35.4204C28.0831 35.3053 28.0884 35.2081 28.0878 35.0787C28.0879 35.0585 28.088 35.0383 28.0882 35.0175C28.0885 34.95 28.0885 34.8824 28.0884 34.8149C28.0886 34.7664 28.0888 34.7179 28.089 34.6694C28.0895 34.5651 28.0897 34.4608 28.0898 34.3565C28.0899 34.2057 28.0904 34.0549 28.0909 33.9041C28.0918 33.6595 28.0924 33.4148 28.0928 33.1701C28.0932 32.9325 28.0937 32.6949 28.0944 32.4572C28.0945 32.4426 28.0945 32.4279 28.0946 32.4128C28.0948 32.3393 28.095 32.2658 28.0952 32.1922C28.0971 31.5826 28.0985 30.9729 28.0996 30.3633Z" fill="white"/>
<path d="M19.0136 30.3438C19.0137 30.3691 19.0137 30.3944 19.0138 30.4205C19.0149 31.0217 19.0163 31.6229 19.0181 32.2241C19.0184 32.2981 19.0186 32.3721 19.0188 32.4461C19.0188 32.4609 19.0189 32.4756 19.0189 32.4908C19.0196 32.7293 19.0201 32.9678 19.0205 33.2064C19.021 33.4511 19.0216 33.6959 19.0225 33.9407C19.023 34.0917 19.0233 34.2427 19.0235 34.3937C19.0236 34.5096 19.024 34.6254 19.0246 34.7412C19.0247 34.7887 19.0248 34.8362 19.0248 34.8837C19.0247 34.9486 19.0251 35.0134 19.0255 35.0782C19.0254 35.097 19.0253 35.1158 19.0252 35.1352C19.0264 35.2453 19.0396 35.3234 19.0926 35.4206C19.1993 35.5059 19.3447 35.4926 19.4754 35.4984C20.6388 35.565 21.6809 36.0245 22.5435 36.8022C22.5539 36.8115 22.5644 36.8209 22.5752 36.8305C22.6004 36.8536 22.6245 36.8778 22.6484 36.9022C22.6484 36.9152 22.6484 36.9283 22.6484 36.9417C22.5498 36.9126 22.4514 36.883 22.3539 36.8506C21.1555 36.4534 19.8376 36.3721 18.6134 36.7106C18.5593 36.7244 18.5593 36.7244 18.5 36.7244C18.5 34.6709 18.5 32.6175 18.5 30.5018C18.9741 30.3438 18.9741 30.3438 19.0136 30.3438Z" fill="white"/>
<path d="M61.6963 16.7515V24.2075H69.8243V26.6075H61.6963V34.2875H70.7843V36.6875H58.7843V14.3515H70.7843V16.7515H61.6963ZM74.1026 27.8555C74.1026 26.0635 74.4652 24.4955 75.1906 23.1515C75.9159 21.7862 76.9079 20.7302 78.1666 19.9835C79.4466 19.2368 80.8759 18.8635 82.4546 18.8635C83.8199 18.8635 85.0892 19.1835 86.2626 19.8235C87.4359 20.4422 88.3319 21.2635 88.9506 22.2875V13.0075H91.8946V36.6875H88.9506V33.3915C88.3746 34.4368 87.5212 35.3008 86.3906 35.9835C85.2599 36.6448 83.9372 36.9755 82.4226 36.9755C80.8652 36.9755 79.4466 36.5915 78.1666 35.8235C76.9079 35.0555 75.9159 33.9782 75.1906 32.5915C74.4652 31.2048 74.1026 29.6262 74.1026 27.8555ZM88.9506 27.8875C88.9506 26.5648 88.6839 25.4128 88.1506 24.4315C87.6172 23.4502 86.8919 22.7035 85.9746 22.1915C85.0786 21.6582 84.0866 21.3915 82.9986 21.3915C81.9106 21.3915 80.9186 21.6475 80.0226 22.1595C79.1266 22.6715 78.4119 23.4182 77.8786 24.3995C77.3452 25.3808 77.0786 26.5328 77.0786 27.8555C77.0786 29.1995 77.3452 30.3728 77.8786 31.3755C78.4119 32.3568 79.1266 33.1142 80.0226 33.6475C80.9186 34.1595 81.9106 34.4155 82.9986 34.4155C84.0866 34.4155 85.0786 34.1595 85.9746 33.6475C86.8919 33.1142 87.6172 32.3568 88.1506 31.3755C88.6839 30.3728 88.9506 29.2102 88.9506 27.8875ZM112.368 19.1515V36.6875H109.456V34.0955C108.901 34.9915 108.122 35.6955 107.12 36.2075C106.138 36.6982 105.05 36.9435 103.856 36.9435C102.49 36.9435 101.264 36.6662 100.176 36.1115C99.0876 35.5355 98.2236 34.6822 97.5836 33.5515C96.9649 32.4208 96.6556 31.0448 96.6556 29.4235V19.1515H99.5356V29.0395C99.5356 30.7675 99.9729 32.1008 100.848 33.0395C101.722 33.9568 102.917 34.4155 104.432 34.4155C105.989 34.4155 107.216 33.9355 108.112 32.9755C109.008 32.0155 109.456 30.6182 109.456 28.7835V19.1515H112.368ZM118.788 16.3035C118.234 16.3035 117.764 16.1115 117.38 15.7275C116.996 15.3435 116.804 14.8742 116.804 14.3195C116.804 13.7648 116.996 13.2955 117.38 12.9115C117.764 12.5275 118.234 12.3355 118.788 12.3355C119.322 12.3355 119.77 12.5275 120.132 12.9115C120.516 13.2955 120.708 13.7648 120.708 14.3195C120.708 14.8742 120.516 15.3435 120.132 15.7275C119.77 16.1115 119.322 16.3035 118.788 16.3035ZM120.196 19.1515V36.6875H117.284V19.1515H120.196ZM146.247 18.8315C147.613 18.8315 148.829 19.1195 149.895 19.6955C150.962 20.2502 151.805 21.0928 152.423 22.2235C153.042 23.3542 153.351 24.7302 153.351 26.3515V36.6875H150.471V26.7675C150.471 25.0182 150.034 23.6848 149.159 22.7675C148.306 21.8288 147.143 21.3595 145.671 21.3595C144.157 21.3595 142.951 21.8502 142.055 22.8315C141.159 23.7915 140.711 25.1888 140.711 27.0235V36.6875H137.831V26.7675C137.831 25.0182 137.394 23.6848 136.519 22.7675C135.666 21.8288 134.503 21.3595 133.031 21.3595C131.517 21.3595 130.311 21.8502 129.415 22.8315C128.519 23.7915 128.071 25.1888 128.071 27.0235V36.6875H125.159V19.1515H128.071V21.6795C128.647 20.7622 129.415 20.0582 130.375 19.5675C131.357 19.0768 132.434 18.8315 133.607 18.8315C135.079 18.8315 136.381 19.1622 137.511 19.8235C138.642 20.4848 139.485 21.4555 140.039 22.7355C140.53 21.4982 141.341 20.5382 142.471 19.8555C143.602 19.1728 144.861 18.8315 146.247 18.8315ZM182.224 14.3515V36.6875H177.744V22.1595L171.76 36.6875H168.368L162.352 22.1595V36.6875H157.872V14.3515H162.96L170.064 30.9595L177.168 14.3515H182.224ZM203.133 27.4395C203.133 28.0795 203.091 28.6555 203.005 29.1675H190.045C190.152 30.4475 190.6 31.4502 191.389 32.1755C192.179 32.9008 193.149 33.2635 194.301 33.2635C195.965 33.2635 197.149 32.5488 197.853 31.1195H202.685C202.173 32.8262 201.192 34.2342 199.741 35.3435C198.291 36.4315 196.509 36.9755 194.397 36.9755C192.691 36.9755 191.155 36.6022 189.789 35.8555C188.445 35.0875 187.389 34.0102 186.621 32.6235C185.875 31.2368 185.501 29.6368 185.501 27.8235C185.501 25.9888 185.875 24.3782 186.621 22.9915C187.368 21.6048 188.413 20.5382 189.757 19.7915C191.101 19.0448 192.648 18.6715 194.397 18.6715C196.083 18.6715 197.587 19.0342 198.909 19.7595C200.253 20.4848 201.288 21.5195 202.013 22.8635C202.76 24.1862 203.133 25.7115 203.133 27.4395ZM198.493 26.1595C198.472 25.0075 198.056 24.0902 197.245 23.4075C196.435 22.7035 195.443 22.3515 194.269 22.3515C193.16 22.3515 192.221 22.6928 191.453 23.3755C190.707 24.0368 190.248 24.9648 190.077 26.1595H198.493ZM210.883 21.7115C211.459 20.7728 212.206 20.0368 213.123 19.5035C214.062 18.9702 215.129 18.7035 216.323 18.7035V23.4075H215.139C213.731 23.4075 212.665 23.7382 211.939 24.3995C211.235 25.0608 210.883 26.2128 210.883 27.8555V36.6875H206.403V18.9595H210.883V21.7115ZM226.125 36.9755C224.674 36.9755 223.373 36.7195 222.221 36.2075C221.069 35.6742 220.151 34.9595 219.469 34.0635C218.807 33.1675 218.445 32.1755 218.381 31.0875H222.893C222.978 31.7702 223.309 32.3355 223.885 32.7835C224.482 33.2315 225.218 33.4555 226.093 33.4555C226.946 33.4555 227.607 33.2848 228.077 32.9435C228.567 32.6022 228.813 32.1648 228.813 31.6315C228.813 31.0555 228.514 30.6288 227.917 30.3515C227.341 30.0528 226.413 29.7328 225.133 29.3915C223.81 29.0715 222.722 28.7408 221.869 28.3995C221.037 28.0582 220.311 27.5355 219.693 26.8315C219.095 26.1275 218.797 25.1782 218.797 23.9835C218.797 23.0022 219.074 22.1062 219.629 21.2955C220.205 20.4848 221.015 19.8448 222.061 19.3755C223.127 18.9062 224.375 18.6715 225.805 18.6715C227.917 18.6715 229.602 19.2048 230.861 20.2715C232.119 21.3168 232.813 22.7355 232.941 24.5275H228.653C228.589 23.8235 228.29 23.2688 227.757 22.8635C227.245 22.4368 226.551 22.2235 225.677 22.2235C224.866 22.2235 224.237 22.3728 223.789 22.6715C223.362 22.9702 223.149 23.3862 223.149 23.9195C223.149 24.5168 223.447 24.9755 224.045 25.2955C224.642 25.5942 225.57 25.9035 226.829 26.2235C228.109 26.5435 229.165 26.8742 229.997 27.2155C230.829 27.5568 231.543 28.0902 232.141 28.8155C232.759 29.5195 233.079 30.4582 233.101 31.6315C233.101 32.6555 232.813 33.5728 232.237 34.3835C231.682 35.1942 230.871 35.8342 229.805 36.3035C228.759 36.7515 227.533 36.9755 226.125 36.9755ZM239.05 16.8475C238.261 16.8475 237.6 16.6022 237.066 16.1115C236.554 15.5995 236.298 14.9702 236.298 14.2235C236.298 13.4768 236.554 12.8582 237.066 12.3675C237.6 11.8555 238.261 11.5995 239.05 11.5995C239.84 11.5995 240.49 11.8555 241.002 12.3675C241.536 12.8582 241.802 13.4768 241.802 14.2235C241.802 14.9702 241.536 15.5995 241.002 16.1115C240.49 16.6022 239.84 16.8475 239.05 16.8475ZM241.258 18.9595V36.6875H236.778V18.9595H241.258ZM253.557 36.9755C251.85 36.9755 250.314 36.6022 248.949 35.8555C247.583 35.0875 246.506 34.0102 245.717 32.6235C244.949 31.2368 244.565 29.6368 244.565 27.8235C244.565 26.0102 244.959 24.4102 245.749 23.0235C246.559 21.6368 247.658 20.5702 249.045 19.8235C250.431 19.0555 251.978 18.6715 253.685 18.6715C255.391 18.6715 256.938 19.0555 258.325 19.8235C259.711 20.5702 260.799 21.6368 261.589 23.0235C262.399 24.4102 262.805 26.0102 262.805 27.8235C262.805 29.6368 262.389 31.2368 261.557 32.6235C260.746 34.0102 259.637 35.0875 258.229 35.8555C256.842 36.6022 255.285 36.9755 253.557 36.9755ZM253.557 33.0715C254.367 33.0715 255.125 32.8795 255.829 32.4955C256.554 32.0902 257.13 31.4928 257.557 30.7035C257.983 29.9142 258.197 28.9542 258.197 27.8235C258.197 26.1382 257.749 24.8475 256.853 23.9515C255.978 23.0342 254.901 22.5755 253.621 22.5755C252.341 22.5755 251.263 23.0342 250.389 23.9515C249.535 24.8475 249.109 26.1382 249.109 27.8235C249.109 29.5088 249.525 30.8102 250.357 31.7275C251.21 32.6235 252.277 33.0715 253.557 33.0715ZM275.915 18.7035C278.027 18.7035 279.733 19.3755 281.035 20.7195C282.336 22.0422 282.987 23.8982 282.987 26.2875V36.6875H278.507V26.8955C278.507 25.4875 278.155 24.4102 277.451 23.6635C276.747 22.8955 275.787 22.5115 274.571 22.5115C273.333 22.5115 272.352 22.8955 271.627 23.6635C270.923 24.4102 270.571 25.4875 270.571 26.8955V36.6875H266.091V18.9595H270.571V21.1675C271.168 20.3995 271.925 19.8022 272.843 19.3755C273.781 18.9275 274.805 18.7035 275.915 18.7035Z" fill="#191818"/>
<defs>
<linearGradient id="paint0_linear_1_23154" x1="3.85657" y1="37.81" x2="46.5519" y2="3.93788" gradientUnits="userSpaceOnUse">
<stop stop-color="#0463EF"/>
<stop offset="1" stop-color="#16EA9E"/>
</linearGradient>
<linearGradient id="paint1_linear_1_23154" x1="7.26346" y1="34.3889" x2="42.8143" y2="6.45609" gradientUnits="userSpaceOnUse">
<stop stop-color="#0463EF"/>
<stop offset="1" stop-color="#16EA9E"/>
</linearGradient>
<linearGradient id="paint2_linear_1_23154" x1="14.9531" y1="42" x2="42.3325" y2="33.5355" gradientUnits="userSpaceOnUse">
<stop stop-color="#0463EF"/>
<stop offset="1" stop-color="#16EA9E"/>
</linearGradient>
</defs>
</svg>
