<svg width="176" height="176" viewBox="0 0 176 176" fill="none" xmlns="http://www.w3.org/2000/svg">
<g filter="url(#filter0_d_613_34557)">
<circle cx="88" cy="83.5" r="42.75" fill="#23BAD8"/>
</g>
<path d="M116.06 93.7894C116.155 93.4973 116.568 93.4973 116.663 93.7894L117.249 95.5917C117.291 95.7223 117.413 95.8108 117.55 95.8108H119.446C119.753 95.8108 119.88 96.2038 119.632 96.3844L118.099 97.4983C117.988 97.579 117.941 97.7221 117.984 97.8527L118.569 99.6551C118.664 99.9472 118.33 100.19 118.081 100.01L116.548 98.8957C116.437 98.8149 116.287 98.8149 116.175 98.8957L114.642 100.01C114.394 100.19 114.059 99.9472 114.154 99.6551L114.74 97.8527C114.782 97.7221 114.736 97.579 114.625 97.4983L113.092 96.3844C112.843 96.2038 112.971 95.8108 113.278 95.8108H115.173C115.31 95.8108 115.432 95.7223 115.475 95.5917L116.06 93.7894Z" fill="white"/>
<path d="M65.561 85.2056C65.7336 85.3782 65.6546 85.6729 65.4189 85.736L58.8815 87.4877C58.6457 87.5509 58.43 87.3352 58.4932 87.0994L60.2448 80.562C60.308 80.3263 60.6027 80.2473 60.7753 80.4199L65.561 85.2056Z" fill="white"/>
<circle cx="86.6326" cy="64.3619" r="3.18414" fill="white"/>
<path d="M106.836 76.2578H69.9638C69.1806 76.2578 68.5457 76.8927 68.5457 77.676V97.5301C68.5457 98.3133 69.1806 98.9482 69.9638 98.9482H106.836C107.619 98.9482 108.254 98.3133 108.254 97.5301V77.676C108.254 76.8927 107.619 76.2578 106.836 76.2578Z" fill="#EBEBEB" stroke="#141414" stroke-width="1.26822" stroke-linecap="round" stroke-linejoin="round"/>
<path d="M108.323 88.8966L96.9664 99.0391L106.42 99.0391C107.471 99.0391 108.323 98.1874 108.323 97.1367L108.323 88.8966Z" fill="#4EAF4E" stroke="black" stroke-width="0.634109"/>
<path d="M68.479 86.2362L79.8351 76.0938H70.3813C69.3307 76.0938 68.479 76.9455 68.479 77.9961V86.2362Z" fill="#4EAF4E" stroke="black" stroke-width="0.634109"/>
<path d="M88.3984 93.2769C91.5313 93.2769 94.071 90.7371 94.071 87.6042C94.071 84.4714 91.5313 81.9316 88.3984 81.9316C85.2655 81.9316 82.7258 84.4714 82.7258 87.6042C82.7258 90.7371 85.2655 93.2769 88.3984 93.2769Z" fill="#FFCC4A" stroke="#141414" stroke-width="1.26822" stroke-linecap="round" stroke-linejoin="round"/>
<path d="M96.9084 76.2578L108.254 86.1849" stroke="#141414" stroke-width="1.26822" stroke-linecap="round" stroke-linejoin="round"/>
<path d="M96.9084 98.9485L108.254 89.0215" stroke="#141414" stroke-width="1.26822" stroke-linecap="round" stroke-linejoin="round"/>
<path d="M79.8909 76.2578L68.5457 86.1849" stroke="#141414" stroke-width="1.26822" stroke-linecap="round" stroke-linejoin="round"/>
<path d="M79.8909 98.9485L68.5457 89.0215" stroke="#141414" stroke-width="1.26822" stroke-linecap="round" stroke-linejoin="round"/>
<defs>
<filter id="filter0_d_613_34557" x="0.25" y="0.25" width="175.5" height="175.5" filterUnits="userSpaceOnUse" color-interpolation-filters="sRGB">
<feFlood flood-opacity="0" result="BackgroundImageFix"/>
<feColorMatrix in="SourceAlpha" type="matrix" values="0 0 0 0 0 0 0 0 0 0 0 0 0 0 0 0 0 0 127 0" result="hardAlpha"/>
<feOffset dy="4.5"/>
<feGaussianBlur stdDeviation="22.5"/>
<feComposite in2="hardAlpha" operator="out"/>
<feColorMatrix type="matrix" values="0 0 0 0 0 0 0 0 0 0.470588 0 0 0 0 0.560784 0 0 0 0.25 0"/>
<feBlend mode="normal" in2="BackgroundImageFix" result="effect1_dropShadow_613_34557"/>
<feBlend mode="normal" in="SourceGraphic" in2="effect1_dropShadow_613_34557" result="shape"/>
</filter>
</defs>
</svg>
