<svg width="52" height="52" viewBox="0 0 52 52" fill="none" xmlns="http://www.w3.org/2000/svg">
<g filter="url(#filter0_d_684_978)">
<circle cx="25.812" cy="20.625" r="15.9375" fill="#5DD8D0"/>
</g>
<path opacity="0.4" d="M29.9172 20.9727V24.1155C29.9172 24.9252 29.2861 25.7922 28.5275 26.0472L26.4938 26.7229C26.1368 26.844 25.5567 26.844 25.2061 26.7229L23.1725 26.0472C22.4075 25.7922 21.7827 24.9252 21.7827 24.1155L21.7891 20.9727L24.6068 22.8087C25.2953 23.2613 26.4301 23.2613 27.1186 22.8087L29.9172 20.9727Z" fill="white"/>
<path d="M30.9371 16.9054L27.1185 14.4C26.43 13.9474 25.2952 13.9474 24.6067 14.4L20.769 16.9054C19.5386 17.7023 19.5386 19.5064 20.769 20.3096L21.789 20.9726L24.6067 22.8086C25.2952 23.2613 26.43 23.2613 27.1185 22.8086L29.9171 20.9726L30.7905 20.3989V22.3496C30.7905 22.611 31.0072 22.8278 31.2686 22.8278C31.53 22.8278 31.7467 22.611 31.7467 22.3496V19.2131C32.0017 18.3908 31.7403 17.4345 30.9371 16.9054Z" fill="white"/>
<defs>
<filter id="filter0_d_684_978" x="0.312012" y="0.225" width="51" height="51" filterUnits="userSpaceOnUse" color-interpolation-filters="sRGB">
<feFlood flood-opacity="0" result="BackgroundImageFix"/>
<feColorMatrix in="SourceAlpha" type="matrix" values="0 0 0 0 0 0 0 0 0 0 0 0 0 0 0 0 0 0 127 0" result="hardAlpha"/>
<feOffset dy="5.1"/>
<feGaussianBlur stdDeviation="4.78125"/>
<feColorMatrix type="matrix" values="0 0 0 0 0.133333 0 0 0 0 0.803922 0 0 0 0 0.682353 0 0 0 0.2 0"/>
<feBlend mode="normal" in2="BackgroundImageFix" result="effect1_dropShadow_684_978"/>
<feBlend mode="normal" in="SourceGraphic" in2="effect1_dropShadow_684_978" result="shape"/>
</filter>
</defs>
</svg>
