<svg width="25" height="25" viewBox="0 0 25 25" fill="none" xmlns="http://www.w3.org/2000/svg">
<g clip-path="url(#clip0_45_16392)">
<mask id="mask0_45_16392" style="mask-type:luminance" maskUnits="userSpaceOnUse" x="0" y="0" width="25" height="25">
<rect x="0.375" y="0.123047" width="24.4276" height="24.4276" fill="white"/>
</mask>
<g mask="url(#mask0_45_16392)">
<path fill-rule="evenodd" clip-rule="evenodd" d="M22.7605 19.3731L17.1689 10.3798V3.17552H17.5506C18.1851 3.17552 18.6956 2.66502 18.6956 2.03048V1.26711C18.6956 0.632569 18.1851 0.12207 17.5506 0.12207H7.62687C6.99232 0.12207 6.48183 0.632569 6.48183 1.26711V2.03048C6.48183 2.66502 6.99232 3.17552 7.62687 3.17552H8.00855V10.3798L2.41692 19.3731C1.01901 21.6203 2.63162 24.5497 5.2843 24.5497H19.8931C22.5506 24.5497 24.1584 21.6155 22.7605 19.3731ZM8.48077 15.3889L10.7804 11.6866C10.9569 11.4385 11.0571 11.1331 11.0571 10.8087V3.17509H14.1106V10.8087C14.1106 11.1379 14.2155 11.4385 14.3873 11.6866L16.6869 15.3889H8.48077Z" fill="#51CF66"/>
</g>
</g>
<defs>
<clipPath id="clip0_45_16392">
<rect width="24.4276" height="24.4276" fill="white" transform="translate(0.375 0.123047)"/>
</clipPath>
</defs>
</svg>
