<svg width="24" height="25" viewBox="0 0 24 25" fill="none" xmlns="http://www.w3.org/2000/svg">
<path d="M16 8.37532V4.87597C16 4.04423 16 3.62836 15.8248 3.37279C15.6717 3.1495 15.4346 2.99781 15.1678 2.9524C14.8623 2.90042 14.4847 3.07469 13.7295 3.42324L4.85901 7.51731C4.18551 7.82816 3.84875 7.98358 3.60211 8.22463C3.38406 8.43773 3.21762 8.69787 3.1155 8.98515C3 9.3101 3 9.681 3 10.4228V15.3753M16.5 14.8753H16.51M3 11.5753L3 18.1753C3 19.2954 3 19.8555 3.21799 20.2833C3.40973 20.6596 3.71569 20.9656 4.09202 21.1573C4.51984 21.3753 5.07989 21.3753 6.2 21.3753H17.8C18.9201 21.3753 19.4802 21.3753 19.908 21.1573C20.2843 20.9656 20.5903 20.6596 20.782 20.2833C21 19.8555 21 19.2954 21 18.1753V11.5753C21 10.4552 21 9.89516 20.782 9.46734C20.5903 9.09101 20.2843 8.78505 19.908 8.5933C19.4802 8.37532 18.9201 8.37532 17.8 8.37532L6.2 8.37532C5.0799 8.37532 4.51984 8.37532 4.09202 8.5933C3.7157 8.78505 3.40973 9.09101 3.21799 9.46734C3 9.89516 3 10.4552 3 11.5753ZM17 14.8753C17 15.1515 16.7761 15.3753 16.5 15.3753C16.2239 15.3753 16 15.1515 16 14.8753C16 14.5992 16.2239 14.3753 16.5 14.3753C16.7761 14.3753 17 14.5992 17 14.8753Z" stroke="#E2E2E2" stroke-width="2" stroke-linecap="round" stroke-linejoin="round"/>
</svg>
