<svg width="98" height="92" viewBox="0 0 98 92" fill="none" xmlns="http://www.w3.org/2000/svg">
<path d="M51.4443 17.6676C54.6457 17.6677 59.9952 18.902 65.0292 20.2614C69.5261 21.499 73.9928 22.8454 78.4247 24.2985C79.7015 24.7208 80.8335 25.4944 81.6904 26.5309C82.5471 27.5674 83.0948 28.8245 83.2695 30.1579C86.0348 50.9305 79.6176 66.3258 71.832 76.5104C68.5304 80.8671 64.5935 84.704 60.1533 87.8922C58.6179 88.9955 56.9913 89.9662 55.291 90.7926C53.9872 91.4051 52.5949 91.9059 51.4443 91.9059C50.2936 91.9059 48.8967 91.4051 47.5976 90.7926C46.1871 90.1291 44.5262 89.1589 42.7353 87.8922C38.295 84.7039 34.3582 80.8671 31.0566 76.5104C23.2709 66.3258 16.8537 50.9306 19.6191 30.1579C19.794 28.8251 20.3414 27.5686 21.1982 26.5329C22.055 25.4972 23.1865 24.7239 24.4628 24.3024C27.5158 23.3048 32.7081 21.6582 37.8583 20.2663C42.8926 18.8975 48.2427 17.6676 51.4443 17.6676Z" fill="#23BAD8"/>
<path d="M62.3014 38.7185C62.6955 38.3433 63.2199 38.1359 63.7639 38.14C64.308 38.1441 64.8292 38.3595 65.2175 38.7405C65.6059 39.1216 65.831 39.6387 65.8454 40.1825C65.8597 40.7264 65.6623 41.2547 65.2946 41.6557L48.3784 61.1493C48.1865 61.356 47.9548 61.5219 47.6973 61.6371C47.4398 61.7522 47.1618 61.8143 46.8797 61.8195C46.5977 61.8247 46.3175 61.773 46.0559 61.6675C45.7943 61.5619 45.5567 61.4047 45.3572 61.2053L37.9554 53.8034C37.7492 53.6113 37.5839 53.3797 37.4692 53.1223C37.3546 52.865 37.2929 52.5872 37.2879 52.3055C37.283 52.0238 37.3348 51.7439 37.4403 51.4827C37.5458 51.2214 37.7029 50.9841 37.9021 50.7849C38.1013 50.5857 38.3386 50.4286 38.5999 50.3231C38.8611 50.2176 39.1409 50.1658 39.4226 50.1707C39.7044 50.1757 39.9822 50.2374 40.2395 50.352C40.4969 50.4667 40.7285 50.632 40.9206 50.8382L46.7783 56.6931L62.2483 38.78C62.2657 38.7585 62.2844 38.7379 62.3042 38.7185H62.3014Z" fill="white"/>
<path d="M17.2767 24.3607L12.7194 20.8748L9.2334 25.4325L13.7907 28.918L17.2767 24.3607Z" fill="#23BAD8"/>
<path d="M80.3089 9.55385L75.7516 6.0679L72.2656 10.6257L76.8229 14.1112L80.3089 9.55385Z" fill="#23BAD8"/>
<path d="M19.1133 11.0099C19.5782 11.0099 20.0371 11.117 20.4524 11.324C20.8681 11.5309 21.2291 11.8311 21.5065 12.2009L23.2251 9.9747L18.0679 6.0679L14.1235 11.176L16.3465 12.8602C16.5688 12.3137 16.9511 11.8455 17.4438 11.5161C17.9371 11.1862 18.5184 11.0103 19.1133 11.0099Z" fill="#23BAD8"/>
<path d="M91.4548 42.9385C91.8077 43.2412 92.0863 43.6213 92.2668 44.0487C92.4476 44.4764 92.5262 44.9393 92.496 45.4007L95.2499 44.8297L93.8787 38.5067L87.5592 39.8161L88.1501 42.5418C88.6746 42.2716 89.2696 42.1651 89.8581 42.2359C90.4473 42.3066 91.003 42.5516 91.4548 42.9385Z" fill="#23BAD8"/>
<path d="M47.0158 3.54925C46.5659 3.66652 46.0948 3.67857 45.6408 3.58308C45.1863 3.4877 44.7613 3.28826 44.3995 3.00042L43.298 5.58817L49.274 8.06767L51.8023 2.12981L49.2263 1.06076C49.1491 1.64573 48.8973 2.1952 48.5035 2.63828C48.1095 3.08193 47.5913 3.39874 47.0158 3.54925Z" fill="#23BAD8"/>
<path d="M4.52297 19.0596C6.57309 19.0596 8.23487 17.3979 8.23487 15.3477C8.23487 13.2975 6.57309 11.6358 4.52297 11.6358C2.47284 11.6358 0.811035 13.2975 0.811035 15.3477C0.811035 17.3979 2.47284 19.0596 4.52297 19.0596Z" fill="#23BAD8"/>
<path d="M91.2891 27.4114C93.3392 27.4114 95.001 26.269 95.001 24.8595C95.001 23.45 93.3392 22.3075 91.2891 22.3075C89.239 22.3075 87.5771 23.45 87.5771 24.8595C87.5771 26.269 89.239 27.4114 91.2891 27.4114Z" fill="#23BAD8"/>
</svg>
