<svg width="24" height="25" viewBox="0 0 24 25" fill="none" xmlns="http://www.w3.org/2000/svg">
<path d="M21.9995 8.895V4.355C21.9995 2.945 21.3595 2.375 19.7695 2.375H15.7295C14.1395 2.375 13.4995 2.945 13.4995 4.355V8.885C13.4995 10.305 14.1395 10.865 15.7295 10.865H19.7695C21.3595 10.875 21.9995 10.305 21.9995 8.895Z" fill="#E2E2E2"/>
<path d="M21.9995 20.145V16.105C21.9995 14.515 21.3595 13.875 19.7695 13.875H15.7295C14.1395 13.875 13.4995 14.515 13.4995 16.105V20.145C13.4995 21.735 14.1395 22.375 15.7295 22.375H19.7695C21.3595 22.375 21.9995 21.735 21.9995 20.145Z" fill="#E2E2E2"/>
<path d="M10.5 8.895V4.355C10.5 2.945 9.86 2.375 8.27 2.375H4.23C2.64 2.375 2 2.945 2 4.355V8.885C2 10.305 2.64 10.865 4.23 10.865H8.27C9.86 10.875 10.5 10.305 10.5 8.895Z" fill="#E2E2E2"/>
<path d="M10.5 20.145V16.105C10.5 14.515 9.86 13.875 8.27 13.875H4.23C2.64 13.875 2 14.515 2 16.105V20.145C2 21.735 2.64 22.375 4.23 22.375H8.27C9.86 22.375 10.5 21.735 10.5 20.145Z" fill="#E2E2E2"/>
</svg>
