<svg width="25" height="23" viewBox="0 0 25 23" fill="none" xmlns="http://www.w3.org/2000/svg">
<path d="M20.7754 9.03197L21.0521 8.39522C21.5387 7.26878 22.4298 6.36563 23.5496 5.86397L24.4035 5.48259C24.5071 5.43494 24.5948 5.35858 24.6564 5.26257C24.7179 5.16656 24.7506 5.05493 24.7506 4.9409C24.7506 4.82688 24.7179 4.71524 24.6564 4.61923C24.5948 4.52322 24.5071 4.44687 24.4035 4.39922L23.5969 4.04034C22.4489 3.52439 21.5426 2.58783 21.0645 1.42359L20.7799 0.736216C20.7381 0.629739 20.6652 0.538326 20.5706 0.473894C20.4761 0.409462 20.3644 0.375 20.25 0.375C20.1356 0.375 20.0239 0.409462 19.9294 0.473894C19.8348 0.538326 19.7619 0.629739 19.7201 0.736216L19.4355 1.42247C18.9579 2.58693 18.052 3.52389 16.9042 4.04034L16.0965 4.40034C15.9932 4.44813 15.9058 4.52448 15.8445 4.62036C15.7832 4.71625 15.7506 4.82767 15.7506 4.94147C15.7506 5.05526 15.7832 5.16668 15.8445 5.26257C15.9058 5.35846 15.9932 5.4348 16.0965 5.48259L16.9515 5.86284C18.0711 6.365 18.9618 7.26856 19.4479 8.39522L19.7246 9.03197C19.9271 9.49772 20.5717 9.49772 20.7754 9.03197ZM4.275 17.2512H6.69825L7.37325 15.5637H10.6268L11.3017 17.2512H13.725L10.125 8.25122H7.875L4.275 17.2512ZM9 11.4968L9.72675 13.3137H8.27325L9 11.4968ZM14.625 17.2512V8.25122H16.875V17.2512H14.625ZM1.125 2.62622C0.826631 2.62622 0.540483 2.74474 0.329505 2.95572C0.118526 3.1667 0 3.45285 0 3.75122V21.7512C0 22.0496 0.118526 22.3357 0.329505 22.5467C0.540483 22.7577 0.826631 22.8762 1.125 22.8762H21.375C21.6734 22.8762 21.9595 22.7577 22.1705 22.5467C22.3815 22.3357 22.5 22.0496 22.5 21.7512V11.6262H20.25V20.6262H2.25V4.87622H13.5V2.62622H1.125Z" fill="black"/>
</svg>
