<svg width="24" height="25" viewBox="0 0 24 25" fill="none" xmlns="http://www.w3.org/2000/svg">
<path d="M9.09 9.375C9.3251 8.70667 9.78915 8.14311 10.4 7.78413C11.0108 7.42516 11.7289 7.29394 12.4272 7.41371C13.1255 7.53349 13.7588 7.89652 14.2151 8.43853C14.6713 8.98053 14.9211 9.66652 14.92 10.375C14.92 12.375 11.92 13.375 11.92 13.375M12 17.375H12.01M22 12.375C22 17.8978 17.5228 22.375 12 22.375C6.47715 22.375 2 17.8978 2 12.375C2 6.85215 6.47715 2.375 12 2.375C17.5228 2.375 22 6.85215 22 12.375Z" stroke="#E2E2E2" stroke-width="2" stroke-linecap="round" stroke-linejoin="round"/>
</svg>
