<svg width="24" height="25" viewBox="0 0 24 25" fill="none" xmlns="http://www.w3.org/2000/svg">
<path d="M12 15.375C13.6569 15.375 15 14.0319 15 12.375C15 10.7181 13.6569 9.375 12 9.375C10.3431 9.375 9 10.7181 9 12.375C9 14.0319 10.3431 15.375 12 15.375Z" stroke="black" stroke-width="2" stroke-linecap="round" stroke-linejoin="round"/>
<path d="M18.7273 15.1023C18.6063 15.3765 18.5702 15.6806 18.6236 15.9755C18.6771 16.2704 18.8177 16.5426 19.0273 16.7568L19.0818 16.8114C19.2509 16.9802 19.385 17.1807 19.4765 17.4015C19.568 17.6222 19.6151 17.8588 19.6151 18.0977C19.6151 18.3367 19.568 18.5733 19.4765 18.794C19.385 19.0147 19.2509 19.2152 19.0818 19.3841C18.913 19.5531 18.7124 19.6872 18.4917 19.7787C18.271 19.8702 18.0344 19.9173 17.7955 19.9173C17.5565 19.9173 17.3199 19.8702 17.0992 19.7787C16.8785 19.6872 16.678 19.5531 16.5091 19.3841L16.4545 19.3295C16.2403 19.12 15.9682 18.9794 15.6733 18.9259C15.3784 18.8724 15.0742 18.9085 14.8 19.0295C14.5311 19.1448 14.3018 19.3361 14.1403 19.58C13.9788 19.8239 13.8921 20.1097 13.8909 20.4023V20.5568C13.8909 21.039 13.6994 21.5015 13.3584 21.8425C13.0174 22.1834 12.5549 22.375 12.0727 22.375C11.5905 22.375 11.1281 22.1834 10.7871 21.8425C10.4461 21.5015 10.2545 21.039 10.2545 20.5568V20.475C10.2475 20.1741 10.1501 19.8823 9.97501 19.6375C9.79991 19.3926 9.55521 19.2062 9.27273 19.1023C8.99853 18.9813 8.69437 18.9452 8.39947 18.9986C8.10456 19.0521 7.83244 19.1927 7.61818 19.4023L7.56364 19.4568C7.39478 19.6259 7.19425 19.76 6.97353 19.8515C6.7528 19.943 6.51621 19.9901 6.27727 19.9901C6.03834 19.9901 5.80174 19.943 5.58102 19.8515C5.36029 19.76 5.15977 19.6259 4.99091 19.4568C4.82186 19.288 4.68775 19.0874 4.59626 18.8667C4.50476 18.646 4.45766 18.4094 4.45766 18.1705C4.45766 17.9315 4.50476 17.6949 4.59626 17.4742C4.68775 17.2535 4.82186 17.053 4.99091 16.8841L5.04545 16.8295C5.25503 16.6153 5.39562 16.3432 5.4491 16.0483C5.50257 15.7534 5.46647 15.4492 5.34545 15.175C5.23022 14.9061 5.03887 14.6768 4.79497 14.5153C4.55107 14.3538 4.26526 14.2671 3.97273 14.2659H3.81818C3.33597 14.2659 2.87351 14.0744 2.53253 13.7334C2.19156 13.3924 2 12.9299 2 12.4477C2 11.9655 2.19156 11.5031 2.53253 11.1621C2.87351 10.8211 3.33597 10.6295 3.81818 10.6295H3.9C4.2009 10.6225 4.49273 10.5251 4.73754 10.35C4.98236 10.1749 5.16883 9.93021 5.27273 9.64773C5.39374 9.37353 5.42984 9.06937 5.37637 8.77447C5.3229 8.47956 5.18231 8.20744 4.97273 7.99318L4.91818 7.93864C4.74913 7.76978 4.61503 7.56925 4.52353 7.34853C4.43203 7.1278 4.38493 6.89121 4.38493 6.65227C4.38493 6.41334 4.43203 6.17674 4.52353 5.95602C4.61503 5.73529 4.74913 5.53477 4.91818 5.36591C5.08704 5.19686 5.28757 5.06275 5.50829 4.97126C5.72901 4.87976 5.96561 4.83266 6.20455 4.83266C6.44348 4.83266 6.68008 4.87976 6.9008 4.97126C7.12152 5.06275 7.32205 5.19686 7.49091 5.36591L7.54545 5.42045C7.75971 5.63003 8.03183 5.77062 8.32674 5.8241C8.62164 5.87757 8.9258 5.84147 9.2 5.72045H9.27273C9.54161 5.60522 9.77093 5.41387 9.93245 5.16997C10.094 4.92607 10.1807 4.64026 10.1818 4.34773V4.19318C10.1818 3.71097 10.3734 3.24851 10.7144 2.90753C11.0553 2.56656 11.5178 2.375 12 2.375C12.4822 2.375 12.9447 2.56656 13.2856 2.90753C13.6266 3.24851 13.8182 3.71097 13.8182 4.19318V4.275C13.8193 4.56753 13.906 4.85334 14.0676 5.09724C14.2291 5.34114 14.4584 5.53249 14.7273 5.64773C15.0015 5.76874 15.3056 5.80484 15.6005 5.75137C15.8954 5.6979 16.1676 5.55731 16.3818 5.34773L16.4364 5.29318C16.6052 5.12413 16.8057 4.99003 17.0265 4.89853C17.2472 4.80703 17.4838 4.75993 17.7227 4.75993C17.9617 4.75993 18.1983 4.80703 18.419 4.89853C18.6397 4.99003 18.8402 5.12413 19.0091 5.29318C19.1781 5.46204 19.3122 5.66257 19.4037 5.88329C19.4952 6.10401 19.5423 6.34061 19.5423 6.57955C19.5423 6.81848 19.4952 7.05508 19.4037 7.2758C19.3122 7.49652 19.1781 7.69705 19.0091 7.86591L18.9545 7.92045C18.745 8.13471 18.6044 8.40683 18.5509 8.70174C18.4974 8.99664 18.5335 9.3008 18.6545 9.575V9.64773C18.7698 9.91661 18.9611 10.1459 19.205 10.3074C19.4489 10.469 19.7347 10.5557 20.0273 10.5568H20.1818C20.664 10.5568 21.1265 10.7484 21.4675 11.0894C21.8084 11.4303 22 11.8928 22 12.375C22 12.8572 21.8084 13.3197 21.4675 13.6606C21.1265 14.0016 20.664 14.1932 20.1818 14.1932H20.1C19.8075 14.1943 19.5217 14.281 19.2778 14.4426C19.0339 14.6041 18.8425 14.8334 18.7273 15.1023Z" stroke="black" stroke-width="2" stroke-linecap="round" stroke-linejoin="round"/>
</svg>
