<svg width="72" height="73" viewBox="0 0 72 73" fill="none" xmlns="http://www.w3.org/2000/svg">
<rect y="0.375" width="72" height="72" rx="36" fill="#191818"/>
<path d="M47.9434 32.2364C47.8897 32.0927 47.7996 31.9663 47.6825 31.8703C47.5654 31.7744 47.4255 31.7123 47.2773 31.6905L38.0731 30.3374L44.9199 17.6607C44.9911 17.529 45.0276 17.3804 45.0259 17.2297C45.0241 17.0791 44.9841 16.9315 44.9098 16.8016C44.8356 16.6717 44.7296 16.564 44.6024 16.4892C44.4753 16.4143 44.3313 16.375 44.1849 16.375H33.7687C33.615 16.3749 33.4641 16.4182 33.3326 16.5001C33.2011 16.582 33.0939 16.6994 33.0227 16.8396L24.0952 34.4435C24.0371 34.5581 24.0048 34.6847 24.0005 34.8139C23.9962 34.9431 24.0201 35.0716 24.0705 35.19C24.1208 35.3084 24.1963 35.4137 24.2914 35.4982C24.3865 35.5827 24.4988 35.6442 24.62 35.6781L32.0093 37.7546L27.7453 55.3014C27.6994 55.4914 27.7176 55.6917 27.7967 55.8697C27.8758 56.0476 28.0113 56.1928 28.1809 56.2813C28.3506 56.3699 28.5444 56.3967 28.7308 56.3573C28.9171 56.3179 29.085 56.2147 29.207 56.0645L47.8063 33.1008C47.9019 32.9823 47.9649 32.8397 47.989 32.6878C48.0131 32.5358 47.9974 32.38 47.9434 32.2364Z" fill="#00F45E"/>
</svg>
