<svg width="88" height="88" viewBox="0 0 88 88" fill="none" xmlns="http://www.w3.org/2000/svg">
<rect width="88" height="88" rx="44" fill="#F0D7FF"/>
<path d="M17.75 26.5C17.75 21.6518 21.7134 17.75 26.5671 17.75H36.1482C38.8798 17.75 41.4618 19.0069 43.1333 21.1605L44.8542 23.3766L44.8569 23.3783C44.8569 23.3783 57.3671 23.3812 61.4329 23.3812C66.2866 23.3812 70.25 27.283 70.25 32.1312V53.9899C70.0022 53.8818 69.7415 53.7956 69.47 53.7339L65.2119 52.7657C64.2272 52.5417 63.4583 51.7728 63.2343 50.7881L62.2661 46.53C61.8133 44.5383 60.0425 43.125 58 43.125C55.9575 43.125 54.1867 44.5383 53.7339 46.53L52.7657 50.7881C52.5417 51.7728 51.7728 52.5417 50.7881 52.7657L46.53 53.7339C44.5383 54.1867 43.125 55.9575 43.125 58C43.125 60.0425 44.5383 61.8133 46.53 62.2661L50.7881 63.2343C51.701 63.4419 52.4283 64.1179 52.7081 65H26.5671C21.7134 65 17.75 61.0982 17.75 56.25V26.5Z" fill="#B237FF"/>
<path d="M58 45.75C58.817 45.75 59.5253 46.3153 59.7064 47.1119L60.6747 51.37C61.1225 53.3396 62.6604 54.8775 64.63 55.3253L68.8881 56.2936C69.6847 56.4747 70.25 57.183 70.25 58C70.25 58.817 69.6847 59.5253 68.8881 59.7064L64.63 60.6747C62.6604 61.1225 61.1225 62.6604 60.6747 64.63L59.7064 68.8881C59.5253 69.6847 58.817 70.25 58 70.25C57.183 70.25 56.4747 69.6847 56.2936 68.8881L55.3253 64.63C54.8775 62.6604 53.3396 61.1225 51.37 60.6747L47.1119 59.7064C46.3153 59.5253 45.75 58.817 45.75 58C45.75 57.183 46.3153 56.4747 47.1119 56.2936L51.37 55.3253C53.3396 54.8775 54.8775 53.3396 55.3253 51.37L56.2936 47.1119C56.4747 46.3153 57.183 45.75 58 45.75Z" fill="#B237FF"/>
</svg>
