<svg width="88" height="88" viewBox="0 0 88 88" fill="none" xmlns="http://www.w3.org/2000/svg">
<rect width="88" height="88" rx="44" fill="#FFF4D7"/>
<g clip-path="url(#clip0_117_1069)">
<path d="M49.8256 27.939L53.1111 24.7365C53.3451 24.5086 53.5107 24.2198 53.5891 23.9027C53.6674 23.5855 53.6555 23.2528 53.5546 22.9421C53.4537 22.6314 53.2678 22.3552 53.018 22.1447C52.7682 21.9341 52.4645 21.7977 52.1412 21.7509L47.5996 21.0913L45.5694 16.9758C45.4082 16.7029 45.1787 16.4767 44.9034 16.3196C44.6281 16.1625 44.3166 16.0799 43.9997 16.0799C43.6827 16.0799 43.3713 16.1625 43.096 16.3196C42.8207 16.4767 42.5911 16.7029 42.4299 16.9758L40.3999 21.0911L35.8583 21.7507C35.5351 21.7975 35.2313 21.934 34.9816 22.1445C34.7318 22.355 34.5459 22.6313 34.445 22.9419C34.3441 23.2526 34.3321 23.5854 34.4105 23.9025C34.4889 24.2196 34.6545 24.5085 34.8885 24.7364L38.1739 27.9389L37.398 32.4624C37.3427 32.7843 37.3786 33.1153 37.5017 33.4178C37.6247 33.7204 37.83 33.9825 38.0942 34.1744C38.3585 34.3664 38.6712 34.4806 38.9969 34.504C39.3227 34.5275 39.6485 34.4594 39.9376 34.3073L43.9997 32.1712L48.062 34.3075C48.351 34.4595 48.6769 34.5277 49.0026 34.5042C49.3284 34.4807 49.6411 34.3666 49.9053 34.1746C50.1696 33.9826 50.3748 33.7206 50.4979 33.418C50.6209 33.1155 50.6568 32.7845 50.6016 32.4626L49.8256 27.939Z" fill="#FFB600"/>
<path d="M71.9132 28.1151C71.8122 27.8044 71.6263 27.5283 71.3765 27.3178C71.1268 27.1073 70.8231 26.9708 70.4999 26.9238L65.959 26.2641L63.927 22.149C63.7661 21.8759 63.5366 21.6496 63.2614 21.4924C62.9862 21.3351 62.6747 21.2524 62.3577 21.2524C62.0408 21.2524 61.7293 21.3351 61.4541 21.4924C61.1788 21.6496 60.9494 21.8759 60.7884 22.149L58.7584 26.2641L54.2177 26.9238C53.8945 26.9707 53.5909 27.107 53.3412 27.3175C53.0914 27.5279 52.9055 27.804 52.8045 28.1145C52.7036 28.4251 52.6915 28.7577 52.7696 29.0747C52.8478 29.3918 53.0132 29.6807 53.247 29.9086L56.5333 33.1111L55.7573 37.6349C55.702 37.9567 55.7378 38.2877 55.8607 38.5902C55.9837 38.8928 56.1888 39.1549 56.453 39.3469C56.7171 39.539 57.0297 39.6533 57.3554 39.6769C57.6811 39.7005 58.007 39.6325 58.2961 39.4806L62.3575 37.3456L66.4197 39.4806C66.7088 39.6327 67.0346 39.7009 67.3604 39.6774C67.6862 39.6539 67.9989 39.5397 68.2631 39.3478C68.5274 39.1558 68.7326 38.8937 68.8557 38.5912C68.9787 38.2886 69.0146 37.9577 68.9593 37.6358L68.1836 33.112L71.4692 29.9095C71.7033 29.6817 71.869 29.3928 71.9475 29.0757C72.0259 28.7586 72.014 28.4258 71.9132 28.1151Z" fill="#FFB600"/>
<path d="M33.7812 26.9238L29.2404 26.2641L27.2104 22.149C27.0659 21.8561 26.8424 21.6096 26.565 21.4372C26.2877 21.2648 25.9677 21.1734 25.6411 21.1734C25.3146 21.1734 24.9945 21.2648 24.7172 21.4372C24.4399 21.6096 24.2163 21.8561 24.0718 22.149L22.0397 26.2641L17.4988 26.9238C17.1756 26.9707 16.8719 27.1071 16.6221 27.3177C16.3724 27.5282 16.1865 27.8044 16.0856 28.115C15.9847 28.4257 15.9727 28.7584 16.0511 29.0755C16.1294 29.3926 16.295 29.6814 16.529 29.9093L19.8151 33.112L19.0392 37.6358C18.9839 37.9577 19.0198 38.2886 19.1429 38.5912C19.2659 38.8937 19.4712 39.1558 19.7354 39.3477C19.9997 39.5397 20.3123 39.6539 20.6381 39.6774C20.9639 39.7008 21.2897 39.6327 21.5788 39.4806L25.641 37.3456L29.7024 39.4806C29.9915 39.6327 30.3173 39.7008 30.6431 39.6774C30.9689 39.6539 31.2815 39.5397 31.5458 39.3477C31.81 39.1558 32.0153 38.8937 32.1383 38.5912C32.2614 38.2886 32.2973 37.9577 32.242 37.6358L31.4661 33.112L34.7524 29.9095C34.9862 29.6815 35.1516 29.3927 35.2297 29.0756C35.3079 28.7585 35.2958 28.4259 35.1948 28.1154C35.0938 27.8048 34.908 27.5287 34.6582 27.3183C34.4085 27.1079 34.1043 26.9707 33.7812 26.9238Z" fill="#FFB600"/>
<path d="M61.5 42.25H26.5C25.1081 42.2515 23.7736 42.8051 22.7894 43.7894C21.8051 44.7736 21.2515 46.1081 21.25 47.5V61.5C21.2515 62.8919 21.8051 64.2264 22.7894 65.2106C23.7736 66.1949 25.1081 66.7485 26.5 66.75H38.0253L42.7628 71.4873C42.9252 71.6498 43.1181 71.7788 43.3304 71.8667C43.5427 71.9547 43.7702 72 44 72C44.2298 72 44.4574 71.9547 44.6696 71.8667C44.8819 71.7788 45.0748 71.6498 45.2373 71.4873L49.9747 66.75H61.5C62.8919 66.7485 64.2264 66.1949 65.2106 65.2106C66.1949 64.2264 66.7485 62.8919 66.75 61.5V47.5C66.7485 46.1081 66.1949 44.7736 65.2106 43.7894C64.2264 42.8051 62.8919 42.2515 61.5 42.25ZM58 59.75H30C29.5359 59.75 29.0908 59.5656 28.7626 59.2374C28.4344 58.9093 28.25 58.4641 28.25 58C28.25 57.5359 28.4344 57.0908 28.7626 56.7626C29.0908 56.4344 29.5359 56.25 30 56.25H58C58.4641 56.25 58.9092 56.4344 59.2374 56.7626C59.5656 57.0908 59.75 57.5359 59.75 58C59.75 58.4641 59.5656 58.9093 59.2374 59.2374C58.9092 59.5656 58.4641 59.75 58 59.75ZM58 52.75H30C29.5359 52.75 29.0908 52.5656 28.7626 52.2374C28.4344 51.9092 28.25 51.4641 28.25 51C28.25 50.5359 28.4344 50.0908 28.7626 49.7626C29.0908 49.4344 29.5359 49.25 30 49.25H58C58.4641 49.25 58.9092 49.4344 59.2374 49.7626C59.5656 50.0908 59.75 50.5359 59.75 51C59.75 51.4641 59.5656 51.9092 59.2374 52.2374C58.9092 52.5656 58.4641 52.75 58 52.75Z" fill="#FFB600"/>
</g>
<defs>
<clipPath id="clip0_117_1069">
<rect width="56" height="56" fill="white" transform="translate(16 16)"/>
</clipPath>
</defs>
</svg>
