<svg width="88" height="88" viewBox="0 0 88 88" fill="none" xmlns="http://www.w3.org/2000/svg">
<rect width="88" height="88" rx="44" fill="#D7FFF1"/>
<path d="M55.2245 38.6222C56.0452 36.944 57.468 35.6823 59.2373 35.0732C59.9775 34.8177 60.7405 34.7197 61.5 34.7162V24.75C61.5 21.8555 59.1445 19.5 56.25 19.5H28.25C25.3555 19.5 23 21.8555 23 24.75V59.75C23 62.6445 25.3555 65 28.25 65H45.6607L45.4717 64.4505C44.7105 62.2298 44.8592 59.8568 45.8865 57.7585L55.2245 38.6222ZM30 30H51C51.9678 30 52.75 30.784 52.75 31.75C52.75 32.716 51.9678 33.5 51 33.5H30C29.0322 33.5 28.25 32.716 28.25 31.75C28.25 30.784 29.0322 30 30 30ZM30 37H49.25C50.2178 37 51 37.784 51 38.75C51 39.716 50.2178 40.5 49.25 40.5H30C29.0322 40.5 28.25 39.716 28.25 38.75C28.25 37.784 29.0322 37 30 37ZM42.25 54.5H30C29.0322 54.5 28.25 53.716 28.25 52.75C28.25 51.784 29.0322 51 30 51H42.25C43.2178 51 44 51.784 44 52.75C44 53.716 43.2178 54.5 42.25 54.5ZM30 47.5C29.0322 47.5 28.25 46.716 28.25 45.75C28.25 44.784 29.0322 44 30 44H45.75C46.7178 44 47.5 44.784 47.5 45.75C47.5 46.716 46.7178 47.5 45.75 47.5H30ZM67.807 44.7612L58.4655 63.9045C57.8478 65.1663 56.7785 66.1113 55.4538 66.5662L52.1445 67.7038C51.9572 67.7685 51.763 67.8 51.5758 67.8C50.8495 67.8 50.1705 67.345 49.922 66.6187L48.7827 63.3095C48.326 61.9795 48.4153 60.555 49.0312 59.2967L58.3727 40.157C58.7805 39.317 59.4945 38.687 60.3783 38.3825C61.2603 38.078 62.2105 38.134 63.0505 38.547L66.197 40.0817C67.037 40.4912 67.667 41.2052 67.9715 42.089C68.276 42.9727 68.2183 43.9212 67.807 44.7612Z" fill="#00D589"/>
</svg>
