<svg width="65" height="64" viewBox="0 0 65 64" fill="none" xmlns="http://www.w3.org/2000/svg">
<rect x="0.5" width="64" height="64" rx="32" fill="#FFD9E5"/>
<g clip-path="url(#clip0_117_1036)">
<path d="M32.5 52C21.4719 52 12.5 43.0281 12.5 32C12.5 20.9719 21.4719 12 32.5 12C43.5281 12 52.5 20.9719 52.5 32C52.5 43.0281 43.5281 52 32.5 52Z" fill="#FE0050"/>
<path d="M32.5 45.3594C25.1337 45.3594 19.1406 39.3663 19.1406 32C19.1406 24.6337 25.1337 18.6406 32.5 18.6406C39.8663 18.6406 45.8594 24.6337 45.8594 32C45.8594 39.3663 39.8663 45.3594 32.5 45.3594Z" fill="white"/>
<path d="M32.5 38.3281C29.0106 38.3281 26.1719 35.4894 26.1719 32C26.1719 28.5106 29.0106 25.6719 32.5 25.6719C35.9894 25.6719 38.8281 28.5106 38.8281 32C38.8281 35.4894 35.9894 38.3281 32.5 38.3281Z" fill="#FE0050"/>
<path d="M32.5 25.6719V38.3281C35.9894 38.3281 38.8281 35.4894 38.8281 32C38.8281 28.5106 35.9894 25.6719 32.5 25.6719Z" fill="#E10555"/>
<path d="M32.5 33.1719C32.2 33.1719 31.9 33.0574 31.6714 32.8286C31.2137 32.3711 31.2137 31.6289 31.6714 31.1714L40.2893 22.5536C40.7468 22.0958 41.489 22.0958 41.9464 22.5536C42.4042 23.011 42.4042 23.7529 41.9464 24.2107L33.3286 32.8286C33.1 33.0574 32.8 33.1719 32.5 33.1719Z" fill="#2D2D55"/>
<path d="M41.9468 22.5536L31.6719 32.8286C31.9005 33.0574 32.2004 33.1719 32.5004 33.1719C32.8004 33.1719 33.1004 33.0574 33.329 32.8286L41.9468 24.2107C42.4046 23.7532 42.4046 23.011 41.9468 22.5536Z" fill="#0A0A48"/>
<path d="M45.7065 24.9407C45.6738 24.9407 45.6409 24.9392 45.6079 24.9367L41.0229 24.5501C40.4535 24.5019 40.0015 24.0502 39.9536 23.4807L39.5666 18.8955C39.5377 18.5515 39.6619 18.2125 39.906 17.9684L44.8776 12.9967C45.2002 12.6742 45.6805 12.568 46.109 12.7248C46.5372 12.8814 46.8356 13.2723 46.8741 13.7267L47.1774 17.3257L50.7767 17.6293C51.2311 17.6678 51.622 17.9662 51.7789 18.3947C51.9354 18.8228 51.8292 19.3032 51.5066 19.6258L46.535 24.5974C46.3144 24.818 46.0159 24.9407 45.7065 24.9407Z" fill="#FFC300"/>
<path d="M50.7731 17.6293L47.1741 17.3256L40.2891 24.2107C40.4792 24.4008 40.7343 24.5259 41.019 24.55L45.6043 24.9367C45.6373 24.9391 45.6699 24.9407 45.7029 24.9407C46.0123 24.9407 46.3108 24.818 46.5314 24.5974L51.5031 19.6257C51.8256 19.3032 51.9318 18.8228 51.7753 18.3943C51.6184 17.9662 51.2275 17.6677 50.7731 17.6293Z" fill="#FAB400"/>
</g>
<defs>
<clipPath id="clip0_117_1036">
<rect width="40" height="40" fill="white" transform="translate(12.5 12)"/>
</clipPath>
</defs>
</svg>
