<svg width="64" height="64" viewBox="0 0 64 64" fill="none" xmlns="http://www.w3.org/2000/svg">
<rect width="64" height="64" rx="32" fill="#DAF9FF"/>
<g clip-path="url(#clip0_117_1019)">
<path d="M33.6328 15.3232V17.7684H49.4883C49.0345 21.7494 46.3994 24.8134 43.2267 24.8134H33.6328V27.2586H43.2267C45.6245 27.2586 47.8609 26.1077 49.5244 24.0177C51.1225 22.0098 52.0027 19.3562 52.0027 16.5458V15.3232H33.6328Z" fill="#23BAD8"/>
<path d="M20.7759 24.8134C17.6033 24.8134 14.9682 21.7494 14.5143 17.7684H30.3698V15.3232H12V16.5458C12 19.3562 12.8802 22.0098 14.4784 24.0177C16.1418 26.1076 18.3783 27.2586 20.776 27.2586H30.37V24.8134H20.7759Z" fill="#23BAD8"/>
<path d="M33.8831 45.9379V35.0158H31.1875L32.0026 45.9379H33.8831Z" fill="#23BAD8"/>
<path d="M31.9976 35.0154H30.1172V45.9374H31.9976V35.0154Z" fill="#23BAD8"/>
<path d="M39.9927 47.5698V44.3621H31.9973L30.3672 49.1999L39.9927 47.5698Z" fill="#23BAD8"/>
<path d="M32.0032 44.3621H24.0078V47.5698L32.0032 49.1999V44.3621Z" fill="#23BAD8"/>
<path d="M44.3145 49.7512C44.3145 48.5464 43.3379 47.5698 42.1331 47.5698H39.9953H32V50.7773H44.3145V49.7512Z" fill="#23BAD8"/>
<path d="M24.0067 47.5698H21.8689C20.6641 47.5698 19.6875 48.5464 19.6875 49.7512V50.7773H32.0021V47.5698H24.0067Z" fill="#23BAD8"/>
<path d="M43.2214 26.3624V13.2227H31.9973L30.3672 24.4741L31.9973 37.5438H32.04C38.2153 37.5438 43.2214 32.5378 43.2214 26.3624Z" fill="#23BAD8"/>
<path d="M20.7734 13.2227V26.3625C20.7734 32.5379 25.7796 37.5439 31.9548 37.5439H31.9975V13.2227H20.7734Z" fill="#23BAD8"/>
<path d="M36.7347 23.1642L33.4613 22.6885L31.9973 19.7223L30.3672 23.9984L31.9973 27.194L34.9252 28.7331L34.3659 25.4731L36.7347 23.1642Z" fill="white"/>
<path d="M30.5391 22.6885L27.2656 23.1642L29.6344 25.4731L29.0752 28.7331L32.003 27.194V19.7223L30.5391 22.6885Z" fill="white"/>
</g>
<defs>
<clipPath id="clip0_117_1019">
<rect width="40" height="40" fill="white" transform="translate(12 12)"/>
</clipPath>
</defs>
</svg>
