<svg width="72" height="73" viewBox="0 0 72 73" fill="none" xmlns="http://www.w3.org/2000/svg">
<rect y="0.375" width="72" height="72" rx="36" fill="white"/>
<g clip-path="url(#clip0_117_1262)">
<path d="M37.6328 19.6982V22.1435H53.4883C53.0345 26.1245 50.3994 29.1885 47.2267 29.1885H37.6328V31.6337H47.2267C49.6245 31.6337 51.8609 30.4828 53.5244 28.3928C55.1225 26.3849 56.0027 23.7313 56.0027 20.9209V19.6982H37.6328Z" fill="#FFB600"/>
<path d="M24.7759 29.1885C21.6033 29.1885 18.9682 26.1245 18.5143 22.1435H34.3698V19.6982H16V20.9209C16 23.7312 16.8802 26.3849 18.4784 28.3928C20.1418 30.4827 22.3783 31.6337 24.776 31.6337H34.37V29.1885H24.7759Z" fill="#FFB600"/>
<path d="M37.8831 50.313V39.3909H35.1875L36.0026 50.313H37.8831Z" fill="#FFB600"/>
<path d="M35.9976 39.3904H34.1172V50.3124H35.9976V39.3904Z" fill="#FFB600"/>
<path d="M43.9927 51.9447V48.7371H35.9973L34.3672 53.5749L43.9927 51.9447Z" fill="#FFB600"/>
<path d="M36.0032 48.7371H28.0078V51.9447L36.0032 53.5749V48.7371Z" fill="#FFB600"/>
<path d="M48.3145 54.1262C48.3145 52.9215 47.3379 51.9448 46.1331 51.9448H43.9953H36V55.1524H48.3145V54.1262Z" fill="#FFB600"/>
<path d="M28.0067 51.9448H25.8689C24.6641 51.9448 23.6875 52.9215 23.6875 54.1262V55.1524H36.0021V51.9448H28.0067Z" fill="#FFB600"/>
<path d="M47.2214 30.7374V17.5977H35.9973L34.3672 28.8491L35.9973 41.9188H36.04C42.2153 41.9188 47.2214 36.9128 47.2214 30.7374Z" fill="#FFB600"/>
<path d="M24.7734 17.5977V30.7375C24.7734 36.9129 29.7796 41.9189 35.9548 41.9189H35.9975V17.5977H24.7734Z" fill="#FFB600"/>
<path d="M40.7347 27.539L37.4613 27.0633L35.9973 24.0972L34.3672 28.3733L35.9973 31.5689L38.9252 33.108L38.3659 29.8479L40.7347 27.539Z" fill="white"/>
<path d="M34.5391 27.0633L31.2656 27.539L33.6344 29.8479L33.0752 33.108L36.003 31.5689V24.0972L34.5391 27.0633Z" fill="white"/>
</g>
<defs>
<clipPath id="clip0_117_1262">
<rect width="40" height="40" fill="white" transform="translate(16 16.375)"/>
</clipPath>
</defs>
</svg>
