<svg width="64" height="64" viewBox="0 0 64 64" fill="none" xmlns="http://www.w3.org/2000/svg">
<rect width="64" height="64" rx="32" fill="#FFEFC7"/>
<g clip-path="url(#clip0_117_1014)">
<path d="M51.8957 27.3438C51.6339 26.5339 50.9155 25.9586 50.0656 25.882L38.5205 24.8337L33.9552 14.1483C33.6186 13.3652 32.852 12.8583 32.0002 12.8583C31.1484 12.8583 30.3818 13.3652 30.0452 14.1501L25.48 24.8337L13.933 25.882C13.0846 25.9604 12.368 26.5339 12.1047 27.3438C11.8413 28.1538 12.0845 29.0422 12.7263 29.6022L21.4531 37.2556L18.8797 48.591C18.6915 49.4245 19.0149 50.286 19.7065 50.7859C20.0782 51.0544 20.5131 51.1912 20.9516 51.1912C21.3298 51.1912 21.7048 51.0892 22.0415 50.8878L32.0002 44.9358L41.9553 50.8878C42.6838 51.3261 43.6021 51.2861 44.2921 50.7859C44.9839 50.2845 45.3071 49.4226 45.1188 48.591L42.5455 37.2556L51.2722 29.6037C51.914 29.0422 52.1591 28.1553 51.8957 27.3438Z" fill="#FFB600"/>
</g>
<defs>
<clipPath id="clip0_117_1014">
<rect width="40" height="40" fill="white" transform="translate(12 12)"/>
</clipPath>
</defs>
</svg>
